<?xml version="1.0" encoding="utf-8"?>
<!-- Generator: Adobe Illustrator 24.0.1, SVG Export Plug-In . SVG Version: 6.00 Build 0)  -->
<svg version="1.1" xmlns="http://www.w3.org/2000/svg" xmlns:xlink="http://www.w3.org/1999/xlink" x="0px" y="0px"
	 viewBox="0 0 225 159" style="enable-background:new 0 0 225 159;" xml:space="preserve">
<style type="text/css">
	.st0{fill:#010101;fill-opacity:0.2471;}
	.st1{fill:#68553A;}
	.st2{fill:#836948;}
	.st3{fill:#695233;}
	.st4{fill:#5F4B2E;}
	.st5{fill:#604D31;}
	.st6{fill:#625036;}
	.st7{fill:#6F552E;}
	.st8{fill:#5F4E36;}
	.st9{fill:#6F5A3D;}
	.st10{fill:#5C4C33;}
	.st11{fill:#685233;}
	.st12{fill:#5F4A2D;}
	.st13{fill:#5C482D;}
	.st14{fill:#57462D;}
	.st15{fill:#A17F55;}
	.st16{fill:#7E5E34;}
	.st17{fill:#987C57;}
	.st18{fill:#907046;}
	.st19{fill:#795A30;}
	.st20{fill:#8C6D46;}
	.st21{fill:#604A29;}
	.st22{fill:#705631;}
	.st23{fill:#FFD8A1;}
	.st24{fill:#E8C08A;}
	.st25{fill:#FFDC71;}
	.st26{fill:#DFBA86;}
	.st27{fill:#E9E9E9;}
	.st28{fill:#FFFFFF;}
	.st29{fill:#E8B282;}
	.st30{fill:#FFE5CC;}
	.st31{fill:#FDCA97;}
	.st32{fill:#E4B585;}
	.st33{fill:#546F32;}
	.st34{fill:#709342;}
	.st35{fill:#9C3321;}
	.st36{fill:#DD4E34;}
	.st37{fill:#D75D27;}
	.st38{fill:#F58857;}
	.st39{fill:#D95D2E;}
</style>
<g id="Layer_1">
	<title>Artboard</title>
	<desc>Created with Sketch.</desc>
	<g id="Page-1">
		<g id="Artboard">
			<g id="board" transform="translate(1.000000, 14.000000)">
				<g id="Group" transform="translate(2.000000, 47.000000)">
					<g id="people_0_Layer22_0_FILL">
						<g>
							<path id="Shape" class="st0" d="M0.1,81.6c2,3,3.4,4.9,4.1,5.7c0.5,0.5,1,1,1.6,1.5c1.2,1,2.8,2.1,4.6,3.1
								c0.3,0.2,0.7,0.4,1.1,0.6c0.6,0.3,1.2,0.6,1.8,0.9c1.7,0.8,3.5,1.5,5.3,2c0.3,0.1,0.6,0.2,0.9,0.3c2.5,0.7,4.6,0.9,6.3,0.7
								c1.8-0.2,4.6-1.5,8.4-3.8c2.8-1.8,6.2-4.1,10.2-7.1c2.9-2.1,5.8-4.5,8.9-7l3.8-3.2c4.4-2,9.4-3,15.2-3c1.1,0,2.2,0,3.3,0.1
								c2.6,0.2,5,0.6,7.3,1.3l0.3,0.1c0,0,0.1,0,0.2,0.1l0.4,0.1c3.5,1,7.1,1.9,10.7,2.7c0.9,0.2,1.8,0.4,2.7,0.5
								c4.6,0.8,9.5,1.5,14.4,1.9c3.9,0.3,7.9,0.5,12.1,0.6c0.7,0,1.4,0,2.2,0c6.2,0,12.2-0.3,17.9-0.9c3-0.3,5.9-0.7,8.8-1.2
								c6.9-1.1,13.4-2.7,19.7-4.8c7.2-2.4,14-5.4,20.4-9c6.2-3.5,11.4-7.2,15.6-11.2c0.4-0.4,0.8-0.8,1.2-1.2
								c3.3-3.3,5.9-6.8,7.8-10.4c0.7-1.3,1.3-2.6,1.8-3.9c0.6-1.6,1.1-3.1,1.5-4.8c0.5-2,0.7-4,0.9-6.1c0-0.2,0-0.5,0-0.7
								c0-0.1,0-0.3,0-0.4v-0.1c0-0.5,0-1,0-1.5l-5.2-23.3l-1.4,12.6L0.1,81.6z"/>
						</g>
					</g>
				</g>
				<g id="Group_1_">
					<g id="people_0_Layer21_4_FILL">
						<g>
							<path id="Shape_1_" class="st1" d="M218.8,53.9c0,0.1,0,0.2,0,0.3c-0.1,2-0.3,3.9-0.7,5.8c-0.3,1.7-0.8,3.3-1.4,4.9
								c-0.1,0.3-0.2,0.6-0.3,0.8c-0.5,1.3-1.1,2.6-1.8,3.9c0,0,0,0,0,0V82c0.7-1.3,1.3-2.6,1.8-3.9c0.6-1.6,1.1-3.1,1.5-4.8
								c0.5-2,0.7-4,0.9-6.1c0-0.2,0-0.5,0-0.7c0-0.1,0-0.3,0-0.4v-0.1c0-0.5,0-1,0-1.5V53.9L218.8,53.9z M7.9,120.6
								c-0.1-0.1-0.2-0.1-0.3-0.2c-1.6-0.9-3-1.9-4.2-2.8l-0.1,12.3c1.2,1,2.8,2.1,4.6,3.1c0.3,0.2,0.7,0.4,1.1,0.6
								c0.6,0.3,1.2,0.6,1.8,0.9L10.6,122C9.7,121.5,8.8,121.1,7.9,120.6L7.9,120.6z M32.9,65.5c-0.4-1.1-0.6-2.2-0.9-3.3
								c0,0,0-0.1,0-0.1c-0.3-1.7-0.6-3.4-0.6-5.1l0,11.7c0,0.2,0,0.4,0,0.6c0,0.1,0,0.1,0,0.2c0,4,0.7,7.8,2.1,11.5
								c0.7,1.9,1.6,3.8,2.7,5.7c0.3,0.6,0.7,1.1,1.1,1.7c0.4,0.5,0.7,1.1,1.1,1.6l-0.6-14.8C35.6,72.1,34,68.8,32.9,65.5z"/>
							<path id="Shape_2_" class="st2" d="M218.8,53.9v-0.2c0-0.1,0-0.2,0-0.3l-97.8,54.9c0.7,0,1.4,0,2.2,0
								c6.1,0,12.1-0.3,17.8-0.9l75.4-42.3l0.3-0.2c0.6-1.6,1-3.2,1.4-4.9c0.4-1.9,0.6-3.8,0.7-5.8C218.8,54.1,218.8,54,218.8,53.9
								L218.8,53.9z M50.7,107.1l3.8-3.2c4.4-2,9.4-3,15.2-3c1.1,0,2.2,0,3.3,0.1l131.6-76.7c-1.6-1.4-3.3-2.8-5.2-4.1l-182.8,104
								c0,0,0.1,0,0.1,0c2.5,0.7,4.7,1,6.4,0.8c0,0,0.1,0,0.1,0c3.2-0.4,9.4-4.1,18.6-10.9C44.6,111.9,47.6,109.6,50.7,107.1
								L50.7,107.1z M37.8,34.9c-0.8,1.2-1.6,2.5-2.3,3.7L99.4,2.2c0,0,0,0-0.1,0c-14.5,2.5-27.6,7-39.2,13.6
								C50,21.5,42.6,27.9,37.8,34.9L37.8,34.9z M173,6.9c-3.8-1.3-7.6-2.4-11.6-3.3L37.7,75.1c0,0,0,0.1,0.1,0.1
								c0.6,0.8,1.2,1.7,1.9,2.5l2.1,2.4c0.6,1,1.1,2,1.3,3.1L173,6.9L173,6.9z M206.8,80v-0.2l-37.5,21.7
								c7.4-2.4,14.3-5.4,20.8-9.1c6.2-3.5,11.4-7.2,15.6-11.2C206,80.8,206.4,80.4,206.8,80z"/>
							<path id="Shape_3_" class="st3" d="M16.5,124.2c-0.2-0.1-0.4-0.1-0.6-0.2c-1.8-0.5-3.6-1.2-5.4-2.1l0.1,12.4
								c1.7,0.8,3.5,1.5,5.3,2c0.3,0.1,0.6,0.2,0.9,0.3L16.5,124.2z"/>
							<path id="Shape_4_" class="st4" d="M3.4,117.6c-0.6-0.5-1.2-1.1-1.7-1.6c-1-1.1-1.5-2-1.7-2.9c0,0,0,0,0-0.1l0,12.7
								c0.2,0.8,0.8,1.7,1.6,2.6c0.5,0.5,1,1,1.6,1.5L3.4,117.6z"/>
							<path id="Shape_5_" class="st5" d="M141.2,119.7l-0.1-12.4c-5.7,0.6-11.7,0.9-17.8,0.9c-0.7,0-1.5,0-2.2,0l0,12.4
								c0.7,0,1.4,0,2.2,0C129.4,120.6,135.4,120.3,141.2,119.7z"/>
							<path id="Shape_6_" class="st6" d="M150,106.2l0,12.4c6.9-1.1,13.4-2.7,19.7-4.8l-0.3-12.3C163.1,103.5,156.7,105,150,106.2z
								"/>
							<path id="Shape_7_" class="st7" d="M150,106.2c-2.9,0.5-5.9,0.9-8.9,1.2l0.1,12.4c3-0.3,5.9-0.7,8.8-1.2L150,106.2z"/>
							<path id="Shape_8_" class="st8" d="M91.9,117.6l-0.1-12.4c-3.7-0.7-7.2-1.6-10.6-2.7l-0.4-0.1c-0.1,0-0.1,0-0.2-0.1l-0.3-0.1
								c-2.3-0.7-4.7-1.1-7.4-1.3l0.1,12.4c2.6,0.2,5,0.6,7.3,1.3l0.3,0.1c0,0,0.1,0,0.2,0.1l0.4,0.1
								C84.6,116,88.2,116.9,91.9,117.6z"/>
							<path id="Shape_9_" class="st9" d="M108.9,107.6l0.1,12.4c3.9,0.3,7.9,0.5,12.1,0.6l0-12.4
								C116.9,108.1,112.9,108,108.9,107.6z"/>
							<path id="Shape_10_" class="st10" d="M109.1,120l-0.1-12.4c-4.9-0.4-9.7-1-14.3-1.9l0,12.4C99.3,119,104.1,119.6,109.1,120z"
								/>
							<path id="Shape_11_" class="st11" d="M94.6,105.7c-0.9-0.2-1.9-0.4-2.8-0.5l0.1,12.4c0.9,0.2,1.8,0.4,2.7,0.5L94.6,105.7z"/>
							<path id="Shape_12_" class="st12" d="M25.5,114.2c0-0.2,0-0.5-0.1-0.7c-0.1-0.2-0.1-0.5-0.3-0.7c-0.3-0.6-0.9-1.1-1.6-1.5
								c-1.3-0.8-3-1.2-4.9-1.2c-1,0-1.9,0.1-2.7,0.3c-0.8,0.2-1.6,0.5-2.3,0.9c-0.7,0.4-1.3,0.9-1.6,1.4c-0.3,0.5-0.5,1-0.5,1.5
								c-0.1,1.1,0.6,2.1,1.9,2.9c0.2,0.1,0.4,0.2,0.7,0.4c0.9,0.4,2,0.7,3.2,0.8c0.4,0,0.7,0,1.1,0c1.9,0,3.6-0.4,5-1.2
								C24.7,116.2,25.5,115.3,25.5,114.2z"/>
							<path id="Shape_13_" class="st13" d="M54.5,103.9l-3.8,3.2c-3.1,2.5-6.1,4.9-8.9,7c-9.1,6.9-15.3,10.5-18.6,10.9
								c0,0-0.1,0-0.1,0c-1.7,0.2-3.9-0.1-6.4-0.8c0,0-0.1,0-0.1,0l0.4,12.5c2.5,0.7,4.6,0.9,6.3,0.7c1.8-0.2,4.6-1.5,8.4-3.8
								c2.8-1.8,6.2-4.1,10.2-7.1c2.9-2.1,5.8-4.5,8.9-7l3.8-3.2c4.4-2,9.4-3,15.2-3c1.1,0,2.2,0,3.3,0.1L72.9,101
								c-1.1-0.1-2.2-0.1-3.3-0.1C63.9,100.9,58.8,101.9,54.5,103.9z"/>
							<path id="Shape_14_" class="st14" d="M39.7,77.7c-0.7-0.8-1.3-1.6-1.9-2.5c0,0,0-0.1-0.1-0.1L38.4,90
								c0.4,0.6,0.8,1.1,1.3,1.7c0.2,0.1,0.3,0.3,0.5,0.4c1.5-1.5,2.5-3.2,2.9-4.9c0.1-0.6,0.2-1.2,0.2-1.8c0-0.7,0-1.5-0.2-2.2
								c-0.2-1.1-0.7-2.1-1.3-3.1L39.7,77.7z"/>
							<path id="Shape_15_" class="st15" d="M109.3,0.9c-3.3,0.3-6.6,0.8-9.8,1.3L35.5,38.6c-1,1.8-1.8,3.7-2.4,5.6L109.3,0.9
								L109.3,0.9z M161.3,3.6c-4.9-1.1-10-2-15.2-2.6L32.9,65.5c1.1,3.3,2.7,6.5,4.8,9.6L161.3,3.6L161.3,3.6z M218.8,52.5
								c0-2.2-0.3-4.4-0.7-6.5l-109.2,61.7c3.9,0.3,8,0.5,12.2,0.6l97.8-54.9c0-0.2,0-0.3,0-0.4V52.5L218.8,52.5z M205.6,25.4
								c-0.4-0.3-0.8-0.7-1.1-1L72.9,101c2.6,0.2,5.1,0.6,7.4,1.3l0.3,0.1c0,0,0.1,0,0.2,0.1l0.4,0.1c3.4,1,7,1.9,10.6,2.7l122-70
								c-0.7-1.1-1.4-2.2-2.2-3.3C209.9,29.6,207.9,27.5,205.6,25.4z"/>
							<path id="Shape_16_" class="st16" d="M186.3,12.5c-2.9-1.5-6-2.8-9.1-4L43,87.1c-0.4,1.8-1.4,3.4-2.9,4.9c0,0,0,0-0.1,0.1
								c-0.3,0.3-0.6,0.6-1,0.9c-0.6,0.5-1.2,0.9-1.9,1.4l-5.4,2c-4.4,1.6-8.4,3.2-12.2,4.7C7.7,106,1.2,109.5,0.2,111.6
								c-0.1,0.2-0.1,0.4-0.2,0.6c0,0,0,0,0,0.1c0,0.3,0,0.5,0,0.8v0c0,0,0,0,0,0.1c0.2,0.9,0.7,1.8,1.7,2.9c0.5,0.5,1,1.1,1.7,1.6
								l8.6-4.9c0.3-0.5,0.9-1,1.6-1.4c0.7-0.4,1.5-0.7,2.3-0.9L186.3,12.5L186.3,12.5z M216.4,65.7v-0.7l-75.4,42.3
								c3-0.3,6-0.7,8.9-1.2l64.7-36.5C215.3,68.3,215.9,67,216.4,65.7L216.4,65.7z M214.5,36.4c-0.2-0.4-0.5-0.8-0.7-1.2l-122,70
								c0.9,0.2,1.9,0.4,2.8,0.5L214.5,36.4z"/>
							<path id="Shape_17_" class="st17" d="M194.4,17c-0.6-0.4-1.2-0.7-1.8-1.1c-2.1-1.2-4.2-2.4-6.3-3.4L15.9,110.4
								c0.8-0.2,1.8-0.3,2.7-0.3c1.9,0,3.6,0.4,4.9,1.2c0.8,0.5,1.3,1,1.6,1.5c0.1,0.2,0.2,0.4,0.3,0.7L194.4,17L194.4,17z M126.9,0
								c-0.9,0-1.7,0-2.6,0L31.4,53.7l0,3.2c0.1,1.7,0.3,3.5,0.6,5.1L140.4,0.5C136,0.2,131.6,0,126.9,0z"/>
							<path id="Shape_18_" class="st18" d="M199.3,20.2c-0.3-0.2-0.6-0.4-0.9-0.6c-1.3-0.9-2.6-1.8-4-2.6l-169,96.5
								c0.1,0.2,0.1,0.4,0.1,0.7c0,1.1-0.8,2.1-2.2,2.9c-1.4,0.8-3.1,1.2-5,1.2c-0.4,0-0.8,0-1.1,0c-1.2-0.1-2.2-0.4-3.2-0.8
								c-0.2-0.1-0.5-0.2-0.7-0.4c-1.3-0.8-2-1.8-1.9-2.9c0-0.5,0.2-1,0.5-1.5l-8.6,4.9c1.1,0.9,2.5,1.9,4.2,2.8
								c0.1,0.1,0.2,0.1,0.3,0.2c0.9,0.5,1.8,1,2.7,1.4c1.8,0.8,3.6,1.5,5.4,2.1c0.2,0.1,0.4,0.1,0.6,0.2L199.3,20.2L199.3,20.2z
								 M177.2,8.5c-1.4-0.5-2.8-1.1-4.3-1.5L43.1,83.2c0.1,0.7,0.2,1.4,0.2,2.2c0,0.6-0.1,1.2-0.2,1.8L177.2,8.5L177.2,8.5z
								 M124.4,0c-1.2,0-2.3,0-3.5,0.1c-3,0.1-5.9,0.3-8.8,0.5c-0.9,0.1-1.9,0.2-2.8,0.3L33.2,44.1c-1,3-1.6,6.1-1.7,9.3v0.3
								L124.4,0L124.4,0z M214.6,69.7C214.6,69.6,214.6,69.6,214.6,69.7L150,106.2c6.7-1.1,13.2-2.7,19.3-4.7l37.5-21.7V80
								c0.2-0.2,0.4-0.4,0.6-0.6C210.4,76.3,212.8,73.1,214.6,69.7L214.6,69.7z M216.4,65.1v0.7c0.1-0.3,0.2-0.5,0.3-0.8L216.4,65.1
								z"/>
							<path id="Shape_19_" class="st19" d="M141.6,0.6c-0.4,0-0.8-0.1-1.2-0.1L32,62.1c0,0,0,0.1,0,0.1c0.2,1.1,0.5,2.2,0.9,3.3
								L146.1,1C144.6,0.9,143.1,0.7,141.6,0.6z"/>
							<path id="Shape_20_" class="st20" d="M218.1,46c-0.7-3.3-1.9-6.5-3.6-9.5L94.6,105.7c4.6,0.8,9.4,1.5,14.3,1.9L218.1,46z"/>
							<path id="Shape_21_" class="st21" d="M205.6,93.6c0.4-0.4,0.8-0.8,1.2-1.2V80c-0.4,0.4-0.8,0.8-1.2,1.2
								c-4.2,4-9.4,7.7-15.6,11.2c-6.5,3.7-13.4,6.7-20.8,9.1l0.3,12.3c7.2-2.4,14-5.4,20.4-9C196.2,101.3,201.4,97.6,205.6,93.6z"
								/>
							<path id="Shape_22_" class="st22" d="M207.4,79.5c-0.2,0.2-0.4,0.4-0.6,0.6v12.4c3.3-3.3,5.9-6.8,7.8-10.4V69.7
								C212.8,73.1,210.4,76.3,207.4,79.5z"/>
						</g>
					</g>
				</g>
			</g>
			<g id="base" transform="translate(38.000000, 6.000000)">
				<path id="Shape_23_" class="st23" d="M175.5,53.3c0.2-1.2,0.3-2.3,0.3-3.5c0,0,0-0.1,0-0.1v-0.2c0-0.4,0-0.8,0-1.2
					c0-13.2-8.1-24.3-24.2-33.5C134.9,5.2,114.4,0.6,90.2,1C65.9,1.4,45,6.6,27.4,16.7C9.8,26.7,0.7,38.7,0,52.5c0,0.6,0,1.1,0,1.7
					v0.6c0,1.4,0.2,2.7,0.4,4C2.1,70,10.1,79.5,24.2,87.6c16.7,9.5,37.2,14.1,61.5,13.7c24.3-0.4,45.2-5.6,62.8-15.7
					C164.6,76.4,173.6,65.7,175.5,53.3L175.5,53.3z M167.8,47.8c0,0.7,0,1.4,0,2.1c0,0.4,0,0.8-0.1,1.2c-1,11.4-9.3,21.2-24.7,29.6
					c-16,8.6-35,13.1-57.1,13.4c-22,0.3-40.7-3.6-55.9-11.8C16.5,75.1,9.2,66.3,8.2,56c-0.1-0.9-0.1-1.8-0.1-2.8c0-0.3,0-0.6,0-0.9
					c0.3-6.6,3-12.7,8-18.2c4.1-4.5,9.7-8.7,16.8-12.5c16-8.6,35-13.1,57-13.4c22.1-0.3,40.7,3.6,55.9,11.8
					c5.4,2.9,9.8,6.1,13.2,9.4C164.7,34.9,167.6,41,167.8,47.8z"/>
				<path id="Shape_24_" class="st24" d="M145.8,22.4c5.4,2.9,9.8,6.1,13.2,9.4c4.8,4.8,7.8,10.1,8.7,16c-0.2-6.8-3.1-13-8.7-18.5
					c-3.4-3.4-7.8-6.5-13.2-9.4C130.6,11.7,112,7.8,90,8.1c-22.1,0.3-41.1,4.8-57,13.4c-7.1,3.9-12.7,8-16.8,12.5
					c-5,5.6-7.7,11.7-8,18.2c0,0.3,0,0.6,0,0.9c0.8-6.1,3.5-11.6,8.1-16.7c4.1-4.5,9.7-8.7,16.8-12.5c16-8.6,35-13.1,57-13.4
					C112,10.3,130.6,14.2,145.8,22.4z"/>
				<path id="Shape_25_" class="st25" d="M167.8,50c0-0.7,0-1.4,0-2.1c-1-5.9-3.9-11.2-8.7-16c-3.4-3.4-7.8-6.5-13.2-9.4
					C130.6,14.2,112,10.3,90,10.6c-22.1,0.3-41.1,4.8-57,13.4c-7.1,3.9-12.7,8-16.8,12.5c-4.5,5-7.2,10.6-8.1,16.7
					c0,0.9,0,1.8,0.1,2.8c1,10.3,8.3,19.1,21.9,26.4c15.2,8.2,33.8,12.1,55.9,11.8C108,93.9,127,89.4,143,80.8
					c15.4-8.3,23.7-18.2,24.7-29.6C167.7,50.8,167.7,50.4,167.8,50z"/>
				<path id="Shape_26_" class="st26" d="M175.8,49.8c-0.1,1.2-0.2,2.4-0.3,3.5c-1.9,12.4-10.9,23.1-27,32.3
					c-17.6,10.1-38.5,15.3-62.8,15.7c-24.3,0.4-44.8-4.2-61.5-13.7C10.1,79.5,2.1,70,0.4,58.8c-0.2-1.3-0.3-2.7-0.4-4v8.5
					c0,0.3,0,0.6,0,0.9c0.2,13,8.3,24.1,24.2,33.2c16.7,9.5,37.2,14.1,61.5,13.7c24.3-0.4,45.2-5.6,62.8-15.7
					c17.6-10.1,26.7-22,27.3-35.9c0-0.2,0-0.4,0-0.6c0-0.7,0-1.3,0-2v-7.4C175.9,49.7,175.8,49.7,175.8,49.8z"/>
			</g>
		</g>
	</g>
</g>
<g id="Layer_2">
	<g id="Page-1_2_">
		<g id="Artboard_2_">
			<g id="mozzarella" transform="translate(90.000000, 32.000000)">
				<path id="Shape_65_" class="st27" d="M26.5,10.9V9.3c0,0.3-0.1,0.5-0.2,0.7c-0.3,0.6-0.8,1.2-1.6,1.6c-1.4,0.8-2.7,0.8-4.1,0.1
					c-1.2-0.7-2.9-1.2-4.8-1.5l0.3,0c-0.2-0.1-0.4-0.1-0.4-0.1c-0.4,0-0.6-0.1-0.6-0.1c-1.7-0.4-2.8-1-3.3-1.8
					c-0.1-0.2-0.2-0.4-0.3-0.7c0-0.2,0-0.3-0.1-0.5l0,2.2c0,0.1,0,0.1,0,0.2c0,0.1,0,0.3,0,0.4c0.2,1.2,1.5,1.9,3.7,2.2l0.2,0
					c2.3,0.5,4.1,1.1,5.4,1.9c1.3,0.8,2.7,0.7,4.1-0.1c1.3-0.8,1.9-1.7,1.9-2.9C26.5,11,26.5,10.9,26.5,10.9L26.5,10.9z M14.2,8.3
					C14.2,8.3,14.2,8.3,14.2,8.3C14,8.3,14,8.3,14.2,8.3L14.2,8.3z M12.6,7.4l0.5,0.5c0.2,0.1,0.5,0.2,1,0.4
					c-1.7-1.3-1.4-2.4,0.8-3.4C12.9,5.5,12.1,6.4,12.6,7.4z"/>
				<path id="Shape_64_" class="st28" d="M26.5,9c0-0.2,0-0.4,0-0.5c-0.1-1.3-1-2.4-2.6-3.4c-1.6-1-3.5-1.5-5.6-1.6
					c-2.1-0.1-3.9,0.2-5.2,1.1c-1.2,0.7-1.8,1.6-1.8,2.6v0c0,0.1,0,0.3,0.1,0.5c0,0.2,0.1,0.5,0.3,0.7c0.5,0.8,1.6,1.4,3.3,1.8
					c0,0,0.2,0,0.6,0.1c0.1,0,0.2,0,0.4,0.1l-0.3,0c2,0.3,3.6,0.8,4.8,1.5c1.3,0.8,2.7,0.7,4.1-0.1c0.8-0.5,1.3-1,1.6-1.6
					c0.1-0.2,0.2-0.5,0.2-0.7C26.5,9.2,26.5,9.1,26.5,9L26.5,9z M13.1,7.9l-0.5-0.5c-0.5-1,0.3-1.8,2.3-2.5c-2.2,1-2.5,2.2-0.8,3.4
					C13.6,8.1,13.3,8,13.1,7.9L13.1,7.9z M14.2,8.3C14.2,8.3,14.2,8.3,14.2,8.3C14,8.3,14,8.3,14.2,8.3z"/>
			</g>
			<g id="mozzarella-copy-5" transform="translate(62.000000, 51.000000)">
				<path id="Shape_63_" class="st27" d="M26.5,10.9V9.3c0,0.3-0.1,0.5-0.2,0.7c-0.3,0.6-0.8,1.2-1.6,1.6c-1.4,0.8-2.7,0.8-4.1,0.1
					c-1.2-0.7-2.9-1.2-4.8-1.5l0.3,0c-0.2-0.1-0.4-0.1-0.4-0.1c-0.4,0-0.6-0.1-0.6-0.1c-1.7-0.4-2.8-1-3.3-1.8
					c-0.1-0.2-0.2-0.4-0.3-0.7c0-0.2,0-0.3-0.1-0.5l0,2.2c0,0.1,0,0.1,0,0.2c0,0.1,0,0.3,0,0.4c0.2,1.2,1.5,1.9,3.7,2.2l0.2,0
					c2.3,0.5,4.1,1.1,5.4,1.9c1.3,0.8,2.7,0.7,4.1-0.1c1.3-0.8,1.9-1.7,1.9-2.9C26.5,11,26.5,10.9,26.5,10.9L26.5,10.9z M14.2,8.3
					C14.2,8.3,14.2,8.3,14.2,8.3C14,8.3,14,8.3,14.2,8.3L14.2,8.3z M12.6,7.4l0.5,0.5c0.2,0.1,0.5,0.2,1,0.4
					c-1.7-1.3-1.4-2.4,0.8-3.4C12.9,5.5,12.1,6.4,12.6,7.4z"/>
				<path id="Shape_62_" class="st28" d="M26.5,9c0-0.2,0-0.4,0-0.5c-0.1-1.3-1-2.4-2.6-3.4c-1.6-1-3.5-1.5-5.6-1.6
					c-2.1-0.1-3.9,0.2-5.2,1.1c-1.2,0.7-1.8,1.6-1.8,2.6v0c0,0.1,0,0.3,0.1,0.5c0,0.2,0.1,0.5,0.3,0.7c0.5,0.8,1.6,1.4,3.3,1.8
					c0,0,0.2,0,0.6,0.1c0.1,0,0.2,0,0.4,0.1l-0.3,0c2,0.3,3.6,0.8,4.8,1.5c1.3,0.8,2.7,0.7,4.1-0.1c0.8-0.5,1.3-1,1.6-1.6
					c0.1-0.2,0.2-0.5,0.2-0.7C26.5,9.2,26.5,9.1,26.5,9L26.5,9z M13.1,7.9l-0.5-0.5c-0.5-1,0.3-1.8,2.3-2.5c-2.2,1-2.5,2.2-0.8,3.4
					C13.6,8.1,13.3,8,13.1,7.9L13.1,7.9z M14.2,8.3C14.2,8.3,14.2,8.3,14.2,8.3C14,8.3,14,8.3,14.2,8.3z"/>
			</g>
			<g id="mozzarella-copy-7" transform="translate(101.000000, 65.000000)">
				<path id="Shape_61_" class="st27" d="M26.5,10.9V9.3c0,0.3-0.1,0.5-0.2,0.7c-0.3,0.6-0.8,1.2-1.6,1.6c-1.4,0.8-2.7,0.8-4.1,0.1
					c-1.2-0.7-2.9-1.2-4.8-1.5l0.3,0c-0.2-0.1-0.4-0.1-0.4-0.1c-0.4,0-0.6-0.1-0.6-0.1c-1.7-0.4-2.8-1-3.3-1.8
					c-0.1-0.2-0.2-0.4-0.3-0.7c0-0.2,0-0.3-0.1-0.5l0,2.2c0,0.1,0,0.1,0,0.2c0,0.1,0,0.3,0,0.4c0.2,1.2,1.5,1.9,3.7,2.2l0.2,0
					c2.3,0.5,4.1,1.1,5.4,1.9c1.3,0.8,2.7,0.7,4.1-0.1c1.3-0.8,1.9-1.7,1.9-2.9C26.5,11,26.5,10.9,26.5,10.9L26.5,10.9z M14.2,8.3
					C14.2,8.3,14.2,8.3,14.2,8.3C14,8.3,14,8.3,14.2,8.3L14.2,8.3z M12.6,7.4l0.5,0.5c0.2,0.1,0.5,0.2,1,0.4
					c-1.7-1.3-1.4-2.4,0.8-3.4C12.9,5.5,12.1,6.4,12.6,7.4z"/>
				<path id="Shape_60_" class="st28" d="M26.5,9c0-0.2,0-0.4,0-0.5c-0.1-1.3-1-2.4-2.6-3.4c-1.6-1-3.5-1.5-5.6-1.6
					c-2.1-0.1-3.9,0.2-5.2,1.1c-1.2,0.7-1.8,1.6-1.8,2.6v0c0,0.1,0,0.3,0.1,0.5c0,0.2,0.1,0.5,0.3,0.7c0.5,0.8,1.6,1.4,3.3,1.8
					c0,0,0.2,0,0.6,0.1c0.1,0,0.2,0,0.4,0.1l-0.3,0c2,0.3,3.6,0.8,4.8,1.5c1.3,0.8,2.7,0.7,4.1-0.1c0.8-0.5,1.3-1,1.6-1.6
					c0.1-0.2,0.2-0.5,0.2-0.7C26.5,9.2,26.5,9.1,26.5,9L26.5,9z M13.1,7.9l-0.5-0.5c-0.5-1,0.3-1.8,2.3-2.5c-2.2,1-2.5,2.2-0.8,3.4
					C13.6,8.1,13.3,8,13.1,7.9L13.1,7.9z M14.2,8.3C14.2,8.3,14.2,8.3,14.2,8.3C14,8.3,14,8.3,14.2,8.3z"/>
			</g>
			<g id="mozzarella-copy" transform="translate(113.000000, 59.000000)">
				<path id="Shape_59_" class="st27" d="M26.5,10.9V9.3c0,0.3-0.1,0.5-0.2,0.7c-0.3,0.6-0.8,1.2-1.6,1.6c-1.4,0.8-2.7,0.8-4.1,0.1
					c-1.2-0.7-2.9-1.2-4.8-1.5l0.3,0c-0.2-0.1-0.4-0.1-0.4-0.1c-0.4,0-0.6-0.1-0.6-0.1c-1.7-0.4-2.8-1-3.3-1.8
					c-0.1-0.2-0.2-0.4-0.3-0.7c0-0.2,0-0.3-0.1-0.5l0,2.2c0,0.1,0,0.1,0,0.2c0,0.1,0,0.3,0,0.4c0.2,1.2,1.5,1.9,3.7,2.2l0.2,0
					c2.3,0.5,4.1,1.1,5.4,1.9c1.3,0.8,2.7,0.7,4.1-0.1c1.3-0.8,1.9-1.7,1.9-2.9C26.5,11,26.5,10.9,26.5,10.9L26.5,10.9z M14.2,8.3
					C14.2,8.3,14.2,8.3,14.2,8.3C14,8.3,14,8.3,14.2,8.3L14.2,8.3z M12.6,7.4l0.5,0.5c0.2,0.1,0.5,0.2,1,0.4
					c-1.7-1.3-1.4-2.4,0.8-3.4C12.9,5.5,12.1,6.4,12.6,7.4z"/>
				<path id="Shape_58_" class="st28" d="M26.5,9c0-0.2,0-0.4,0-0.5c-0.1-1.3-1-2.4-2.6-3.4c-1.6-1-3.5-1.5-5.6-1.6
					c-2.1-0.1-3.9,0.2-5.2,1.1c-1.2,0.7-1.8,1.6-1.8,2.6v0c0,0.1,0,0.3,0.1,0.5c0,0.2,0.1,0.5,0.3,0.7c0.5,0.8,1.6,1.4,3.3,1.8
					c0,0,0.2,0,0.6,0.1c0.1,0,0.2,0,0.4,0.1l-0.3,0c2,0.3,3.6,0.8,4.8,1.5c1.3,0.8,2.7,0.7,4.1-0.1c0.8-0.5,1.3-1,1.6-1.6
					c0.1-0.2,0.2-0.5,0.2-0.7C26.5,9.2,26.5,9.1,26.5,9L26.5,9z M13.1,7.9l-0.5-0.5c-0.5-1,0.3-1.8,2.3-2.5c-2.2,1-2.5,2.2-0.8,3.4
					C13.6,8.1,13.3,8,13.1,7.9L13.1,7.9z M14.2,8.3C14.2,8.3,14.2,8.3,14.2,8.3C14,8.3,14,8.3,14.2,8.3z"/>
			</g>
			<g id="mozzarella-copy-2" transform="translate(148.000000, 56.000000)">
				<path id="Shape_57_" class="st27" d="M26.5,10.9V9.3c0,0.3-0.1,0.5-0.2,0.7c-0.3,0.6-0.8,1.2-1.6,1.6c-1.4,0.8-2.7,0.8-4.1,0.1
					c-1.2-0.7-2.9-1.2-4.8-1.5l0.3,0c-0.2-0.1-0.4-0.1-0.4-0.1c-0.4,0-0.6-0.1-0.6-0.1c-1.7-0.4-2.8-1-3.3-1.8
					c-0.1-0.2-0.2-0.4-0.3-0.7c0-0.2,0-0.3-0.1-0.5l0,2.2c0,0.1,0,0.1,0,0.2c0,0.1,0,0.3,0,0.4c0.2,1.2,1.5,1.9,3.7,2.2l0.2,0
					c2.3,0.5,4.1,1.1,5.4,1.9c1.3,0.8,2.7,0.7,4.1-0.1c1.3-0.8,1.9-1.7,1.9-2.9C26.5,11,26.5,10.9,26.5,10.9L26.5,10.9z M14.2,8.3
					C14.2,8.3,14.2,8.3,14.2,8.3C14,8.3,14,8.3,14.2,8.3L14.2,8.3z M12.6,7.4l0.5,0.5c0.2,0.1,0.5,0.2,1,0.4
					c-1.7-1.3-1.4-2.4,0.8-3.4C12.9,5.5,12.1,6.4,12.6,7.4z"/>
				<path id="Shape_56_" class="st28" d="M26.5,9c0-0.2,0-0.4,0-0.5c-0.1-1.3-1-2.4-2.6-3.4c-1.6-1-3.5-1.5-5.6-1.6
					c-2.1-0.1-3.9,0.2-5.2,1.1c-1.2,0.7-1.8,1.6-1.8,2.6v0c0,0.1,0,0.3,0.1,0.5c0,0.2,0.1,0.5,0.3,0.7c0.5,0.8,1.6,1.4,3.3,1.8
					c0,0,0.2,0,0.6,0.1c0.1,0,0.2,0,0.4,0.1l-0.3,0c2,0.3,3.6,0.8,4.8,1.5c1.3,0.8,2.7,0.7,4.1-0.1c0.8-0.5,1.3-1,1.6-1.6
					c0.1-0.2,0.2-0.5,0.2-0.7C26.5,9.2,26.5,9.1,26.5,9L26.5,9z M13.1,7.9l-0.5-0.5c-0.5-1,0.3-1.8,2.3-2.5c-2.2,1-2.5,2.2-0.8,3.4
					C13.6,8.1,13.3,8,13.1,7.9L13.1,7.9z M14.2,8.3C14.2,8.3,14.2,8.3,14.2,8.3C14,8.3,14,8.3,14.2,8.3z"/>
			</g>
			<g id="mozzarella-copy-3" transform="translate(139.000000, 39.000000)">
				<path id="Shape_55_" class="st27" d="M26.5,10.9V9.3c0,0.3-0.1,0.5-0.2,0.7c-0.3,0.6-0.8,1.2-1.6,1.6c-1.4,0.8-2.7,0.8-4.1,0.1
					c-1.2-0.7-2.9-1.2-4.8-1.5l0.3,0c-0.2-0.1-0.4-0.1-0.4-0.1c-0.4,0-0.6-0.1-0.6-0.1c-1.7-0.4-2.8-1-3.3-1.8
					c-0.1-0.2-0.2-0.4-0.3-0.7c0-0.2,0-0.3-0.1-0.5l0,2.2c0,0.1,0,0.1,0,0.2c0,0.1,0,0.3,0,0.4c0.2,1.2,1.5,1.9,3.7,2.2l0.2,0
					c2.3,0.5,4.1,1.1,5.4,1.9c1.3,0.8,2.7,0.7,4.1-0.1c1.3-0.8,1.9-1.7,1.9-2.9C26.5,11,26.5,10.9,26.5,10.9L26.5,10.9z M14.2,8.3
					C14.2,8.3,14.2,8.3,14.2,8.3C14,8.3,14,8.3,14.2,8.3L14.2,8.3z M12.6,7.4l0.5,0.5c0.2,0.1,0.5,0.2,1,0.4
					c-1.7-1.3-1.4-2.4,0.8-3.4C12.9,5.5,12.1,6.4,12.6,7.4z"/>
				<path id="Shape_54_" class="st28" d="M26.5,9c0-0.2,0-0.4,0-0.5c-0.1-1.3-1-2.4-2.6-3.4c-1.6-1-3.5-1.5-5.6-1.6
					c-2.1-0.1-3.9,0.2-5.2,1.1c-1.2,0.7-1.8,1.6-1.8,2.6v0c0,0.1,0,0.3,0.1,0.5c0,0.2,0.1,0.5,0.3,0.7c0.5,0.8,1.6,1.4,3.3,1.8
					c0,0,0.2,0,0.6,0.1c0.1,0,0.2,0,0.4,0.1l-0.3,0c2,0.3,3.6,0.8,4.8,1.5c1.3,0.8,2.7,0.7,4.1-0.1c0.8-0.5,1.3-1,1.6-1.6
					c0.1-0.2,0.2-0.5,0.2-0.7C26.5,9.2,26.5,9.1,26.5,9L26.5,9z M13.1,7.9l-0.5-0.5c-0.5-1,0.3-1.8,2.3-2.5c-2.2,1-2.5,2.2-0.8,3.4
					C13.6,8.1,13.3,8,13.1,7.9L13.1,7.9z M14.2,8.3C14.2,8.3,14.2,8.3,14.2,8.3C14,8.3,14,8.3,14.2,8.3z"/>
			</g>
			<g id="mozzarella-copy-10" transform="translate(167.000000, 45.000000)">
				<path id="Shape_53_" class="st27" d="M26.5,10.9V9.3c0,0.3-0.1,0.5-0.2,0.7c-0.3,0.6-0.8,1.2-1.6,1.6c-1.4,0.8-2.7,0.8-4.1,0.1
					c-1.2-0.7-2.9-1.2-4.8-1.5l0.3,0c-0.2-0.1-0.4-0.1-0.4-0.1c-0.4,0-0.6-0.1-0.6-0.1c-1.7-0.4-2.8-1-3.3-1.8
					c-0.1-0.2-0.2-0.4-0.3-0.7c0-0.2,0-0.3-0.1-0.5l0,2.2c0,0.1,0,0.1,0,0.2c0,0.1,0,0.3,0,0.4c0.2,1.2,1.5,1.9,3.7,2.2l0.2,0
					c2.3,0.5,4.1,1.1,5.4,1.9c1.3,0.8,2.7,0.7,4.1-0.1c1.3-0.8,1.9-1.7,1.9-2.9C26.5,11,26.5,10.9,26.5,10.9L26.5,10.9z M14.2,8.3
					C14.2,8.3,14.2,8.3,14.2,8.3C14,8.3,14,8.3,14.2,8.3L14.2,8.3z M12.6,7.4l0.5,0.5c0.2,0.1,0.5,0.2,1,0.4
					c-1.7-1.3-1.4-2.4,0.8-3.4C12.9,5.5,12.1,6.4,12.6,7.4z"/>
				<path id="Shape_52_" class="st28" d="M26.5,9c0-0.2,0-0.4,0-0.5c-0.1-1.3-1-2.4-2.6-3.4c-1.6-1-3.5-1.5-5.6-1.6
					c-2.1-0.1-3.9,0.2-5.2,1.1c-1.2,0.7-1.8,1.6-1.8,2.6v0c0,0.1,0,0.3,0.1,0.5c0,0.2,0.1,0.5,0.3,0.7c0.5,0.8,1.6,1.4,3.3,1.8
					c0,0,0.2,0,0.6,0.1c0.1,0,0.2,0,0.4,0.1l-0.3,0c2,0.3,3.6,0.8,4.8,1.5c1.3,0.8,2.7,0.7,4.1-0.1c0.8-0.5,1.3-1,1.6-1.6
					c0.1-0.2,0.2-0.5,0.2-0.7C26.5,9.2,26.5,9.1,26.5,9L26.5,9z M13.1,7.9l-0.5-0.5c-0.5-1,0.3-1.8,2.3-2.5c-2.2,1-2.5,2.2-0.8,3.4
					C13.6,8.1,13.3,8,13.1,7.9L13.1,7.9z M14.2,8.3C14.2,8.3,14.2,8.3,14.2,8.3C14,8.3,14,8.3,14.2,8.3z"/>
			</g>
			<g id="mozzarella-copy-4" transform="translate(117.000000, 32.000000)">
				<path id="Shape_51_" class="st27" d="M26.5,10.9V9.3c0,0.3-0.1,0.5-0.2,0.7c-0.3,0.6-0.8,1.2-1.6,1.6c-1.4,0.8-2.7,0.8-4.1,0.1
					c-1.2-0.7-2.9-1.2-4.8-1.5l0.3,0c-0.2-0.1-0.4-0.1-0.4-0.1c-0.4,0-0.6-0.1-0.6-0.1c-1.7-0.4-2.8-1-3.3-1.8
					c-0.1-0.2-0.2-0.4-0.3-0.7c0-0.2,0-0.3-0.1-0.5l0,2.2c0,0.1,0,0.1,0,0.2c0,0.1,0,0.3,0,0.4c0.2,1.2,1.5,1.9,3.7,2.2l0.2,0
					c2.3,0.5,4.1,1.1,5.4,1.9c1.3,0.8,2.7,0.7,4.1-0.1c1.3-0.8,1.9-1.7,1.9-2.9C26.5,11,26.5,10.9,26.5,10.9L26.5,10.9z M14.2,8.3
					C14.2,8.3,14.2,8.3,14.2,8.3C14,8.3,14,8.3,14.2,8.3L14.2,8.3z M12.6,7.4l0.5,0.5c0.2,0.1,0.5,0.2,1,0.4
					c-1.7-1.3-1.4-2.4,0.8-3.4C12.9,5.5,12.1,6.4,12.6,7.4z"/>
				<path id="Shape_50_" class="st28" d="M26.5,9c0-0.2,0-0.4,0-0.5c-0.1-1.3-1-2.4-2.6-3.4c-1.6-1-3.5-1.5-5.6-1.6
					c-2.1-0.1-3.9,0.2-5.2,1.1c-1.2,0.7-1.8,1.6-1.8,2.6v0c0,0.1,0,0.3,0.1,0.5c0,0.2,0.1,0.5,0.3,0.7c0.5,0.8,1.6,1.4,3.3,1.8
					c0,0,0.2,0,0.6,0.1c0.1,0,0.2,0,0.4,0.1l-0.3,0c2,0.3,3.6,0.8,4.8,1.5c1.3,0.8,2.7,0.7,4.1-0.1c0.8-0.5,1.3-1,1.6-1.6
					c0.1-0.2,0.2-0.5,0.2-0.7C26.5,9.2,26.5,9.1,26.5,9L26.5,9z M13.1,7.9l-0.5-0.5c-0.5-1,0.3-1.8,2.3-2.5c-2.2,1-2.5,2.2-0.8,3.4
					C13.6,8.1,13.3,8,13.1,7.9L13.1,7.9z M14.2,8.3C14.2,8.3,14.2,8.3,14.2,8.3C14,8.3,14,8.3,14.2,8.3z"/>
			</g>
			<g id="mozzarella-copy-9" transform="translate(144.000000, 27.000000)">
				<path id="Shape_49_" class="st27" d="M26.5,10.9V9.3c0,0.3-0.1,0.5-0.2,0.7c-0.3,0.6-0.8,1.2-1.6,1.6c-1.4,0.8-2.7,0.8-4.1,0.1
					c-1.2-0.7-2.9-1.2-4.8-1.5l0.3,0c-0.2-0.1-0.4-0.1-0.4-0.1c-0.4,0-0.6-0.1-0.6-0.1c-1.7-0.4-2.8-1-3.3-1.8
					c-0.1-0.2-0.2-0.4-0.3-0.7c0-0.2,0-0.3-0.1-0.5l0,2.2c0,0.1,0,0.1,0,0.2c0,0.1,0,0.3,0,0.4c0.2,1.2,1.5,1.9,3.7,2.2l0.2,0
					c2.3,0.5,4.1,1.1,5.4,1.9c1.3,0.8,2.7,0.7,4.1-0.1c1.3-0.8,1.9-1.7,1.9-2.9C26.5,11,26.5,10.9,26.5,10.9L26.5,10.9z M14.2,8.3
					C14.2,8.3,14.2,8.3,14.2,8.3C14,8.3,14,8.3,14.2,8.3L14.2,8.3z M12.6,7.4l0.5,0.5c0.2,0.1,0.5,0.2,1,0.4
					c-1.7-1.3-1.4-2.4,0.8-3.4C12.9,5.5,12.1,6.4,12.6,7.4z"/>
				<path id="Shape_48_" class="st28" d="M26.5,9c0-0.2,0-0.4,0-0.5c-0.1-1.3-1-2.4-2.6-3.4c-1.6-1-3.5-1.5-5.6-1.6
					c-2.1-0.1-3.9,0.2-5.2,1.1c-1.2,0.7-1.8,1.6-1.8,2.6v0c0,0.1,0,0.3,0.1,0.5c0,0.2,0.1,0.5,0.3,0.7c0.5,0.8,1.6,1.4,3.3,1.8
					c0,0,0.2,0,0.6,0.1c0.1,0,0.2,0,0.4,0.1l-0.3,0c2,0.3,3.6,0.8,4.8,1.5c1.3,0.8,2.7,0.7,4.1-0.1c0.8-0.5,1.3-1,1.6-1.6
					c0.1-0.2,0.2-0.5,0.2-0.7C26.5,9.2,26.5,9.1,26.5,9L26.5,9z M13.1,7.9l-0.5-0.5c-0.5-1,0.3-1.8,2.3-2.5c-2.2,1-2.5,2.2-0.8,3.4
					C13.6,8.1,13.3,8,13.1,7.9L13.1,7.9z M14.2,8.3C14.2,8.3,14.2,8.3,14.2,8.3C14,8.3,14,8.3,14.2,8.3z"/>
			</g>
			<g id="mozzarella-copy-6" transform="translate(74.000000, 68.000000)">
				<path id="Shape_47_" class="st27" d="M26.5,10.9V9.3c0,0.3-0.1,0.5-0.2,0.7c-0.3,0.6-0.8,1.2-1.6,1.6c-1.4,0.8-2.7,0.8-4.1,0.1
					c-1.2-0.7-2.9-1.2-4.8-1.5l0.3,0c-0.2-0.1-0.4-0.1-0.4-0.1c-0.4,0-0.6-0.1-0.6-0.1c-1.7-0.4-2.8-1-3.3-1.8
					c-0.1-0.2-0.2-0.4-0.3-0.7c0-0.2,0-0.3-0.1-0.5l0,2.2c0,0.1,0,0.1,0,0.2c0,0.1,0,0.3,0,0.4c0.2,1.2,1.5,1.9,3.7,2.2l0.2,0
					c2.3,0.5,4.1,1.1,5.4,1.9c1.3,0.8,2.7,0.7,4.1-0.1c1.3-0.8,1.9-1.7,1.9-2.9C26.5,11,26.5,10.9,26.5,10.9L26.5,10.9z M14.2,8.3
					C14.2,8.3,14.2,8.3,14.2,8.3C14,8.3,14,8.3,14.2,8.3L14.2,8.3z M12.6,7.4l0.5,0.5c0.2,0.1,0.5,0.2,1,0.4
					c-1.7-1.3-1.4-2.4,0.8-3.4C12.9,5.5,12.1,6.4,12.6,7.4z"/>
				<path id="Shape_46_" class="st28" d="M26.5,9c0-0.2,0-0.4,0-0.5c-0.1-1.3-1-2.4-2.6-3.4c-1.6-1-3.5-1.5-5.6-1.6
					c-2.1-0.1-3.9,0.2-5.2,1.1c-1.2,0.7-1.8,1.6-1.8,2.6v0c0,0.1,0,0.3,0.1,0.5c0,0.2,0.1,0.5,0.3,0.7c0.5,0.8,1.6,1.4,3.3,1.8
					c0,0,0.2,0,0.6,0.1c0.1,0,0.2,0,0.4,0.1l-0.3,0c2,0.3,3.6,0.8,4.8,1.5c1.3,0.8,2.7,0.7,4.1-0.1c0.8-0.5,1.3-1,1.6-1.6
					c0.1-0.2,0.2-0.5,0.2-0.7C26.5,9.2,26.5,9.1,26.5,9L26.5,9z M13.1,7.9l-0.5-0.5c-0.5-1,0.3-1.8,2.3-2.5c-2.2,1-2.5,2.2-0.8,3.4
					C13.6,8.1,13.3,8,13.1,7.9L13.1,7.9z M14.2,8.3C14.2,8.3,14.2,8.3,14.2,8.3C14,8.3,14,8.3,14.2,8.3z"/>
			</g>
			<g id="mozzarella-copy-8" transform="translate(113.000000, 82.000000)">
				<path id="Shape_45_" class="st27" d="M26.5,10.9V9.3c0,0.3-0.1,0.5-0.2,0.7c-0.3,0.6-0.8,1.2-1.6,1.6c-1.4,0.8-2.7,0.8-4.1,0.1
					c-1.2-0.7-2.9-1.2-4.8-1.5l0.3,0c-0.2-0.1-0.4-0.1-0.4-0.1c-0.4,0-0.6-0.1-0.6-0.1c-1.7-0.4-2.8-1-3.3-1.8
					c-0.1-0.2-0.2-0.4-0.3-0.7c0-0.2,0-0.3-0.1-0.5l0,2.2c0,0.1,0,0.1,0,0.2c0,0.1,0,0.3,0,0.4c0.2,1.2,1.5,1.9,3.7,2.2l0.2,0
					c2.3,0.5,4.1,1.1,5.4,1.9c1.3,0.8,2.7,0.7,4.1-0.1c1.3-0.8,1.9-1.7,1.9-2.9C26.5,11,26.5,10.9,26.5,10.9L26.5,10.9z M14.2,8.3
					C14.2,8.3,14.2,8.3,14.2,8.3C14,8.3,14,8.3,14.2,8.3L14.2,8.3z M12.6,7.4l0.5,0.5c0.2,0.1,0.5,0.2,1,0.4
					c-1.7-1.3-1.4-2.4,0.8-3.4C12.9,5.5,12.1,6.4,12.6,7.4z"/>
				<path id="Shape_44_" class="st28" d="M26.5,9c0-0.2,0-0.4,0-0.5c-0.1-1.3-1-2.4-2.6-3.4c-1.6-1-3.5-1.5-5.6-1.6
					c-2.1-0.1-3.9,0.2-5.2,1.1c-1.2,0.7-1.8,1.6-1.8,2.6v0c0,0.1,0,0.3,0.1,0.5c0,0.2,0.1,0.5,0.3,0.7c0.5,0.8,1.6,1.4,3.3,1.8
					c0,0,0.2,0,0.6,0.1c0.1,0,0.2,0,0.4,0.1l-0.3,0c2,0.3,3.6,0.8,4.8,1.5c1.3,0.8,2.7,0.7,4.1-0.1c0.8-0.5,1.3-1,1.6-1.6
					c0.1-0.2,0.2-0.5,0.2-0.7C26.5,9.2,26.5,9.1,26.5,9L26.5,9z M13.1,7.9l-0.5-0.5c-0.5-1,0.3-1.8,2.3-2.5c-2.2,1-2.5,2.2-0.8,3.4
					C13.6,8.1,13.3,8,13.1,7.9L13.1,7.9z M14.2,8.3C14.2,8.3,14.2,8.3,14.2,8.3C14,8.3,14,8.3,14.2,8.3z"/>
			</g>
		</g>
	</g>
	<g id="Artboard_3_">
		<g id="prawn" transform="translate(136.000000, 49.000000)">
			
				<g id="Group_4_" transform="translate(12.604167, 8.464583) scale(-1, 1) translate(-12.604167, -8.464583) translate(0.451389, 0.318750)">
				<g id="people_0_Layer10_0_FILL">
					<g>
						<path id="Shape_77_" class="st29" d="M14-13.4c0,0.1-0.1,0.3-0.2,0.4c-0.1,0.1-0.3,0.3-0.5,0.5c-0.2,0.1-0.4,0.3-0.6,0.4
							c-0.1,0.1-0.2,0.2-0.4,0.2c-1.3,0.8-2.9,1.2-4.6,1.3c-0.9,0-1.6,0-2.3-0.2c-0.1,0-0.1,0-0.2-0.1C4.5-11,4-11.3,3.6-11.7
							c0,0,0,0,0,0c0,0-0.1-0.1-0.1-0.1c-0.3-0.3-0.6-0.6-0.7-0.9c-0.1-0.2-0.2-0.4-0.2-0.6c0-0.1,0-0.1,0-0.2c0-0.2,0-0.3,0-0.5v3
							c0,0.1,0,0.1,0,0.2c0,0.2,0,0.4,0,0.6c0,0.1,0,0.1,0,0.2c0.1,0.6,0.5,1.1,1,1.6c0,0,0.1,0.1,0.1,0.1c0,0,0,0,0,0
							c0.4,0.3,1,0.6,1.7,0.9c0.1,0,0.1,0,0.2,0.1c0.7,0.1,1.5,0.2,2.4,0.2c1.7-0.1,3.3-0.5,4.6-1.3c0.4-0.2,0.7-0.4,1-0.7
							c0.2-0.2,0.4-0.4,0.5-0.5C14-9.9,14-10.1,14-10.2V-13.4z"/>
						<path id="Shape_76_" class="st30" d="M13.4-14.5c-0.1-0.1-0.1-0.1-0.2-0.2l0,0c0,0,0,0,0-0.1c-0.3-0.1-0.6-0.2-0.9-0.3
							c-0.7-0.2-1.5-0.2-2.4-0.2c-1.6,0.1-3,0.5-4.2,1.1c0,0-0.1,0-0.1,0.1c-0.6,0.3-1,0.7-1.3,1.1c0,0,0,0,0,0
							c0.3-0.1-0.8,0.4-0.7,1.2c0.1,0.4,1.1,0.6,1.1,0.6C4.8-11,5-10.9,5.2-10.8c0.1,0,0.1,0,0.2,0.1c0.7,0.1,1.5,0.2,2.3,0.2
							c1.7-0.1,3.3-0.5,4.6-1.3c0.1-0.1,0.2-0.2,0.4-0.2c0.2-0.1,0.4-0.3,0.6-0.4c0.2-0.2,0.4-0.4,0.5-0.5c0.1-0.1,0.2-0.3,0.2-0.4
							c0,0,0-0.1,0-0.1c0,0,0,0,0-0.1c0-0.1-0.1-0.2-0.2-0.3c-0.1-0.1-0.2-0.2-0.3-0.4C13.5-14.4,13.5-14.4,13.4-14.5L13.4-14.5z
							 M12.8-16.8c-0.2-0.1-0.4-0.3-0.6-0.4c-0.1-0.1-0.2-0.1-0.4-0.2C11-17.8,10.1-18,9-18.1c-0.1,0-0.1,0-0.2,0
							c-0.2,0-0.5,0-0.7,0c-0.7,0-1.4,0.1-2.1,0.3c-0.8,0.2-1.5,0.5-2.2,0.9l0,0c-0.3,0.2-0.5,0.3-0.7,0.5c-0.1,0.2-0.2,0.3-0.4,0.5
							c-0.2,0.5-0.3,1.1-0.3,1.6c0,0.1,0,0.2,0,0.3c0,0.2,0,0.3,0,0.5c0,0.1,0,0.1,0,0.2c0.1-0.2,0.1-0.4,0.2-0.5
							c0.2-0.4,0.5-0.7,0.9-1c0.2-0.2,0.5-0.4,0.8-0.6c0.3-0.2,0.5-0.3,0.8-0.4c0.1,0,0.1-0.1,0.2-0.1c0.9-0.4,1.9-0.6,2.9-0.7
							c0.1,0,0.3,0,0.4,0c0.9,0,1.7,0,2.4,0.2c0.4,0.1,0.8,0.2,1.2,0.4c0.1,0,0.2,0.1,0.2,0.1c0,0,0-0.1,0-0.1c0,0,0-0.1,0-0.1
							c0-0.2,0.1-0.3,0.1-0.5C12.8-16.7,12.8-16.8,12.8-16.8L12.8-16.8z M13.6-19.6c-0.2-0.1-0.4-0.3-0.6-0.4
							c-1.1-0.6-2.4-0.9-4.1-0.8c-0.4,0-0.9,0.1-1.3,0.1c0,0,0,0-0.1,0c-0.2,0.1-0.5,0.3-0.7,0.4c-0.6,0.4-1.2,0.8-1.7,1.2
							c-0.3,0.3-0.6,0.5-0.9,0.7c0.3-0.2,0.6-0.3,0.9-0.4C6-19,6.6-19.1,7.3-19.3c0.4-0.1,0.8-0.1,1.2-0.1c1.1-0.1,2.1,0.1,3,0.3
							c0.4,0.1,0.7,0.3,1.1,0.5c0.4,0.2,0.7,0.5,0.9,0.7c0.2-0.3,0.5-0.5,0.9-0.7C14.3-18.9,14-19.3,13.6-19.6L13.6-19.6z M14.9-23
							c-0.1,0-0.3,0-0.4,0c-0.8,0.1-1.5,0.3-2.2,0.4c-0.3,0.1-0.7,0.2-1,0.3c0.3,0,0.6,0.1,0.9,0.1c0.6,0.1,1.2,0.4,1.7,0.6
							c0.8,0.5,1.2,1,1.4,1.6c0,0.2,0.1,0.3,0,0.5c0,0.1,0,0.2,0,0.2c0,0,0,0,0,0c0.2-0.1,0.3-0.2,0.5-0.2c0.4-0.2,0.9-0.4,1.4-0.5
							c0,0,0,0,0-0.1c0-0.1,0-0.1,0-0.2c0-0.1,0-0.2,0-0.3c0.1-1-0.3-1.8-1.4-2.4C15.5-22.7,15.2-22.9,14.9-23L14.9-23z M22.8-19.6
							c0.1,0,0.3,0.1,0.4,0.1c0.3,0.1,0.5,0.1,0.9,0.1c0.5,0,1-0.1,1.4-0.4c0.4-0.2,0.6-0.5,0.7-0.8c0,0,0,0,0-0.1v0
							c0-0.1,0-0.1,0-0.2c-0.1-0.2-0.2-0.3-0.4-0.4l0,0c0,0,0,0,0,0c0,0,0,0,0,0l0,0c0,0,0,0,0,0c-0.1-0.1-0.2-0.1-0.3-0.2
							c-0.1-0.1-0.7-0.3-0.8-0.3c-0.5-0.2-0.7,0-1,0.3c-0.3,0.3-0.6,0.6-1.1,0.9c-0.5,0.3-0.9,0.5-1.5,0.6c0.4,0,0.8,0.1,1.1,0.2
							c0.2,0,0.4,0.1,0.6,0.2C22.7-19.7,22.7-19.7,22.8-19.6L22.8-19.6z M21.8-22.3c0-0.2,0-0.4,0-0.5c-0.7-0.1-1.3-0.2-2-0.3
							c-0.4,0-0.9-0.1-1.4-0.1c-0.1,0-0.2,0-0.4,0c0.1,0.1,0.1,0.1,0.2,0.2c0.5,0.5,0.8,1.1,0.7,1.8c0,0.3-0.1,0.6-0.3,0.9
							c-0.1,0.1-0.1,0.2-0.2,0.3c0.3,0,0.5,0,0.8-0.1c0.1,0,0.1,0,0.2,0c0.1,0,0.3,0,0.5,0c0.1,0,0.1-0.1,0.2-0.1c0,0,0.1,0,0.1-0.1
							C21.1-20.8,21.7-21.5,21.8-22.3z"/>
						<path id="Shape_75_" class="st31" d="M12.6-16c-0.1,0-0.1-0.1-0.2-0.1c-0.4-0.2-0.7-0.3-1.2-0.4c-0.7-0.2-1.5-0.2-2.4-0.2
							c-0.1,0-0.3,0-0.4,0c-1.1,0.1-2,0.3-2.9,0.7c-0.1,0-0.1,0.1-0.2,0.1c-0.3,0.1-0.5,0.3-0.8,0.4c-0.3,0.2-0.6,0.4-0.8,0.6
							c-0.4,0.3-0.7,0.7-0.9,1c-0.1,0.2-0.2,0.3-0.2,0.5c0.1,0.2,0.1,0.4,0.2,0.6c0.2,0.3,0.4,0.6,0.7,0.9c0,0,0.1,0.1,0.1,0.1
							c0.1-0.4,0.4-0.8,0.7-1.2c0.3-0.4,0.8-0.7,1.3-1.1c0,0,0.1,0,0.1-0.1c1.2-0.7,2.6-1.1,4.2-1.1c0.9,0,1.7,0,2.4,0.2
							c0.3,0.1,0.6,0.2,0.9,0.3c-0.2-0.2-0.3-0.4-0.4-0.5C12.7-15.5,12.6-15.8,12.6-16L12.6-16z M12.2-17.2c0.2,0.1,0.4,0.3,0.6,0.4
							c0.1-0.1,0.1-0.2,0.2-0.3c0.1-0.1,0.1-0.2,0.2-0.3c0.1-0.1,0.2-0.2,0.3-0.3c-0.2-0.3-0.5-0.5-0.9-0.7
							c-0.3-0.2-0.7-0.4-1.1-0.5c-0.9-0.3-1.9-0.4-3-0.3c-0.4,0-0.8,0.1-1.2,0.1C6.6-19.1,6-19,5.4-18.7c-0.3,0.1-0.5,0.2-0.8,0.4
							c-0.1,0.1-0.2,0.1-0.3,0.2c-0.3,0.3-0.6,0.6-0.8,0.9c-0.1,0.1-0.1,0.2-0.2,0.3c-0.2,0.3-0.4,0.6-0.5,0.9
							c0.3-0.2,0.6-0.5,1-0.7l0,0c0.7-0.4,1.4-0.7,2.2-0.9C6.7-17.9,7.4-18,8.1-18c0.2,0,0.5,0,0.7,0c0.1,0,0.1,0,0.2,0
							c1.1,0,2.1,0.2,2.9,0.6C12-17.4,12.1-17.3,12.2-17.2L12.2-17.2z M18.2-23c-0.1-0.1-0.1-0.1-0.2-0.2c-0.4,0-0.8,0-1.2,0
							c-0.7,0-1.3,0.1-2,0.2c0.3,0.1,0.6,0.3,0.9,0.4c1.1,0.6,1.6,1.4,1.4,2.4c0,0.1,0,0.2,0,0.3c0,0.1,0,0.1,0,0.2c0,0,0,0,0,0.1
							c0.1,0,0.1,0,0.2,0c0.3-0.1,0.6-0.1,0.9-0.2c0.1,0,0.2,0,0.2,0c0.1-0.1,0.1-0.2,0.2-0.3c0.2-0.3,0.2-0.6,0.3-0.9
							C19-21.9,18.8-22.5,18.2-23L18.2-23z M13.1-19.9c0.2,0.1,0.4,0.3,0.6,0.4c0.4,0.3,0.6,0.6,0.8,1c0.1-0.1,0.2-0.2,0.4-0.2
							c0.1-0.1,0.3-0.2,0.4-0.2c0,0,0,0,0,0c0-0.1,0-0.2,0-0.2c0-0.2,0-0.4,0-0.5c-0.2-0.6-0.6-1.2-1.4-1.6
							c-0.5-0.3-1.1-0.5-1.7-0.6c-0.3-0.1-0.6-0.1-0.9-0.1c-1.3,0.4-2.4,0.9-3.6,1.6c0.4-0.1,0.8-0.1,1.3-0.1
							C10.6-20.8,12-20.6,13.1-19.9L13.1-19.9z M21.8-22.8c0,0.2,0,0.3,0,0.5c-0.1,0.8-0.6,1.5-1.7,2.1c0,0-0.1,0-0.1,0.1
							c-0.1,0-0.1,0.1-0.2,0.1c0.1,0,0.2,0,0.3,0c0.2,0,0.5,0,0.7,0c0.5-0.2,1-0.4,1.5-0.6c0,0,0,0,0,0c1.1-0.5,2.7-1.2,2-1.2
							C24.2-21.9,21.9-22.8,21.8-22.8z"/>
						<path id="Shape_74_" class="st32" d="M20.9-20c-0.2,0-0.4,0-0.7,0c-0.1,0-0.2,0-0.3,0c-0.2,0-0.3,0-0.5,0c-0.1,0-0.1,0-0.2,0
							c-0.3,0-0.5,0-0.8,0.1c-0.1,0-0.2,0-0.2,0c-0.3,0.1-0.6,0.1-0.9,0.2c-0.1,0-0.1,0-0.2,0c-0.5,0.1-1,0.3-1.4,0.5
							c-0.2,0.1-0.3,0.1-0.5,0.2c-0.1,0.1-0.3,0.2-0.4,0.2c-0.1,0.1-0.3,0.2-0.4,0.2c-0.3,0.2-0.6,0.5-0.9,0.7
							c-0.1,0.1-0.2,0.2-0.3,0.3c-0.1,0.1-0.2,0.2-0.2,0.3c-0.1,0.1-0.1,0.2-0.2,0.3c0,0,0,0.1,0,0.1c-0.1,0.2-0.1,0.3-0.1,0.5
							c0,0,0,0.1,0,0.1c0,0,0,0.1,0,0.1c0,0.2,0.1,0.5,0.2,0.7c0.1,0.2,0.2,0.3,0.4,0.5c0,0,0,0,0,0.1l0,0c0.1,0.1,0.1,0.1,0.2,0.2
							c0,0,0-0.1,0.1-0.1c0.2-0.2,0.5-0.5,0.9-0.7c0.1-0.1,0.2-0.2,0.4-0.2c0.1-0.1,0.3-0.2,0.4-0.2c0.2-0.1,0.3-0.2,0.5-0.2
							c0.4-0.2,0.9-0.4,1.4-0.5c0.1,0,0.1,0,0.2,0c0.4-0.1,0.8-0.2,1.2-0.2c0.3,0,0.5-0.1,0.8-0.1c0.1,0,0.1,0,0.2,0
							c0.1,0,0.3,0,0.5,0c0.1,0,0.2,0,0.3,0c0.2,0,0.5,0,0.7,0c0.4,0,0.8,0.1,1.1,0.2c0.2,0,0.4,0.1,0.6,0.2c0,0,0.1,0,0.1,0.1
							c0.1,0,0.3,0.1,0.4,0.2c0.3,0.1,0.5,0.1,0.9,0.1c0.5,0,1-0.2,1.4-0.4c0.4-0.2,0.6-0.4,0.6-0.7l0-0.2c0,0,0,0,0-0.1v-3.2
							c0,0,0,0,0,0.1c0,0.3-0.2,0.6-0.7,0.8c-0.4,0.2-0.9,0.4-1.4,0.4c-0.3,0-0.6,0-0.9-0.1c-0.1-0.1-0.3-0.1-0.4-0.1
							c0,0-0.1,0-0.1-0.1c-0.2-0.1-0.4-0.1-0.6-0.2C21.6-20,21.3-20,20.9-20z"/>
					</g>
				</g>
			</g>
		</g>
		<g id="prawn_1_" transform="translate(136.000000, 49.000000)">
			
				<g id="Group_5_" transform="translate(12.604167, 8.464583) scale(-1, 1) translate(-12.604167, -8.464583) translate(0.451389, 0.318750)">
				<g id="people_0_Layer10_0_FILL_3_">
					<g>
						<path id="Shape_81_" class="st29" d="M18.7,10.6c0,0.1-0.1,0.3-0.2,0.4c-0.1,0.1-0.3,0.3-0.5,0.5c-0.2,0.1-0.4,0.3-0.6,0.4
							c-0.1,0.1-0.2,0.2-0.4,0.2c-1.3,0.8-2.9,1.2-4.6,1.3c-0.9,0-1.6,0-2.3-0.2c-0.1,0-0.1,0-0.2-0.1c-0.7-0.2-1.2-0.5-1.7-0.9
							c0,0,0,0,0,0c0,0-0.1-0.1-0.1-0.1c-0.3-0.3-0.6-0.6-0.7-0.9c-0.1-0.2-0.2-0.4-0.2-0.6c0-0.1,0-0.1,0-0.2c0-0.2,0-0.3,0-0.5v3
							c0,0.1,0,0.1,0,0.2c0,0.2,0,0.4,0,0.6c0,0.1,0,0.1,0,0.2c0.1,0.6,0.5,1.1,1,1.6c0,0,0.1,0.1,0.1,0.1c0,0,0,0,0,0
							c0.4,0.3,1,0.6,1.7,0.9c0.1,0,0.1,0,0.2,0.1c0.7,0.1,1.5,0.2,2.4,0.2c1.7-0.1,3.3-0.5,4.6-1.3c0.4-0.2,0.7-0.4,1-0.7
							c0.2-0.2,0.4-0.4,0.5-0.5c0.1-0.1,0.2-0.3,0.2-0.4V10.6z"/>
						<path id="Shape_80_" class="st30" d="M18.1,9.6C18.1,9.6,18,9.5,18,9.4l0,0c0,0,0,0,0-0.1c-0.3-0.1-0.6-0.2-0.9-0.3
							c-0.7-0.2-1.5-0.2-2.4-0.2c-1.6,0.1-3,0.5-4.2,1.1c0,0-0.1,0-0.1,0.1c-0.6,0.3-1,0.7-1.3,1.1c0,0,0,0,0,0
							c0.3-0.1-0.8,0.4-0.7,1.2C8.3,12.8,9.4,13,9.3,13c0.2,0.1,0.4,0.2,0.6,0.2c0.1,0,0.1,0,0.2,0.1c0.7,0.1,1.5,0.2,2.3,0.2
							c1.7-0.1,3.3-0.5,4.6-1.3c0.1-0.1,0.2-0.2,0.4-0.2c0.2-0.1,0.4-0.3,0.6-0.4c0.2-0.2,0.4-0.4,0.5-0.5c0.1-0.1,0.2-0.3,0.2-0.4
							c0,0,0-0.1,0-0.1c0,0,0,0,0-0.1c0-0.1-0.1-0.2-0.2-0.3c-0.1-0.1-0.2-0.2-0.3-0.4C18.2,9.7,18.1,9.7,18.1,9.6L18.1,9.6z
							 M17.5,7.3c-0.2-0.1-0.4-0.3-0.6-0.4c-0.1-0.1-0.2-0.1-0.4-0.2c-0.8-0.4-1.8-0.6-2.9-0.6c-0.1,0-0.1,0-0.2,0
							c-0.2,0-0.5,0-0.7,0c-0.7,0-1.4,0.1-2.1,0.3C9.9,6.5,9.2,6.8,8.5,7.2l0,0C8.2,7.4,7.9,7.6,7.7,7.7C7.6,7.9,7.5,8.1,7.4,8.2
							C7.2,8.8,7.1,9.3,7.1,9.9c0,0.1,0,0.2,0,0.3c0,0.2,0,0.3,0,0.5c0,0.1,0,0.1,0,0.2c0.1-0.2,0.1-0.4,0.2-0.5
							c0.2-0.4,0.5-0.7,0.9-1C8.6,9,8.8,8.8,9.1,8.7c0.3-0.2,0.5-0.3,0.8-0.4c0.1,0,0.1-0.1,0.2-0.1C11,7.8,12,7.6,13.1,7.5
							c0.1,0,0.3,0,0.4,0c0.9,0,1.7,0,2.4,0.2C16.3,7.7,16.7,7.8,17,8c0.1,0,0.2,0.1,0.2,0.1c0,0,0-0.1,0-0.1c0,0,0-0.1,0-0.1
							c0-0.2,0.1-0.3,0.1-0.5C17.4,7.3,17.5,7.3,17.5,7.3L17.5,7.3z M18.3,4.5c-0.2-0.1-0.4-0.3-0.6-0.4c-1.1-0.6-2.4-0.9-4.1-0.8
							c-0.4,0-0.9,0.1-1.3,0.1c0,0,0,0-0.1,0c-0.2,0.1-0.5,0.3-0.7,0.4C11,4.3,10.5,4.7,10,5C9.6,5.3,9.4,5.5,9.1,5.8
							C9.4,5.6,9.7,5.5,10,5.4c0.6-0.2,1.3-0.4,1.9-0.5c0.4-0.1,0.8-0.1,1.2-0.1c1.1-0.1,2.1,0.1,3,0.3c0.4,0.1,0.7,0.3,1.1,0.5
							C17.6,5.8,18,6,18.2,6.3c0.2-0.3,0.5-0.5,0.9-0.7C18.9,5.2,18.7,4.8,18.3,4.5L18.3,4.5z M19.5,1.1c-0.1,0-0.3,0-0.4,0
							c-0.8,0.1-1.5,0.3-2.2,0.4c-0.3,0.1-0.7,0.2-1,0.3c0.3,0,0.6,0.1,0.9,0.1c0.6,0.1,1.2,0.4,1.7,0.6c0.8,0.5,1.2,1,1.4,1.6
							c0,0.2,0.1,0.3,0,0.5c0,0.1,0,0.2,0,0.2c0,0,0,0,0,0C20,5,20.2,4.9,20.4,4.8c0.4-0.2,0.9-0.4,1.4-0.5c0,0,0,0,0-0.1
							c0-0.1,0-0.1,0-0.2c0-0.1,0-0.2,0-0.3c0.1-1-0.3-1.8-1.4-2.4C20.2,1.3,19.9,1.2,19.5,1.1L19.5,1.1z M27.4,4.4
							c0.1,0,0.3,0.1,0.4,0.1c0.3,0.1,0.5,0.1,0.9,0.1c0.5,0,1-0.1,1.4-0.4c0.4-0.2,0.6-0.5,0.7-0.8c0,0,0,0,0-0.1v0
							c0-0.1,0-0.1,0-0.2c-0.1-0.2-0.2-0.3-0.4-0.4l0,0c0,0,0,0,0,0c0,0,0,0,0,0l0,0c0,0,0,0,0,0c-0.1-0.1-0.2-0.1-0.3-0.2
							c-0.1-0.1-0.7-0.3-0.8-0.3c-0.5-0.2-0.7,0-1,0.3c-0.3,0.3-0.6,0.6-1.1,0.9c-0.5,0.3-0.9,0.5-1.5,0.6c0.4,0,0.8,0.1,1.1,0.2
							c0.2,0,0.4,0.1,0.6,0.2C27.3,4.4,27.4,4.4,27.4,4.4L27.4,4.4z M26.5,1.8c0-0.2,0-0.4,0-0.5c-0.7-0.1-1.3-0.2-2-0.3
							c-0.4,0-0.9-0.1-1.4-0.1c-0.1,0-0.2,0-0.4,0C22.8,0.9,22.8,1,22.9,1c0.5,0.5,0.8,1.1,0.7,1.8c0,0.3-0.1,0.6-0.3,0.9
							c-0.1,0.1-0.1,0.2-0.2,0.3c0.3,0,0.5,0,0.8-0.1c0.1,0,0.1,0,0.2,0c0.1,0,0.3,0,0.5,0c0.1,0,0.1-0.1,0.2-0.1c0,0,0.1,0,0.1-0.1
							C25.8,3.3,26.4,2.6,26.5,1.8z"/>
						<path id="Shape_79_" class="st31" d="M17.3,8.1C17.2,8.1,17.1,8,17,8c-0.4-0.2-0.7-0.3-1.2-0.4c-0.7-0.2-1.5-0.2-2.4-0.2
							c-0.1,0-0.3,0-0.4,0c-1.1,0.1-2,0.3-2.9,0.7c-0.1,0-0.1,0.1-0.2,0.1C9.7,8.4,9.4,8.5,9.1,8.7C8.8,8.8,8.6,9,8.3,9.2
							c-0.4,0.3-0.7,0.7-0.9,1c-0.1,0.2-0.2,0.3-0.2,0.5c0.1,0.2,0.1,0.4,0.2,0.6c0.2,0.3,0.4,0.6,0.7,0.9c0,0,0.1,0.1,0.1,0.1
							c0.1-0.4,0.4-0.8,0.7-1.2c0.3-0.4,0.8-0.7,1.3-1.1c0,0,0.1,0,0.1-0.1C11.6,9.4,13,9,14.6,8.9c0.9,0,1.7,0,2.4,0.2
							c0.3,0.1,0.6,0.2,0.9,0.3c-0.2-0.2-0.3-0.4-0.4-0.5C17.3,8.6,17.3,8.3,17.3,8.1L17.3,8.1z M16.9,6.8c0.2,0.1,0.4,0.3,0.6,0.4
							c0.1-0.1,0.1-0.2,0.2-0.3c0.1-0.1,0.1-0.2,0.2-0.3c0.1-0.1,0.2-0.2,0.3-0.3C18,6,17.6,5.8,17.3,5.5c-0.3-0.2-0.7-0.4-1.1-0.5
							c-0.9-0.3-1.9-0.4-3-0.3c-0.4,0-0.8,0.1-1.2,0.1c-0.7,0.1-1.3,0.3-1.9,0.5C9.8,5.5,9.5,5.6,9.2,5.7C9.1,5.8,9,5.8,9,5.9
							C8.7,6.2,8.4,6.5,8.2,6.8C8.1,6.9,8,7,8,7.1C7.8,7.3,7.6,7.6,7.5,7.9c0.3-0.2,0.6-0.5,1-0.7l0,0c0.7-0.4,1.4-0.7,2.2-0.9
							C11.4,6.2,12,6.1,12.8,6c0.2,0,0.5,0,0.7,0c0.1,0,0.1,0,0.2,0c1.1,0,2.1,0.2,2.9,0.6C16.7,6.7,16.8,6.8,16.9,6.8L16.9,6.8z
							 M22.9,1c-0.1-0.1-0.1-0.1-0.2-0.2c-0.4,0-0.8,0-1.2,0c-0.7,0-1.3,0.1-2,0.2c0.3,0.1,0.6,0.3,0.9,0.4c1.1,0.6,1.5,1.4,1.4,2.4
							c0,0.1,0,0.2,0,0.3c0,0.1,0,0.1,0,0.2c0,0,0,0,0,0.1c0.1,0,0.1,0,0.2,0c0.3-0.1,0.6-0.1,0.9-0.2c0.1,0,0.2,0,0.2,0
							c0.1-0.1,0.1-0.2,0.2-0.3c0.2-0.3,0.2-0.6,0.3-0.9C23.7,2.2,23.4,1.6,22.9,1L22.9,1z M17.8,4.1c0.2,0.1,0.4,0.3,0.6,0.4
							c0.4,0.3,0.6,0.6,0.8,1c0.1-0.1,0.2-0.2,0.4-0.2c0.1-0.1,0.3-0.2,0.4-0.2c0,0,0,0,0,0c0-0.1,0-0.2,0-0.2c0-0.2,0-0.4,0-0.5
							c-0.2-0.6-0.6-1.2-1.4-1.6C18,2.4,17.4,2.2,16.8,2c-0.3-0.1-0.6-0.1-0.9-0.1c-1.3,0.4-2.4,0.9-3.6,1.6
							c0.4-0.1,0.8-0.1,1.3-0.1C15.3,3.2,16.7,3.5,17.8,4.1L17.8,4.1z M26.5,1.3c0,0.2,0,0.3,0,0.5c-0.1,0.8-0.6,1.5-1.7,2.1
							c0,0-0.1,0-0.1,0.1c-0.1,0-0.1,0.1-0.2,0.1c0.1,0,0.2,0,0.3,0c0.2,0,0.5,0,0.7,0c0.5-0.2,1-0.4,1.5-0.6c0,0,0,0,0,0
							c1.1-0.5,2.7-1.2,2-1.2C28.9,2.2,26.5,1.3,26.5,1.3z"/>
						<path id="Shape_78_" class="st32" d="M25.5,4c-0.2,0-0.4,0-0.7,0c-0.1,0-0.2,0-0.3,0c-0.2,0-0.3,0-0.5,0c-0.1,0-0.1,0-0.2,0
							c-0.3,0-0.5,0-0.8,0.1c-0.1,0-0.2,0-0.2,0c-0.3,0.1-0.6,0.1-0.9,0.2c-0.1,0-0.1,0-0.2,0c-0.5,0.1-0.9,0.3-1.4,0.5
							C20.2,4.9,20,5,19.9,5.1c-0.1,0.1-0.3,0.2-0.4,0.2c-0.1,0.1-0.3,0.2-0.4,0.2c-0.3,0.2-0.6,0.5-0.9,0.7
							c-0.1,0.1-0.2,0.2-0.3,0.3c-0.1,0.1-0.2,0.2-0.2,0.3c-0.1,0.1-0.1,0.2-0.2,0.3c0,0,0,0.1,0,0.1c-0.1,0.2-0.1,0.3-0.1,0.5
							c0,0,0,0.1,0,0.1c0,0,0,0.1,0,0.1c0,0.2,0.1,0.5,0.2,0.7c0.1,0.2,0.2,0.3,0.4,0.5c0,0,0,0,0,0.1l0,0c0.1,0.1,0.1,0.1,0.2,0.2
							c0,0,0-0.1,0.1-0.1c0.2-0.2,0.5-0.5,0.9-0.7c0.1-0.1,0.2-0.2,0.4-0.2c0.1-0.1,0.3-0.2,0.4-0.2c0.2-0.1,0.3-0.2,0.5-0.2
							c0.4-0.2,0.9-0.4,1.4-0.5c0.1,0,0.1,0,0.2,0c0.4-0.1,0.8-0.2,1.2-0.2c0.3,0,0.5-0.1,0.8-0.1c0.1,0,0.1,0,0.2,0
							c0.1,0,0.3,0,0.5,0c0.1,0,0.2,0,0.3,0c0.2,0,0.5,0,0.7,0c0.4,0,0.8,0.1,1.1,0.2c0.2,0,0.4,0.1,0.6,0.2c0,0,0.1,0,0.1,0.1
							c0.1,0,0.3,0.1,0.4,0.2c0.3,0.1,0.5,0.1,0.9,0.1c0.5,0,1-0.2,1.4-0.4c0.4-0.2,0.6-0.4,0.6-0.7l0-0.2c0,0,0,0,0-0.1V3.4
							c0,0,0,0,0,0.1c0,0.3-0.2,0.6-0.7,0.8c-0.4,0.2-0.9,0.4-1.4,0.4c-0.3,0-0.6,0-0.9-0.1c-0.1-0.1-0.3-0.1-0.4-0.1
							c0,0-0.1,0-0.1-0.1c-0.2-0.1-0.4-0.1-0.6-0.2C26.3,4.1,25.9,4.1,25.5,4z"/>
					</g>
				</g>
			</g>
		</g>
		<g id="prawn-copy" transform="translate(100.000000, 45.000000)">
			
				<g id="Group_3_" transform="translate(12.604167, 8.464583) scale(-1, 1) translate(-12.604167, -8.464583) translate(0.451389, 0.318750)">
				<g id="people_0_Layer10_0_FILL_1_">
					<g>
						<path id="Shape_73_" class="st29" d="M25.8,14.1c0,0.1-0.1,0.3-0.2,0.4c-0.1,0.1-0.3,0.3-0.5,0.5c-0.2,0.1-0.4,0.3-0.6,0.4
							c-0.1,0.1-0.2,0.2-0.4,0.2c-1.3,0.8-2.9,1.2-4.6,1.3c-0.9,0-1.6,0-2.3-0.2c-0.1,0-0.1,0-0.2-0.1c-0.7-0.2-1.2-0.5-1.7-0.9
							c0,0,0,0,0,0c0,0-0.1-0.1-0.1-0.1c-0.3-0.3-0.6-0.6-0.7-0.9c-0.1-0.2-0.2-0.4-0.2-0.6c0-0.1,0-0.1,0-0.2c0-0.2,0-0.3,0-0.5v3
							c0,0.1,0,0.1,0,0.2c0,0.2,0,0.4,0,0.6c0,0.1,0,0.1,0,0.2c0.1,0.6,0.5,1.1,1,1.6c0,0,0.1,0.1,0.1,0.1c0,0,0,0,0,0
							c0.4,0.3,1,0.6,1.7,0.9c0.1,0,0.1,0,0.2,0.1c0.7,0.1,1.5,0.2,2.4,0.2c1.7-0.1,3.3-0.5,4.6-1.3c0.4-0.2,0.7-0.4,1-0.7
							c0.2-0.2,0.4-0.4,0.5-0.5c0.1-0.1,0.2-0.3,0.2-0.4V14.1z"/>
						<path id="Shape_72_" class="st30" d="M25.2,13c-0.1-0.1-0.1-0.1-0.2-0.2l0,0c0,0,0,0,0-0.1c-0.3-0.1-0.6-0.2-0.9-0.3
							c-0.7-0.2-1.5-0.2-2.4-0.2c-1.6,0.1-3,0.5-4.2,1.1c0,0-0.1,0-0.1,0.1c-0.6,0.3-1,0.7-1.3,1.1c0,0,0,0,0,0
							c0.3-0.1-0.8,0.4-0.7,1.2c0.1,0.4,1.1,0.6,1.1,0.6c0.2,0.1,0.4,0.2,0.6,0.2c0.1,0,0.1,0,0.2,0.1c0.7,0.1,1.5,0.2,2.3,0.2
							c1.7-0.1,3.3-0.5,4.6-1.3c0.1-0.1,0.2-0.2,0.4-0.2c0.2-0.1,0.4-0.3,0.6-0.4c0.2-0.2,0.4-0.4,0.5-0.5c0.1-0.1,0.2-0.3,0.2-0.4
							c0,0,0-0.1,0-0.1c0,0,0,0,0-0.1c0-0.1-0.1-0.2-0.2-0.3c-0.1-0.1-0.2-0.2-0.3-0.4C25.3,13.1,25.2,13.1,25.2,13L25.2,13z
							 M24.6,10.7c-0.2-0.1-0.4-0.3-0.6-0.4c-0.1-0.1-0.2-0.1-0.4-0.2c-0.8-0.4-1.8-0.6-2.9-0.6c-0.1,0-0.1,0-0.2,0
							c-0.2,0-0.5,0-0.7,0c-0.7,0-1.4,0.1-2.1,0.3c-0.8,0.2-1.5,0.5-2.2,0.9l0,0c-0.3,0.2-0.5,0.3-0.7,0.5c-0.1,0.2-0.2,0.3-0.4,0.5
							c-0.2,0.5-0.3,1.1-0.3,1.6c0,0.1,0,0.2,0,0.3c0,0.2,0,0.3,0,0.5c0,0.1,0,0.1,0,0.2c0.1-0.2,0.1-0.4,0.2-0.5
							c0.2-0.4,0.5-0.7,0.9-1c0.2-0.2,0.5-0.4,0.8-0.6c0.3-0.2,0.5-0.3,0.8-0.4c0.1,0,0.1-0.1,0.2-0.1c0.9-0.4,1.9-0.6,2.9-0.7
							c0.1,0,0.3,0,0.4,0c0.9,0,1.7,0,2.4,0.2c0.4,0.1,0.8,0.2,1.2,0.4c0.1,0,0.2,0.1,0.2,0.1c0,0,0-0.1,0-0.1c0,0,0-0.1,0-0.1
							c0-0.2,0.1-0.3,0.1-0.5C24.5,10.8,24.6,10.7,24.6,10.7L24.6,10.7z M25.4,7.9c-0.2-0.1-0.4-0.3-0.6-0.4
							c-1.1-0.6-2.4-0.9-4.1-0.8c-0.4,0-0.9,0.1-1.3,0.1c0,0,0,0-0.1,0c-0.2,0.1-0.5,0.3-0.7,0.4c-0.6,0.4-1.2,0.8-1.7,1.2
							c-0.3,0.3-0.6,0.5-0.9,0.7c0.3-0.2,0.6-0.3,0.9-0.4c0.6-0.2,1.3-0.4,1.9-0.5c0.4-0.1,0.8-0.1,1.2-0.1c1.1-0.1,2.1,0.1,3,0.3
							C23.7,8.6,24,8.8,24.4,9c0.4,0.2,0.7,0.5,0.9,0.7c0.2-0.3,0.5-0.5,0.9-0.7C26,8.6,25.8,8.2,25.4,7.9L25.4,7.9z M26.6,4.5
							c-0.1,0-0.3,0-0.4,0C25.5,4.7,24.7,4.8,24,5c-0.3,0.1-0.7,0.2-1,0.3c0.3,0,0.6,0.1,0.9,0.1c0.6,0.1,1.2,0.4,1.7,0.6
							c0.8,0.5,1.2,1,1.4,1.6c0,0.2,0.1,0.3,0,0.5c0,0.1,0,0.2,0,0.2c0,0,0,0,0,0c0.2-0.1,0.3-0.2,0.5-0.2c0.4-0.2,0.9-0.4,1.4-0.5
							c0,0,0,0,0-0.1c0-0.1,0-0.1,0-0.2c0-0.1,0-0.2,0-0.3c0.1-1-0.3-1.8-1.4-2.4C27.3,4.8,26.9,4.6,26.6,4.5L26.6,4.5z M34.5,7.9
							c0.1,0,0.3,0.1,0.4,0.1c0.3,0.1,0.5,0.1,0.9,0.1c0.5,0,1-0.1,1.4-0.4c0.4-0.2,0.6-0.5,0.7-0.8c0,0,0,0,0-0.1v0
							c0-0.1,0-0.1,0-0.2c-0.1-0.2-0.2-0.3-0.4-0.4l0,0c0,0,0,0,0,0c0,0,0,0,0,0l0,0c0,0,0,0,0,0C37.2,6,37.1,6,37,5.9
							c-0.1-0.1-0.7-0.3-0.8-0.3c-0.5-0.2-0.7,0-1,0.3c-0.3,0.3-0.6,0.6-1.1,0.9c-0.5,0.3-0.9,0.5-1.5,0.6c0.4,0,0.8,0.1,1.1,0.2
							c0.2,0,0.4,0.1,0.6,0.2C34.4,7.8,34.5,7.8,34.5,7.9L34.5,7.9z M33.6,5.2c0-0.2,0-0.4,0-0.5c-0.7-0.1-1.3-0.2-2-0.3
							c-0.4,0-0.9-0.1-1.4-0.1c-0.1,0-0.2,0-0.4,0c0.1,0.1,0.1,0.1,0.2,0.2c0.5,0.5,0.8,1.1,0.7,1.8c0,0.3-0.1,0.6-0.3,0.9
							c-0.1,0.1-0.1,0.2-0.2,0.3c0.3,0,0.5,0,0.8-0.1c0.1,0,0.1,0,0.2,0c0.1,0,0.3,0,0.5,0c0.1,0,0.1-0.1,0.2-0.1c0,0,0.1,0,0.1-0.1
							C32.9,6.7,33.5,6,33.6,5.2z"/>
						<path id="Shape_71_" class="st31" d="M24.4,11.5c-0.1,0-0.1-0.1-0.2-0.1c-0.4-0.2-0.7-0.3-1.2-0.4c-0.7-0.2-1.5-0.2-2.4-0.2
							c-0.1,0-0.3,0-0.4,0c-1.1,0.1-2,0.3-2.9,0.7c-0.1,0-0.1,0.1-0.2,0.1c-0.3,0.1-0.5,0.3-0.8,0.4c-0.3,0.2-0.6,0.4-0.8,0.6
							c-0.4,0.3-0.7,0.7-0.9,1c-0.1,0.2-0.2,0.3-0.2,0.5c0.1,0.2,0.1,0.4,0.2,0.6c0.2,0.3,0.4,0.6,0.7,0.9c0,0,0.1,0.1,0.1,0.1
							c0.1-0.4,0.4-0.8,0.7-1.2c0.3-0.4,0.8-0.7,1.3-1.1c0,0,0.1,0,0.1-0.1c1.2-0.7,2.6-1.1,4.2-1.1c0.9,0,1.7,0,2.4,0.2
							c0.3,0.1,0.6,0.2,0.9,0.3c-0.2-0.2-0.3-0.4-0.4-0.5C24.4,12,24.4,11.7,24.4,11.5L24.4,11.5z M24,10.3c0.2,0.1,0.4,0.3,0.6,0.4
							c0.1-0.1,0.1-0.2,0.2-0.3c0.1-0.1,0.1-0.2,0.2-0.3c0.1-0.1,0.2-0.2,0.3-0.3c-0.2-0.3-0.5-0.5-0.9-0.7
							c-0.3-0.2-0.7-0.4-1.1-0.5c-0.9-0.3-1.9-0.4-3-0.3c-0.4,0-0.8,0.1-1.2,0.1c-0.7,0.1-1.3,0.3-1.9,0.5c-0.3,0.1-0.5,0.2-0.8,0.4
							c-0.1,0.1-0.2,0.1-0.3,0.2c-0.3,0.3-0.6,0.6-0.8,0.9c-0.1,0.1-0.1,0.2-0.2,0.3c-0.2,0.3-0.4,0.6-0.5,0.9
							c0.3-0.2,0.6-0.5,1-0.7l0,0c0.7-0.4,1.4-0.7,2.2-0.9c0.7-0.2,1.3-0.3,2.1-0.3c0.2,0,0.5,0,0.7,0c0.1,0,0.1,0,0.2,0
							c1.1,0,2.1,0.2,2.9,0.6C23.7,10.1,23.9,10.2,24,10.3L24,10.3z M30,4.5c-0.1-0.1-0.1-0.1-0.2-0.2c-0.4,0-0.8,0-1.2,0
							c-0.7,0-1.3,0.1-2,0.2c0.3,0.1,0.6,0.3,0.9,0.4c1.1,0.6,1.5,1.4,1.4,2.4c0,0.1,0,0.2,0,0.3c0,0.1,0,0.1,0,0.2c0,0,0,0,0,0.1
							c0.1,0,0.1,0,0.2,0c0.3-0.1,0.6-0.1,0.9-0.2c0.1,0,0.2,0,0.2,0c0.1-0.1,0.1-0.2,0.2-0.3c0.2-0.3,0.2-0.6,0.3-0.9
							C30.8,5.6,30.5,5,30,4.5L30,4.5z M24.8,7.6c0.2,0.1,0.4,0.3,0.6,0.4c0.4,0.3,0.6,0.6,0.8,1c0.1-0.1,0.2-0.2,0.4-0.2
							c0.1-0.1,0.3-0.2,0.4-0.2c0,0,0,0,0,0c0-0.1,0-0.2,0-0.2c0-0.2,0-0.4,0-0.5c-0.2-0.6-0.6-1.2-1.4-1.6
							c-0.5-0.3-1.1-0.5-1.7-0.6c-0.3-0.1-0.6-0.1-0.9-0.1c-1.3,0.4-2.5,0.9-3.6,1.6c0.4-0.1,0.8-0.1,1.3-0.1
							C22.4,6.7,23.8,6.9,24.8,7.6L24.8,7.6z M33.6,4.7c0,0.2,0,0.3,0,0.5c-0.1,0.8-0.6,1.5-1.7,2.1c0,0-0.1,0-0.1,0.1
							c-0.1,0-0.1,0.1-0.2,0.1c0.1,0,0.2,0,0.3,0c0.2,0,0.5,0,0.7,0c0.5-0.2,1-0.4,1.5-0.6c0,0,0,0,0,0c1.1-0.5,2.7-1.2,2-1.2
							C36,5.6,33.6,4.7,33.6,4.7z"/>
						<path id="Shape_70_" class="st32" d="M32.6,7.5c-0.2,0-0.4,0-0.7,0c-0.1,0-0.2,0-0.3,0c-0.2,0-0.3,0-0.5,0c-0.1,0-0.1,0-0.2,0
							c-0.3,0-0.5,0-0.8,0.1c-0.1,0-0.2,0-0.2,0c-0.3,0.1-0.6,0.1-0.9,0.2c-0.1,0-0.1,0-0.2,0c-0.5,0.1-0.9,0.3-1.4,0.5
							c-0.2,0.1-0.3,0.1-0.5,0.2c-0.1,0.1-0.3,0.2-0.4,0.2c-0.1,0.1-0.3,0.2-0.4,0.2c-0.3,0.2-0.6,0.5-0.9,0.7
							C25.2,9.8,25.1,9.9,25,10c-0.1,0.1-0.2,0.2-0.2,0.3c-0.1,0.1-0.1,0.2-0.2,0.3c0,0,0,0.1,0,0.1c-0.1,0.2-0.1,0.3-0.1,0.5
							c0,0,0,0.1,0,0.1c0,0,0,0.1,0,0.1c0,0.2,0.1,0.5,0.2,0.7c0.1,0.2,0.2,0.3,0.4,0.5c0,0,0,0,0,0.1l0,0c0.1,0.1,0.1,0.1,0.2,0.2
							c0,0,0-0.1,0.1-0.1c0.2-0.2,0.5-0.5,0.9-0.7c0.1-0.1,0.2-0.2,0.4-0.2c0.1-0.1,0.3-0.2,0.4-0.2c0.2-0.1,0.3-0.2,0.5-0.2
							c0.4-0.2,0.9-0.4,1.4-0.5c0.1,0,0.1,0,0.2,0c0.4-0.1,0.8-0.2,1.2-0.2c0.3,0,0.5-0.1,0.8-0.1c0.1,0,0.1,0,0.2,0
							c0.1,0,0.3,0,0.5,0c0.1,0,0.2,0,0.3,0c0.2,0,0.5,0,0.7,0c0.4,0,0.8,0.1,1.1,0.2c0.2,0,0.4,0.1,0.6,0.2c0,0,0.1,0,0.1,0.1
							c0.1,0,0.3,0.1,0.4,0.2c0.3,0.1,0.5,0.1,0.9,0.1c0.5,0,1-0.2,1.4-0.4c0.4-0.2,0.6-0.4,0.6-0.7l0-0.2c0,0,0,0,0-0.1V6.8
							c0,0,0,0,0,0.1c0,0.3-0.2,0.6-0.7,0.8c-0.4,0.2-0.9,0.4-1.4,0.4c-0.3,0-0.6,0-0.9-0.1c-0.1-0.1-0.3-0.1-0.4-0.1
							c0,0-0.1,0-0.1-0.1c-0.2-0.1-0.4-0.1-0.6-0.2C33.4,7.6,33,7.5,32.6,7.5z"/>
					</g>
				</g>
			</g>
		</g>
		<g id="prawn-copy-2" transform="translate(113.000000, 81.000000)">
			
				<g id="Group_2_" transform="translate(12.604167, 8.464583) scale(-1, 1) translate(-12.604167, -8.464583) translate(0.451389, 0.318750)">
				<g id="people_0_Layer10_0_FILL_2_">
					<g>
						<path id="Shape_69_" class="st29" d="M-13.4,5c0,0.1-0.1,0.3-0.2,0.4c-0.1,0.1-0.3,0.3-0.5,0.5c-0.2,0.1-0.4,0.3-0.6,0.4
							c-0.1,0.1-0.2,0.2-0.4,0.2c-1.3,0.8-2.9,1.2-4.6,1.3c-0.9,0-1.6,0-2.3-0.2c-0.1,0-0.1,0-0.2-0.1c-0.7-0.2-1.2-0.5-1.7-0.9
							c0,0,0,0,0,0c0,0-0.1-0.1-0.1-0.1c-0.3-0.3-0.6-0.6-0.7-0.9c-0.1-0.2-0.2-0.4-0.2-0.6c0-0.1,0-0.1,0-0.2c0-0.2,0-0.3,0-0.5v3
							c0,0.1,0,0.1,0,0.2c0,0.2,0,0.4,0,0.6c0,0.1,0,0.1,0,0.2c0.1,0.6,0.5,1.1,1,1.6c0,0,0.1,0.1,0.1,0.1c0,0,0,0,0,0
							c0.4,0.3,1,0.6,1.7,0.9c0.1,0,0.1,0,0.2,0.1c0.7,0.1,1.5,0.2,2.4,0.2c1.7-0.1,3.3-0.5,4.6-1.3c0.4-0.2,0.7-0.4,1-0.7
							c0.2-0.2,0.4-0.4,0.5-0.5c0.1-0.1,0.2-0.3,0.2-0.4V5z"/>
						<path id="Shape_68_" class="st30" d="M-14,4c-0.1-0.1-0.1-0.1-0.2-0.2l0,0c0,0,0,0,0-0.1c-0.3-0.1-0.6-0.2-0.9-0.3
							c-0.7-0.2-1.5-0.2-2.4-0.2c-1.6,0.1-3,0.5-4.2,1.1c0,0-0.1,0-0.1,0.1c-0.6,0.3-1,0.7-1.3,1.1c0,0,0,0,0,0
							C-23,5.4-24,6-23.9,6.7c0.1,0.4,1.1,0.6,1.1,0.6c0.2,0.1,0.4,0.2,0.6,0.2c0.1,0,0.1,0,0.2,0.1c0.7,0.1,1.5,0.2,2.3,0.2
							c1.7-0.1,3.3-0.5,4.6-1.3c0.1-0.1,0.2-0.2,0.4-0.2c0.2-0.1,0.4-0.3,0.6-0.4c0.2-0.2,0.4-0.4,0.5-0.5c0.1-0.1,0.2-0.3,0.2-0.4
							c0,0,0-0.1,0-0.1c0,0,0,0,0-0.1c0-0.1-0.1-0.2-0.2-0.3c-0.1-0.1-0.2-0.2-0.3-0.4C-14,4-14,4-14,4L-14,4z M-14.6,1.6
							c-0.2-0.1-0.4-0.3-0.6-0.4c-0.1-0.1-0.2-0.1-0.4-0.2c-0.8-0.4-1.8-0.6-2.9-0.6c-0.1,0-0.1,0-0.2,0c-0.2,0-0.5,0-0.7,0
							c-0.7,0-1.4,0.1-2.1,0.3c-0.8,0.2-1.5,0.5-2.2,0.9l0,0c-0.3,0.2-0.5,0.3-0.7,0.5c-0.1,0.2-0.2,0.3-0.4,0.5
							C-24.9,3.1-25,3.6-25,4.2c0,0.1,0,0.2,0,0.3c0,0.2,0,0.3,0,0.5c0,0.1,0,0.1,0,0.2c0.1-0.2,0.1-0.4,0.2-0.5
							c0.2-0.4,0.5-0.7,0.9-1c0.2-0.2,0.5-0.4,0.8-0.6c0.3-0.2,0.5-0.3,0.8-0.4c0.1,0,0.1-0.1,0.2-0.1c0.9-0.4,1.9-0.6,2.9-0.7
							c0.1,0,0.3,0,0.4,0c0.9,0,1.7,0,2.4,0.2c0.4,0.1,0.8,0.2,1.2,0.4c0.1,0,0.2,0.1,0.2,0.1c0,0,0-0.1,0-0.1c0,0,0-0.1,0-0.1
							c0-0.2,0.1-0.3,0.1-0.5C-14.7,1.7-14.7,1.6-14.6,1.6L-14.6,1.6z M-13.8-1.1c-0.2-0.1-0.4-0.3-0.6-0.4
							c-1.1-0.6-2.4-0.9-4.1-0.8c-0.4,0-0.9,0.1-1.3,0.1c0,0,0,0-0.1,0C-20-2-20.3-1.9-20.5-1.8c-0.6,0.4-1.2,0.8-1.7,1.2
							c-0.3,0.3-0.6,0.5-0.9,0.7c0.3-0.2,0.6-0.3,0.9-0.4c0.6-0.2,1.3-0.4,1.9-0.5c0.4-0.1,0.8-0.1,1.2-0.1c1.1-0.1,2.1,0.1,3,0.3
							c0.4,0.1,0.7,0.3,1.1,0.5c0.4,0.2,0.7,0.5,0.9,0.7c0.2-0.3,0.5-0.5,0.9-0.7C-13.2-0.5-13.4-0.8-13.8-1.1L-13.8-1.1z
							 M-12.6-4.6c-0.1,0-0.3,0-0.4,0c-0.8,0.1-1.5,0.3-2.2,0.4c-0.3,0.1-0.7,0.2-1,0.3c0.3,0,0.6,0.1,0.9,0.1
							c0.6,0.1,1.2,0.4,1.7,0.6c0.8,0.5,1.2,1,1.4,1.6c0,0.2,0.1,0.3,0,0.5c0,0.1,0,0.2,0,0.2c0,0,0,0,0,0c0.2-0.1,0.3-0.2,0.5-0.2
							c0.4-0.2,0.9-0.4,1.4-0.5c0,0,0,0,0-0.1c0-0.1,0-0.1,0-0.2c0-0.1,0-0.2,0-0.3c0.1-1-0.3-1.8-1.4-2.4
							C-12-4.3-12.3-4.5-12.6-4.6L-12.6-4.6z M-4.7-1.2c0.1,0,0.3,0.1,0.4,0.1C-4-1-3.7-1-3.4-1c0.5,0,1-0.1,1.4-0.4
							c0.4-0.2,0.6-0.5,0.7-0.8c0,0,0,0,0-0.1v0c0-0.1,0-0.1,0-0.2c-0.1-0.2-0.2-0.3-0.4-0.4l0,0c0,0,0,0,0,0c0,0,0,0,0,0l0,0
							c0,0,0,0,0,0C-2-3.1-2.1-3.1-2.2-3.2C-2.3-3.2-2.9-3.4-3-3.5c-0.5-0.2-0.7,0-1,0.3c-0.3,0.3-0.6,0.6-1.1,0.9
							C-5.6-2-6.1-1.8-6.6-1.6c0.4,0,0.8,0.1,1.1,0.2c0.2,0,0.4,0.1,0.6,0.2C-4.8-1.3-4.7-1.2-4.7-1.2L-4.7-1.2z M-5.7-3.9
							c0-0.2,0-0.4,0-0.5c-0.7-0.1-1.3-0.2-2-0.3c-0.4,0-0.9-0.1-1.4-0.1c-0.1,0-0.2,0-0.4,0c0.1,0.1,0.1,0.1,0.2,0.2
							c0.5,0.5,0.8,1.1,0.7,1.8c0,0.3-0.1,0.6-0.3,0.9C-8.9-1.8-9-1.7-9-1.6c0.3,0,0.5,0,0.8-0.1c0.1,0,0.1,0,0.2,0
							c0.1,0,0.3,0,0.5,0c0.1,0,0.1-0.1,0.2-0.1c0,0,0.1,0,0.1-0.1C-6.3-2.4-5.7-3.1-5.7-3.9z"/>
						<path id="Shape_67_" class="st31" d="M-14.8,2.4c-0.1,0-0.1-0.1-0.2-0.1c-0.4-0.2-0.7-0.3-1.2-0.4c-0.7-0.2-1.5-0.2-2.4-0.2
							c-0.1,0-0.3,0-0.4,0c-1.1,0.1-2,0.3-2.9,0.7c-0.1,0-0.1,0.1-0.2,0.1C-22.5,2.7-22.7,2.8-23,3c-0.3,0.2-0.6,0.4-0.8,0.6
							c-0.4,0.3-0.7,0.7-0.9,1c-0.1,0.2-0.2,0.3-0.2,0.5c0.1,0.2,0.1,0.4,0.2,0.6c0.2,0.3,0.4,0.6,0.7,0.9c0,0,0.1,0.1,0.1,0.1
							c0.1-0.4,0.4-0.8,0.7-1.2c0.3-0.4,0.8-0.7,1.3-1.1c0,0,0.1,0,0.1-0.1c1.2-0.7,2.6-1.1,4.2-1.1c0.9,0,1.7,0,2.4,0.2
							c0.3,0.1,0.6,0.2,0.9,0.3c-0.2-0.2-0.3-0.4-0.4-0.5C-14.8,2.9-14.8,2.7-14.8,2.4L-14.8,2.4z M-15.2,1.2
							c0.2,0.1,0.4,0.3,0.6,0.4c0.1-0.1,0.1-0.2,0.2-0.3c0.1-0.1,0.1-0.2,0.2-0.3c0.1-0.1,0.2-0.2,0.3-0.3c-0.2-0.3-0.5-0.5-0.9-0.7
							c-0.3-0.2-0.7-0.4-1.1-0.5c-0.9-0.3-1.9-0.4-3-0.3c-0.4,0-0.8,0.1-1.2,0.1c-0.7,0.1-1.3,0.3-1.9,0.5c-0.3,0.1-0.5,0.2-0.8,0.4
							c-0.1,0.1-0.2,0.1-0.3,0.2c-0.3,0.3-0.6,0.6-0.8,0.9c-0.1,0.1-0.1,0.2-0.2,0.3c-0.2,0.3-0.4,0.6-0.5,0.9
							c0.3-0.2,0.6-0.5,1-0.7l0,0c0.7-0.4,1.4-0.7,2.2-0.9c0.7-0.2,1.3-0.3,2.1-0.3c0.2,0,0.5,0,0.7,0c0.1,0,0.1,0,0.2,0
							c1.1,0,2.1,0.2,2.9,0.6C-15.5,1.1-15.3,1.1-15.2,1.2L-15.2,1.2z M-9.2-4.6c-0.1-0.1-0.1-0.1-0.2-0.2c-0.4,0-0.8,0-1.2,0
							c-0.7,0-1.3,0.1-2,0.2c0.3,0.1,0.6,0.3,0.9,0.4c1.1,0.6,1.6,1.4,1.4,2.4c0,0.1,0,0.2,0,0.3c0,0.1,0,0.1,0,0.2c0,0,0,0,0,0.1
							c0.1,0,0.1,0,0.2,0c0.3-0.1,0.6-0.1,0.9-0.2c0.1,0,0.2,0,0.2,0C-9-1.7-8.9-1.8-8.8-1.9c0.2-0.3,0.2-0.6,0.3-0.9
							C-8.4-3.5-8.7-4.1-9.2-4.6L-9.2-4.6z M-14.4-1.5c0.2,0.1,0.4,0.3,0.6,0.4c0.4,0.3,0.6,0.6,0.8,1c0.1-0.1,0.2-0.2,0.4-0.2
							c0.1-0.1,0.3-0.2,0.4-0.2c0,0,0,0,0,0c0-0.1,0-0.2,0-0.2c0-0.2,0-0.4,0-0.5C-12.4-2-12.9-2.5-13.6-3c-0.5-0.3-1.1-0.5-1.7-0.6
							c-0.3-0.1-0.6-0.1-0.9-0.1c-1.3,0.4-2.4,0.9-3.6,1.6c0.4-0.1,0.8-0.1,1.3-0.1C-16.8-2.4-15.4-2.2-14.4-1.5L-14.4-1.5z
							 M-5.6-4.4c0,0.2,0,0.3,0,0.5c-0.1,0.8-0.6,1.5-1.7,2.1c0,0-0.1,0-0.1,0.1c-0.1,0-0.1,0.1-0.2,0.1c0.1,0,0.2,0,0.3,0
							c0.2,0,0.5,0,0.7,0c0.5-0.2,1-0.4,1.5-0.6c0,0,0,0,0,0c1.1-0.5,2.7-1.2,2-1.2C-3.2-3.5-5.6-4.4-5.6-4.4z"/>
						<path id="Shape_66_" class="st32" d="M-6.6-1.6c-0.2,0-0.4,0-0.7,0c-0.1,0-0.2,0-0.3,0c-0.2,0-0.3,0-0.5,0c-0.1,0-0.1,0-0.2,0
							c-0.3,0-0.5,0-0.8,0.1c-0.1,0-0.2,0-0.2,0c-0.3,0.1-0.6,0.1-0.9,0.2c-0.1,0-0.1,0-0.2,0c-0.5,0.1-0.9,0.3-1.4,0.5
							c-0.2,0.1-0.3,0.1-0.5,0.2c-0.1,0.1-0.3,0.2-0.4,0.2c-0.1,0.1-0.3,0.2-0.4,0.2c-0.3,0.2-0.6,0.5-0.9,0.7
							c-0.1,0.1-0.2,0.2-0.3,0.3c-0.1,0.1-0.2,0.2-0.2,0.3c-0.1,0.1-0.1,0.2-0.2,0.3c0,0,0,0.1,0,0.1c-0.1,0.2-0.1,0.3-0.1,0.5
							c0,0,0,0.1,0,0.1c0,0,0,0.1,0,0.1c0,0.2,0.1,0.5,0.2,0.7c0.1,0.2,0.2,0.3,0.4,0.5c0,0,0,0,0,0.1l0,0c0.1,0.1,0.1,0.1,0.2,0.2
							c0,0,0-0.1,0.1-0.1c0.2-0.2,0.5-0.5,0.9-0.7c0.1-0.1,0.2-0.2,0.4-0.2c0.1-0.1,0.3-0.2,0.4-0.2c0.2-0.1,0.3-0.2,0.5-0.2
							c0.4-0.2,0.9-0.4,1.4-0.5c0.1,0,0.1,0,0.2,0C-9.8,1.8-9.4,1.7-9,1.7c0.3,0,0.5-0.1,0.8-0.1c0.1,0,0.1,0,0.2,0
							c0.1,0,0.3,0,0.5,0c0.1,0,0.2,0,0.3,0c0.2,0,0.5,0,0.7,0c0.4,0,0.8,0.1,1.1,0.2C-5.2,1.9-5,1.9-4.8,2c0,0,0.1,0,0.1,0.1
							c0.1,0,0.3,0.1,0.4,0.2C-4,2.3-3.7,2.3-3.4,2.3c0.5,0,1-0.2,1.4-0.4c0.4-0.2,0.6-0.4,0.6-0.7l0-0.2c0,0,0,0,0-0.1v-3.2
							c0,0,0,0,0,0.1c0,0.3-0.2,0.6-0.7,0.8C-2.4-1.1-2.9-1-3.4-1C-3.7-1-4-1-4.3-1.1c-0.1-0.1-0.3-0.1-0.4-0.1c0,0-0.1,0-0.1-0.1
							C-5-1.3-5.2-1.4-5.4-1.4C-5.8-1.5-6.2-1.6-6.6-1.6z"/>
					</g>
				</g>
			</g>
		</g>
		<g id="prawn-copy-2_1_" transform="translate(113.000000, 81.000000)">
			
				<g id="Group_6_" transform="translate(12.604167, 8.464583) scale(-1, 1) translate(-12.604167, -8.464583) translate(0.451389, 0.318750)">
				<g id="people_0_Layer10_0_FILL_4_">
					<g>
						<path id="Shape_85_" class="st29" d="M60.6,1.2c0,0.1-0.1,0.3-0.2,0.4c-0.1,0.1-0.3,0.3-0.5,0.5c-0.2,0.1-0.4,0.3-0.6,0.4
							c-0.1,0.1-0.2,0.2-0.4,0.2c-1.3,0.8-2.9,1.2-4.6,1.3c-0.9,0-1.6,0-2.3-0.2c-0.1,0-0.1,0-0.2-0.1c-0.7-0.2-1.2-0.5-1.7-0.9
							c0,0,0,0,0,0c0,0-0.1-0.1-0.1-0.1c-0.3-0.3-0.6-0.6-0.7-0.9c-0.1-0.2-0.2-0.4-0.2-0.6c0-0.1,0-0.1,0-0.2c0-0.2,0-0.3,0-0.5v3
							c0,0.1,0,0.1,0,0.2c0,0.2,0,0.4,0,0.6c0,0.1,0,0.1,0,0.2c0.1,0.6,0.5,1.1,1,1.6c0,0,0.1,0.1,0.1,0.1c0,0,0,0,0,0
							c0.4,0.3,1,0.6,1.7,0.9c0.1,0,0.1,0,0.2,0.1c0.7,0.1,1.5,0.2,2.4,0.2C56.1,7.3,57.6,6.8,59,6c0.4-0.2,0.7-0.4,1-0.7
							c0.2-0.2,0.4-0.4,0.5-0.5c0.1-0.1,0.2-0.3,0.2-0.4V1.2z"/>
						<path id="Shape_84_" class="st30" d="M60,0.2c-0.1-0.1-0.1-0.1-0.2-0.2l0,0c0,0,0,0,0-0.1c-0.3-0.1-0.6-0.2-0.9-0.3
							c-0.7-0.2-1.5-0.2-2.4-0.2c-1.6,0.1-3,0.5-4.2,1.1c0,0-0.1,0-0.1,0.1c-0.6,0.3-1,0.7-1.3,1.1c0,0,0,0,0,0
							C51,1.7,50,2.2,50.1,3c0.1,0.4,1.1,0.6,1.1,0.6c0.2,0.1,0.4,0.2,0.6,0.2c0.1,0,0.1,0,0.2,0.1c0.7,0.1,1.5,0.2,2.3,0.2
							C56.1,4,57.6,3.6,59,2.8c0.1-0.1,0.2-0.2,0.4-0.2c0.2-0.1,0.4-0.3,0.6-0.4c0.2-0.2,0.4-0.4,0.5-0.5c0.1-0.1,0.2-0.3,0.2-0.4
							c0,0,0-0.1,0-0.1c0,0,0,0,0-0.1c0-0.1-0.1-0.2-0.2-0.3c-0.1-0.1-0.2-0.2-0.3-0.4C60.1,0.3,60,0.3,60,0.2L60,0.2z M59.4-2.1
							c-0.2-0.1-0.4-0.3-0.6-0.4c-0.1-0.1-0.2-0.1-0.4-0.2c-0.8-0.4-1.8-0.6-2.9-0.6c-0.1,0-0.1,0-0.2,0c-0.2,0-0.5,0-0.7,0
							c-0.7,0-1.4,0.1-2.1,0.3c-0.8,0.2-1.5,0.5-2.2,0.9l0,0c-0.3,0.2-0.5,0.3-0.7,0.5c-0.1,0.2-0.2,0.3-0.4,0.5
							C49.1-0.6,49-0.1,49,0.4c0,0.1,0,0.2,0,0.3c0,0.2,0,0.3,0,0.5c0,0.1,0,0.1,0,0.2c0.1-0.2,0.1-0.4,0.2-0.5
							c0.2-0.4,0.5-0.7,0.9-1c0.2-0.2,0.5-0.4,0.8-0.6c0.3-0.2,0.5-0.3,0.8-0.4c0.1,0,0.1-0.1,0.2-0.1c0.9-0.4,1.9-0.6,2.9-0.7
							c0.1,0,0.3,0,0.4,0c0.9,0,1.7,0,2.4,0.2c0.4,0.1,0.8,0.2,1.2,0.4c0.1,0,0.2,0.1,0.2,0.1c0,0,0-0.1,0-0.1c0,0,0-0.1,0-0.1
							c0-0.2,0.1-0.3,0.1-0.5C59.3-2.1,59.4-2.1,59.4-2.1L59.4-2.1z M60.2-4.9C60-5,59.9-5.2,59.6-5.3c-1.1-0.6-2.4-0.9-4.1-0.8
							c-0.4,0-0.9,0.1-1.3,0.1c0,0,0,0-0.1,0c-0.2,0.1-0.5,0.3-0.7,0.4c-0.6,0.4-1.2,0.8-1.7,1.2c-0.3,0.3-0.6,0.5-0.9,0.7
							c0.3-0.2,0.6-0.3,0.9-0.4c0.6-0.2,1.3-0.4,1.9-0.5c0.4-0.1,0.8-0.1,1.2-0.1c1.1-0.1,2.1,0.1,3,0.3c0.4,0.1,0.7,0.3,1.1,0.5
							c0.4,0.2,0.7,0.5,0.9,0.7c0.2-0.3,0.5-0.5,0.9-0.7C60.8-4.2,60.6-4.6,60.2-4.9L60.2-4.9z M61.4-8.3c-0.1,0-0.3,0-0.4,0
							c-0.8,0.1-1.5,0.3-2.2,0.4c-0.3,0.1-0.7,0.2-1,0.3c0.3,0,0.6,0.1,0.9,0.1c0.6,0.1,1.2,0.4,1.7,0.6c0.8,0.5,1.2,1,1.4,1.6
							c0,0.2,0.1,0.3,0,0.5c0,0.1,0,0.2,0,0.2c0,0,0,0,0,0c0.2-0.1,0.3-0.2,0.5-0.2c0.4-0.2,0.9-0.4,1.4-0.5c0,0,0,0,0-0.1
							c0-0.1,0-0.1,0-0.2c0-0.1,0-0.2,0-0.3c0.1-1-0.3-1.8-1.4-2.4C62.1-8.1,61.7-8.2,61.4-8.3L61.4-8.3z M69.3-5
							c0.1,0,0.3,0.1,0.4,0.1c0.3,0.1,0.5,0.1,0.9,0.1c0.5,0,1-0.1,1.4-0.4c0.4-0.2,0.6-0.5,0.7-0.8c0,0,0,0,0-0.1v0
							c0-0.1,0-0.1,0-0.2c-0.1-0.2-0.2-0.3-0.4-0.4l0,0c0,0,0,0,0,0c0,0,0,0,0,0l0,0c0,0,0,0,0,0c-0.1-0.1-0.2-0.1-0.3-0.2
							C71.7-7,71.2-7.2,71-7.2c-0.5-0.2-0.7,0-1,0.3c-0.3,0.3-0.6,0.6-1.1,0.9c-0.5,0.3-0.9,0.5-1.5,0.6c0.4,0,0.8,0.1,1.1,0.2
							c0.2,0,0.4,0.1,0.6,0.2C69.2-5,69.3-5,69.3-5L69.3-5z M68.4-7.6c0-0.2,0-0.4,0-0.5c-0.7-0.1-1.3-0.2-2-0.3
							c-0.4,0-0.9-0.1-1.4-0.1c-0.1,0-0.2,0-0.4,0c0.1,0.1,0.1,0.1,0.2,0.2c0.5,0.5,0.8,1.1,0.7,1.8c0,0.3-0.1,0.6-0.3,0.9
							C65.1-5.5,65-5.4,65-5.3c0.3,0,0.5,0,0.8-0.1c0.1,0,0.1,0,0.2,0c0.1,0,0.3,0,0.5,0c0.1,0,0.1-0.1,0.2-0.1c0,0,0.1,0,0.1-0.1
							C67.7-6.2,68.3-6.8,68.4-7.6z"/>
						<path id="Shape_83_" class="st31" d="M59.2-1.3c-0.1,0-0.1-0.1-0.2-0.1c-0.4-0.2-0.7-0.3-1.2-0.4C57.1-1.9,56.2-2,55.4-2
							c-0.1,0-0.3,0-0.4,0c-1.1,0.1-2,0.3-2.9,0.7c-0.1,0-0.1,0.1-0.2,0.1C51.5-1,51.3-0.9,51-0.7c-0.3,0.2-0.6,0.4-0.8,0.6
							c-0.4,0.3-0.7,0.7-0.9,1c-0.1,0.2-0.2,0.3-0.2,0.5c0.1,0.2,0.1,0.4,0.2,0.6c0.2,0.3,0.4,0.6,0.7,0.9c0,0,0.1,0.1,0.1,0.1
							c0.1-0.4,0.4-0.8,0.7-1.2c0.3-0.4,0.8-0.7,1.3-1.1c0,0,0.1,0,0.1-0.1c1.2-0.7,2.6-1.1,4.2-1.1c0.9,0,1.7,0,2.4,0.2
							c0.3,0.1,0.6,0.2,0.9,0.3c-0.2-0.2-0.3-0.4-0.4-0.5C59.2-0.8,59.2-1.1,59.2-1.3L59.2-1.3z M58.8-2.6c0.2,0.1,0.4,0.3,0.6,0.4
							c0.1-0.1,0.1-0.2,0.2-0.3c0.1-0.1,0.1-0.2,0.2-0.3C59.9-2.9,60-3,60.1-3.1c-0.2-0.3-0.5-0.5-0.9-0.7c-0.3-0.2-0.7-0.4-1.1-0.5
							c-0.9-0.3-1.9-0.4-3-0.3c-0.4,0-0.8,0.1-1.2,0.1c-0.7,0.1-1.3,0.3-1.9,0.5c-0.3,0.1-0.5,0.2-0.8,0.4c-0.1,0.1-0.2,0.1-0.3,0.2
							c-0.3,0.3-0.6,0.6-0.8,0.9c-0.1,0.1-0.1,0.2-0.2,0.3c-0.2,0.3-0.4,0.6-0.5,0.9c0.3-0.2,0.6-0.5,1-0.7l0,0
							c0.7-0.4,1.4-0.7,2.2-0.9c0.7-0.2,1.3-0.3,2.1-0.3c0.2,0,0.5,0,0.7,0c0.1,0,0.1,0,0.2,0c1.1,0,2.1,0.2,2.9,0.6
							C58.5-2.7,58.7-2.6,58.8-2.6L58.8-2.6z M64.8-8.4c-0.1-0.1-0.1-0.1-0.2-0.2c-0.4,0-0.8,0-1.2,0c-0.7,0-1.3,0.1-2,0.2
							c0.3,0.1,0.6,0.3,0.9,0.4c1.1,0.6,1.5,1.4,1.4,2.4c0,0.1,0,0.2,0,0.3c0,0.1,0,0.1,0,0.2c0,0,0,0,0,0.1c0.1,0,0.1,0,0.2,0
							c0.3-0.1,0.6-0.1,0.9-0.2c0.1,0,0.2,0,0.2,0c0.1-0.1,0.1-0.2,0.2-0.3c0.2-0.3,0.2-0.6,0.3-0.9C65.6-7.2,65.3-7.8,64.8-8.4
							L64.8-8.4z M59.6-5.3C59.9-5.2,60-5,60.2-4.9c0.4,0.3,0.6,0.6,0.8,1c0.1-0.1,0.2-0.2,0.4-0.2c0.1-0.1,0.3-0.2,0.4-0.2
							c0,0,0,0,0,0c0-0.1,0-0.2,0-0.2c0-0.2,0-0.4,0-0.5c-0.2-0.6-0.6-1.2-1.4-1.6c-0.5-0.3-1.1-0.5-1.7-0.6
							c-0.3-0.1-0.6-0.1-0.9-0.1c-1.3,0.4-2.5,0.9-3.6,1.6c0.4-0.1,0.8-0.1,1.3-0.1C57.2-6.2,58.6-5.9,59.6-5.3L59.6-5.3z M68.4-8.2
							c0,0.2,0,0.3,0,0.5c-0.1,0.8-0.6,1.5-1.7,2.1c0,0-0.1,0-0.1,0.1c-0.1,0-0.1,0.1-0.2,0.1c0.1,0,0.2,0,0.3,0c0.2,0,0.5,0,0.7,0
							c0.5-0.2,1-0.4,1.5-0.6c0,0,0,0,0,0c1.1-0.5,2.7-1.2,2-1.2C70.8-7.3,68.4-8.1,68.4-8.2z"/>
						<path id="Shape_82_" class="st32" d="M67.4-5.4c-0.2,0-0.4,0-0.7,0c-0.1,0-0.2,0-0.3,0c-0.2,0-0.3,0-0.5,0c-0.1,0-0.1,0-0.2,0
							c-0.3,0-0.5,0-0.8,0.1c-0.1,0-0.2,0-0.2,0c-0.3,0.1-0.6,0.1-0.9,0.2c-0.1,0-0.1,0-0.2,0c-0.5,0.1-0.9,0.3-1.4,0.5
							c-0.2,0.1-0.3,0.1-0.5,0.2c-0.1,0.1-0.3,0.2-0.4,0.2C61.2-4,61.1-3.9,61-3.9c-0.3,0.2-0.6,0.5-0.9,0.7C60-3,59.9-2.9,59.8-2.8
							c-0.1,0.1-0.2,0.2-0.2,0.3c-0.1,0.1-0.1,0.2-0.2,0.3c0,0,0,0.1,0,0.1c-0.1,0.2-0.1,0.3-0.1,0.5c0,0,0,0.1,0,0.1
							c0,0,0,0.1,0,0.1c0,0.2,0.1,0.5,0.2,0.7c0.1,0.2,0.2,0.3,0.4,0.5c0,0,0,0,0,0.1l0,0c0.1,0.1,0.1,0.1,0.2,0.2
							c0,0,0-0.1,0.1-0.1c0.2-0.2,0.5-0.5,0.9-0.7c0.1-0.1,0.2-0.2,0.4-0.2c0.1-0.1,0.3-0.2,0.4-0.2c0.2-0.1,0.3-0.2,0.5-0.2
							c0.4-0.2,0.9-0.4,1.4-0.5c0.1,0,0.1,0,0.2,0C64.2-1.9,64.6-2,65-2.1c0.3,0,0.5-0.1,0.8-0.1c0.1,0,0.1,0,0.2,0
							c0.1,0,0.3,0,0.5,0c0.1,0,0.2,0,0.3,0c0.2,0,0.5,0,0.7,0c0.4,0,0.8,0.1,1.1,0.2c0.2,0,0.4,0.1,0.6,0.2c0,0,0.1,0,0.1,0.1
							c0.1,0,0.3,0.1,0.4,0.2c0.3,0.1,0.5,0.1,0.9,0.1c0.5,0,1-0.2,1.4-0.4c0.4-0.2,0.6-0.4,0.6-0.7l0-0.2c0,0,0,0,0-0.1V-6
							c0,0,0,0,0,0.1c0,0.3-0.2,0.6-0.7,0.8c-0.4,0.2-0.9,0.4-1.4,0.4c-0.3,0-0.6,0-0.9-0.1c-0.1-0.1-0.3-0.1-0.4-0.1
							c0,0-0.1,0-0.1-0.1c-0.2-0.1-0.4-0.1-0.6-0.2C68.2-5.3,67.8-5.3,67.4-5.4z"/>
					</g>
				</g>
			</g>
		</g>
	</g>
	<g id="Page-1_1_">
		<g id="Artboard_1_">
			<g id="chili" transform="translate(62.000000, 39.000000)">
				<path id="Shape_43_" class="st33" d="M0.6,7.8C0.4,7.8,0.2,7.7,0,7.6c-0.2,0-0.5-0.1-0.8,0c0,0-0.1,0-0.2,0c-0.1,0-0.2,0-0.3,0
					c-0.6,0-1.1,0.1-1.6,0.3C-3.5,8.1-4.2,8-5,7.8c-0.2-0.1-0.4-0.2-0.5-0.3l0,2C-5.3,9.6-5.2,9.7-5,9.8c0.8,0.3,1.5,0.3,2.1,0.2
					C-2.3,9.8-1.6,9.7-1,9.6c0.1,0,0.1,0,0.2,0c0.3,0,0.6,0,0.8,0c0.2,0.1,0.4,0.1,0.6,0.2C0.8,9.9,1,9.9,1.2,10v-2
					C1,7.9,0.8,7.9,0.6,7.8z"/>
				<path id="Shape_42_" class="st34" d="M1.4,6.3c0-0.1-0.1-0.3-0.2-0.4C1,5.7,0.8,5.5,0.5,5.4C-0.4,5.1-0.9,5-1.1,5.3
					c0,0,0,0.1-0.1,0.1c-0.1,0.2-0.1,0.3-0.2,0.5c0,0.1,0,0.2,0,0.3c0,0,0,0.1,0,0.1c0,0,0,0.2-0.1,0.4c0,0.2-0.3,0.4-0.8,0.7
					c-0.5,0.2-1,0.4-1.6,0.4c-0.6,0-0.9-0.1-1.1-0.3C-5,7.3-5.1,7.2-5.1,7.2c-0.1,0-0.1,0.1-0.3,0.1l-0.1,0.1l0,0c0,0,0,0,0,0
					C-5.3,7.6-5.2,7.7-5,7.8C-4.2,8-3.5,8.1-2.9,7.9c0.5-0.1,1-0.2,1.6-0.3c0.1,0,0.2,0,0.3,0c0.1,0,0.1,0,0.2,0c0.3,0,0.6,0,0.8,0
					c0.2,0.1,0.4,0.1,0.6,0.2c0.2,0,0.4,0.1,0.6,0.1h0c0,0,0,0,0,0C1.5,7.2,1.5,6.7,1.4,6.3z"/>
				<path id="Shape_41_" class="st35" d="M20.4,9.4c0,0.1,0,0.3,0,0.4c0,0.1,0,0.3-0.1,0.4c-0.3,1.3-1,2.5-2.3,3.6
					c-0.2,0.2-0.5,0.4-0.7,0.6l0,0c0,0-0.1,0-0.1,0.1c-0.1,0-0.2,0.1-0.3,0.1c-0.1,0-0.2,0-0.3-0.1c-0.1,0-0.1-0.1-0.1-0.1v2
					c0,0.1,0,0.1,0.1,0.1c0.1,0,0.2,0.1,0.3,0.1c0.1,0,0.2,0,0.3-0.1c0,0,0.1,0,0.1-0.1l0,0c1.8-1.4,2.8-2.9,3-4.5
					c0-0.2,0-0.4,0-0.7c0-0.1,0-0.1,0-0.2V9.4L20.4,9.4z M17.9,12.4c0.1-0.3,0.1-0.6,0.1-0.9c0-0.6-0.1-1.1-0.3-1.5
					c-0.4-0.9-1.1-1.6-2.2-2.2c-1.6-0.9-3.7-1.4-6.2-1.3c-1.8,0.1-3.4,0.4-4.9,1c-0.1,0-0.2,0.1-0.3,0.1C3.5,7.8,2.8,8,2.1,8
					c-0.3,0-0.6,0-0.9,0h0v2h0c0.3,0,0.6,0,0.9,0c0.7,0,1.4-0.1,2-0.4c0.1,0,0.2-0.1,0.3-0.1c1.5-0.6,3.1-0.9,4.9-1
					c2.5-0.1,4.6,0.3,6.2,1.3c1.1,0.6,1.8,1.3,2.2,2.2C17.8,12.1,17.8,12.3,17.9,12.4z"/>
				<path id="Shape_40_" class="st36" d="M18,11.5c0,0.3-0.1,0.6-0.1,0.9c-0.2,0.6-0.6,1.2-1.2,1.7h0c0,0-0.1,0.1-0.1,0.1
					c0,0,0,0,0,0.1c0,0,0,0,0,0v0c0,0,0,0.1,0.1,0.1c0.1,0,0.2,0.1,0.3,0.1c0.1,0,0.2,0,0.3-0.1c0,0,0.1,0,0.1-0.1l0,0
					c0.3-0.2,0.5-0.4,0.7-0.6c1.2-1.1,2-2.3,2.3-3.6c0-0.1,0-0.3,0.1-0.4c0-0.2,0-0.3,0-0.4c0-0.1,0-0.2,0-0.3
					c0-1.8-1.1-3.3-3.3-4.5c-2.4-1.4-5.6-2-9.3-1.9C5.5,2.8,3.4,3.1,1.4,3.8C1,3.9,0.6,4.1,0.2,4.2C0.1,4.3,0,4.3,0,4.4
					c-0.5,0.3-0.9,0.6-1.1,1C-0.9,5-0.4,5.1,0.5,5.4C0.8,5.5,1,5.7,1.2,5.9C1.3,6,1.3,6.1,1.4,6.3c0.1,0.4,0.1,1-0.1,1.6
					c0,0,0,0,0,0c0.3,0,0.6,0,0.9,0c0.7,0,1.4-0.1,2-0.4c0.1,0,0.2-0.1,0.3-0.1c1.5-0.6,3.1-0.9,4.9-1c2.5-0.1,4.6,0.3,6.2,1.3
					c1.1,0.6,1.8,1.3,2.2,2.2C17.9,10.4,18,11,18,11.5z"/>
			</g>
			<g id="chili-copy" transform="translate(99.000000, 24.000000)">
				<path id="Shape_39_" class="st33" d="M0.6,7.8C0.4,7.8,0.2,7.7,0,7.6c-0.2,0-0.5-0.1-0.8,0c0,0-0.1,0-0.2,0c-0.1,0-0.2,0-0.3,0
					c-0.6,0-1.1,0.1-1.6,0.3C-3.5,8.1-4.2,8-5,7.8c-0.2-0.1-0.4-0.2-0.5-0.3l0,2C-5.3,9.6-5.2,9.7-5,9.8c0.8,0.3,1.5,0.3,2.1,0.2
					C-2.3,9.8-1.6,9.7-1,9.6c0.1,0,0.1,0,0.2,0c0.3,0,0.6,0,0.8,0c0.2,0.1,0.4,0.1,0.6,0.2C0.8,9.9,1,9.9,1.2,10v-2
					C1,7.9,0.8,7.9,0.6,7.8z"/>
				<path id="Shape_38_" class="st34" d="M1.4,6.3c0-0.1-0.1-0.3-0.2-0.4C1,5.7,0.8,5.5,0.5,5.4C-0.4,5.1-0.9,5-1.1,5.3
					c0,0,0,0.1-0.1,0.1c-0.1,0.2-0.1,0.3-0.2,0.5c0,0.1,0,0.2,0,0.3c0,0,0,0.1,0,0.1c0,0,0,0.2-0.1,0.4c0,0.2-0.3,0.4-0.8,0.7
					c-0.5,0.2-1,0.4-1.6,0.4c-0.6,0-0.9-0.1-1.1-0.3C-5,7.3-5.1,7.2-5.1,7.2c-0.1,0-0.1,0.1-0.3,0.1l-0.1,0.1l0,0c0,0,0,0,0,0
					C-5.3,7.6-5.2,7.7-5,7.8C-4.2,8-3.5,8.1-2.9,7.9c0.5-0.1,1-0.2,1.6-0.3c0.1,0,0.2,0,0.3,0c0.1,0,0.1,0,0.2,0c0.3,0,0.6,0,0.8,0
					c0.2,0.1,0.4,0.1,0.6,0.2c0.2,0,0.4,0.1,0.6,0.1h0c0,0,0,0,0,0C1.5,7.2,1.5,6.7,1.4,6.3z"/>
				<path id="Shape_37_" class="st35" d="M20.4,9.4c0,0.1,0,0.3,0,0.4c0,0.1,0,0.3-0.1,0.4c-0.3,1.3-1,2.5-2.3,3.6
					c-0.2,0.2-0.5,0.4-0.7,0.6l0,0c0,0-0.1,0-0.1,0.1c-0.1,0-0.2,0.1-0.3,0.1c-0.1,0-0.2,0-0.3-0.1c-0.1,0-0.1-0.1-0.1-0.1v2
					c0,0.1,0,0.1,0.1,0.1c0.1,0,0.2,0.1,0.3,0.1c0.1,0,0.2,0,0.3-0.1c0,0,0.1,0,0.1-0.1l0,0c1.8-1.4,2.8-2.9,3-4.5
					c0-0.2,0-0.4,0-0.7c0-0.1,0-0.1,0-0.2V9.4L20.4,9.4z M17.9,12.4c0.1-0.3,0.1-0.6,0.1-0.9c0-0.6-0.1-1.1-0.3-1.5
					c-0.4-0.9-1.1-1.6-2.2-2.2c-1.6-0.9-3.7-1.4-6.2-1.3c-1.8,0.1-3.4,0.4-4.9,1c-0.1,0-0.2,0.1-0.3,0.1C3.5,7.8,2.8,8,2.1,8
					c-0.3,0-0.6,0-0.9,0h0v2h0c0.3,0,0.6,0,0.9,0c0.7,0,1.4-0.1,2-0.4c0.1,0,0.2-0.1,0.3-0.1c1.5-0.6,3.1-0.9,4.9-1
					c2.5-0.1,4.6,0.3,6.2,1.3c1.1,0.6,1.8,1.3,2.2,2.2C17.8,12.1,17.8,12.3,17.9,12.4z"/>
				<path id="Shape_36_" class="st36" d="M18,11.5c0,0.3-0.1,0.6-0.1,0.9c-0.2,0.6-0.6,1.2-1.2,1.7h0c0,0-0.1,0.1-0.1,0.1
					c0,0,0,0,0,0.1c0,0,0,0,0,0v0c0,0,0,0.1,0.1,0.1c0.1,0,0.2,0.1,0.3,0.1c0.1,0,0.2,0,0.3-0.1c0,0,0.1,0,0.1-0.1l0,0
					c0.3-0.2,0.5-0.4,0.7-0.6c1.2-1.1,2-2.3,2.3-3.6c0-0.1,0-0.3,0.1-0.4c0-0.2,0-0.3,0-0.4c0-0.1,0-0.2,0-0.3
					c0-1.8-1.1-3.3-3.3-4.5c-2.4-1.4-5.6-2-9.3-1.9C5.5,2.8,3.4,3.1,1.4,3.8C1,3.9,0.6,4.1,0.2,4.2C0.1,4.3,0,4.3,0,4.4
					c-0.5,0.3-0.9,0.6-1.1,1C-0.9,5-0.4,5.1,0.5,5.4C0.8,5.5,1,5.7,1.2,5.9C1.3,6,1.3,6.1,1.4,6.3c0.1,0.4,0.1,1-0.1,1.6
					c0,0,0,0,0,0c0.3,0,0.6,0,0.9,0c0.7,0,1.4-0.1,2-0.4c0.1,0,0.2-0.1,0.3-0.1c1.5-0.6,3.1-0.9,4.9-1c2.5-0.1,4.6,0.3,6.2,1.3
					c1.1,0.6,1.8,1.3,2.2,2.2C17.9,10.4,18,11,18,11.5z"/>
			</g>
			<g id="chili-copy-2" transform="translate(113.000000, 79.000000)">
				<path id="Shape_35_" class="st33" d="M0.6,7.8C0.4,7.8,0.2,7.7,0,7.6c-0.2,0-0.5-0.1-0.8,0c0,0-0.1,0-0.2,0c-0.1,0-0.2,0-0.3,0
					c-0.6,0-1.1,0.1-1.6,0.3C-3.5,8.1-4.2,8-5,7.8c-0.2-0.1-0.4-0.2-0.5-0.3l0,2C-5.3,9.6-5.2,9.7-5,9.8c0.8,0.3,1.5,0.3,2.1,0.2
					C-2.3,9.8-1.6,9.7-1,9.6c0.1,0,0.1,0,0.2,0c0.3,0,0.6,0,0.8,0c0.2,0.1,0.4,0.1,0.6,0.2C0.8,9.9,1,9.9,1.2,10v-2
					C1,7.9,0.8,7.9,0.6,7.8z"/>
				<path id="Shape_34_" class="st34" d="M1.4,6.3c0-0.1-0.1-0.3-0.2-0.4C1,5.7,0.8,5.5,0.5,5.4C-0.4,5.1-0.9,5-1.1,5.3
					c0,0,0,0.1-0.1,0.1c-0.1,0.2-0.1,0.3-0.2,0.5c0,0.1,0,0.2,0,0.3c0,0,0,0.1,0,0.1c0,0,0,0.2-0.1,0.4c0,0.2-0.3,0.4-0.8,0.7
					c-0.5,0.2-1,0.4-1.6,0.4c-0.6,0-0.9-0.1-1.1-0.3C-5,7.3-5.1,7.2-5.1,7.2c-0.1,0-0.1,0.1-0.3,0.1l-0.1,0.1l0,0c0,0,0,0,0,0
					C-5.3,7.6-5.2,7.7-5,7.8C-4.2,8-3.5,8.1-2.9,7.9c0.5-0.1,1-0.2,1.6-0.3c0.1,0,0.2,0,0.3,0c0.1,0,0.1,0,0.2,0c0.3,0,0.6,0,0.8,0
					c0.2,0.1,0.4,0.1,0.6,0.2c0.2,0,0.4,0.1,0.6,0.1h0c0,0,0,0,0,0C1.5,7.2,1.5,6.7,1.4,6.3z"/>
				<path id="Shape_33_" class="st35" d="M20.4,9.4c0,0.1,0,0.3,0,0.4c0,0.1,0,0.3-0.1,0.4c-0.3,1.3-1,2.5-2.3,3.6
					c-0.2,0.2-0.5,0.4-0.7,0.6l0,0c0,0-0.1,0-0.1,0.1c-0.1,0-0.2,0.1-0.3,0.1c-0.1,0-0.2,0-0.3-0.1c-0.1,0-0.1-0.1-0.1-0.1v2
					c0,0.1,0,0.1,0.1,0.1c0.1,0,0.2,0.1,0.3,0.1c0.1,0,0.2,0,0.3-0.1c0,0,0.1,0,0.1-0.1l0,0c1.8-1.4,2.8-2.9,3-4.5
					c0-0.2,0-0.4,0-0.7c0-0.1,0-0.1,0-0.2V9.4L20.4,9.4z M17.9,12.4c0.1-0.3,0.1-0.6,0.1-0.9c0-0.6-0.1-1.1-0.3-1.5
					c-0.4-0.9-1.1-1.6-2.2-2.2c-1.6-0.9-3.7-1.4-6.2-1.3c-1.8,0.1-3.4,0.4-4.9,1c-0.1,0-0.2,0.1-0.3,0.1C3.5,7.8,2.8,8,2.1,8
					c-0.3,0-0.6,0-0.9,0h0v2h0c0.3,0,0.6,0,0.9,0c0.7,0,1.4-0.1,2-0.4c0.1,0,0.2-0.1,0.3-0.1c1.5-0.6,3.1-0.9,4.9-1
					c2.5-0.1,4.6,0.3,6.2,1.3c1.1,0.6,1.8,1.3,2.2,2.2C17.8,12.1,17.8,12.3,17.9,12.4z"/>
				<path id="Shape_32_" class="st36" d="M18,11.5c0,0.3-0.1,0.6-0.1,0.9c-0.2,0.6-0.6,1.2-1.2,1.7h0c0,0-0.1,0.1-0.1,0.1
					c0,0,0,0,0,0.1c0,0,0,0,0,0v0c0,0,0,0.1,0.1,0.1c0.1,0,0.2,0.1,0.3,0.1c0.1,0,0.2,0,0.3-0.1c0,0,0.1,0,0.1-0.1l0,0
					c0.3-0.2,0.5-0.4,0.7-0.6c1.2-1.1,2-2.3,2.3-3.6c0-0.1,0-0.3,0.1-0.4c0-0.2,0-0.3,0-0.4c0-0.1,0-0.2,0-0.3
					c0-1.8-1.1-3.3-3.3-4.5c-2.4-1.4-5.6-2-9.3-1.9C5.5,2.8,3.4,3.1,1.4,3.8C1,3.9,0.6,4.1,0.2,4.2C0.1,4.3,0,4.3,0,4.4
					c-0.5,0.3-0.9,0.6-1.1,1C-0.9,5-0.4,5.1,0.5,5.4C0.8,5.5,1,5.7,1.2,5.9C1.3,6,1.3,6.1,1.4,6.3c0.1,0.4,0.1,1-0.1,1.6
					c0,0,0,0,0,0c0.3,0,0.6,0,0.9,0c0.7,0,1.4-0.1,2-0.4c0.1,0,0.2-0.1,0.3-0.1c1.5-0.6,3.1-0.9,4.9-1c2.5-0.1,4.6,0.3,6.2,1.3
					c1.1,0.6,1.8,1.3,2.2,2.2C17.9,10.4,18,11,18,11.5z"/>
			</g>
			<g id="chili-copy-3" transform="translate(175.000000, 47.000000)">
				<path id="Shape_31_" class="st33" d="M0.6,7.8C0.4,7.8,0.2,7.7,0,7.6c-0.2,0-0.5-0.1-0.8,0c0,0-0.1,0-0.2,0c-0.1,0-0.2,0-0.3,0
					c-0.6,0-1.1,0.1-1.6,0.3C-3.5,8.1-4.2,8-5,7.8c-0.2-0.1-0.4-0.2-0.5-0.3l0,2C-5.3,9.6-5.2,9.7-5,9.8c0.8,0.3,1.5,0.3,2.1,0.2
					C-2.3,9.8-1.6,9.7-1,9.6c0.1,0,0.1,0,0.2,0c0.3,0,0.6,0,0.8,0c0.2,0.1,0.4,0.1,0.6,0.2C0.8,9.9,1,9.9,1.2,10v-2
					C1,7.9,0.8,7.9,0.6,7.8z"/>
				<path id="Shape_30_" class="st34" d="M1.4,6.3c0-0.1-0.1-0.3-0.2-0.4C1,5.7,0.8,5.5,0.5,5.4C-0.4,5.1-0.9,5-1.1,5.3
					c0,0,0,0.1-0.1,0.1c-0.1,0.2-0.1,0.3-0.2,0.5c0,0.1,0,0.2,0,0.3c0,0,0,0.1,0,0.1c0,0,0,0.2-0.1,0.4c0,0.2-0.3,0.4-0.8,0.7
					c-0.5,0.2-1,0.4-1.6,0.4c-0.6,0-0.9-0.1-1.1-0.3C-5,7.3-5.1,7.2-5.1,7.2c-0.1,0-0.1,0.1-0.3,0.1l-0.1,0.1l0,0c0,0,0,0,0,0
					C-5.3,7.6-5.2,7.7-5,7.8C-4.2,8-3.5,8.1-2.9,7.9c0.5-0.1,1-0.2,1.6-0.3c0.1,0,0.2,0,0.3,0c0.1,0,0.1,0,0.2,0c0.3,0,0.6,0,0.8,0
					c0.2,0.1,0.4,0.1,0.6,0.2c0.2,0,0.4,0.1,0.6,0.1h0c0,0,0,0,0,0C1.5,7.2,1.5,6.7,1.4,6.3z"/>
				<path id="Shape_29_" class="st35" d="M20.4,9.4c0,0.1,0,0.3,0,0.4c0,0.1,0,0.3-0.1,0.4c-0.3,1.3-1,2.5-2.3,3.6
					c-0.2,0.2-0.5,0.4-0.7,0.6l0,0c0,0-0.1,0-0.1,0.1c-0.1,0-0.2,0.1-0.3,0.1c-0.1,0-0.2,0-0.3-0.1c-0.1,0-0.1-0.1-0.1-0.1v2
					c0,0.1,0,0.1,0.1,0.1c0.1,0,0.2,0.1,0.3,0.1c0.1,0,0.2,0,0.3-0.1c0,0,0.1,0,0.1-0.1l0,0c1.8-1.4,2.8-2.9,3-4.5
					c0-0.2,0-0.4,0-0.7c0-0.1,0-0.1,0-0.2V9.4L20.4,9.4z M17.9,12.4c0.1-0.3,0.1-0.6,0.1-0.9c0-0.6-0.1-1.1-0.3-1.5
					c-0.4-0.9-1.1-1.6-2.2-2.2c-1.6-0.9-3.7-1.4-6.2-1.3c-1.8,0.1-3.4,0.4-4.9,1c-0.1,0-0.2,0.1-0.3,0.1C3.5,7.8,2.8,8,2.1,8
					c-0.3,0-0.6,0-0.9,0h0v2h0c0.3,0,0.6,0,0.9,0c0.7,0,1.4-0.1,2-0.4c0.1,0,0.2-0.1,0.3-0.1c1.5-0.6,3.1-0.9,4.9-1
					c2.5-0.1,4.6,0.3,6.2,1.3c1.1,0.6,1.8,1.3,2.2,2.2C17.8,12.1,17.8,12.3,17.9,12.4z"/>
				<path id="Shape_27_" class="st36" d="M18,11.5c0,0.3-0.1,0.6-0.1,0.9c-0.2,0.6-0.6,1.2-1.2,1.7h0c0,0-0.1,0.1-0.1,0.1
					c0,0,0,0,0,0.1c0,0,0,0,0,0v0c0,0,0,0.1,0.1,0.1c0.1,0,0.2,0.1,0.3,0.1c0.1,0,0.2,0,0.3-0.1c0,0,0.1,0,0.1-0.1l0,0
					c0.3-0.2,0.5-0.4,0.7-0.6c1.2-1.1,2-2.3,2.3-3.6c0-0.1,0-0.3,0.1-0.4c0-0.2,0-0.3,0-0.4c0-0.1,0-0.2,0-0.3
					c0-1.8-1.1-3.3-3.3-4.5c-2.4-1.4-5.6-2-9.3-1.9C5.5,2.8,3.4,3.1,1.4,3.8C1,3.9,0.6,4.1,0.2,4.2C0.1,4.3,0,4.3,0,4.4
					c-0.5,0.3-0.9,0.6-1.1,1C-0.9,5-0.4,5.1,0.5,5.4C0.8,5.5,1,5.7,1.2,5.9C1.3,6,1.3,6.1,1.4,6.3c0.1,0.4,0.1,1-0.1,1.6
					c0,0,0,0,0,0c0.3,0,0.6,0,0.9,0c0.7,0,1.4-0.1,2-0.4c0.1,0,0.2-0.1,0.3-0.1c1.5-0.6,3.1-0.9,4.9-1c2.5-0.1,4.6,0.3,6.2,1.3
					c1.1,0.6,1.8,1.3,2.2,2.2C17.9,10.4,18,11,18,11.5z"/>
			</g>
		</g>
	</g>
	<g id="Artboard_4_">
		<g id="pepper" transform="translate(125.000000, 29.000000)">
			<path id="Shape_94_" class="st37" d="M14.1,20.6c0,0.2,0,0.4-0.1,0.6c-0.3,1.8-1.8,3.4-4.3,4.9c-2.1,1.2-4.1,1.8-6,1.7
				c-0.7,0-1.3-0.1-2-0.3c0,0-0.1,0.1-0.1,0.1c-1.5,1-3.7,1.6-6.7,1.7c-3,0.1-6.3-0.8-9.7-2.6c-2.9-1.5-4.6-3.1-5-4.8
				c-0.1-0.2-0.1-0.5-0.1-0.7v1.5c0,0,0,0.1,0,0.1c0,1.9,1.7,3.7,5.1,5.5c3.5,1.8,6.7,2.7,9.7,2.6c3-0.1,5.3-0.6,6.8-1.7
				c2.5,0.7,5.1,0.2,8-1.4c2.8-1.6,4.3-3.5,4.4-5.5c0-0.1,0-0.2,0-0.3c0,0,0,0,0,0L14.1,20.6L14.1,20.6z M-11.3,13.6
				c-1.7,1-2.3,2-1.6,3c0.3-0.5,0.8-0.9,1.6-1.4c2-1.2,5-1.8,8.9-1.7c3.9,0,6.9,0.7,9.1,1.9c0.8,0.5,1.3,0.9,1.6,1.4
				c0.6-1,0.1-2-1.6-2.9c-2.1-1.3-5.2-1.9-9.1-1.9C-6.4,11.8-9.3,12.4-11.3,13.6z"/>
			<path id="Shape_93_" class="st38" d="M-15.6,16.8c0.1,0.1,0.1,0.2,0.2,0.3c-0.1,0-0.2,0.1-0.4,0.1c-2.7,1-4,2.4-4.1,4.3
				c0,0,0,0.1,0,0.1c0,0,0,0.1,0,0.1v0c0,0.2,0,0.5,0.1,0.7c0.4,1.6,2.1,3.2,5,4.8c3.5,1.8,6.7,2.7,9.7,2.6c2.9-0.1,5.2-0.6,6.7-1.6
				c0,0,0.1,0,0.1-0.1c0.6,0.2,1.3,0.3,2,0.3c1.9,0.1,3.9-0.5,6-1.7c2.6-1.5,4-3.1,4.3-4.9c0-0.2,0.1-0.4,0.1-0.6c0-0.1,0-0.2,0-0.2
				c0-1.7-1-2.8-2.9-3.3c-0.2-0.1-0.4-0.1-0.7-0.2c0.2-0.2,0.4-0.4,0.5-0.6c0.6-1.2-0.2-2.4-2.4-3.7c-2.6-1.5-6.3-2.3-11-2.3
				c-4.7,0-8.3,0.6-10.8,2.1C-15.4,14.3-16.2,15.5-15.6,16.8L-15.6,16.8z M-13,17.2c-0.6-1-0.1-2,1.6-3c2-1.2,5-1.8,8.9-1.7
				c3.9,0,6.9,0.7,9.1,1.9c1.7,1,2.2,2,1.6,2.9c-0.2,0.3-0.4,0.5-0.8,0.8h0c0.4,0,0.7,0.1,1,0.2c1.9,0.4,2.8,1.3,2.7,2.8
				c0,0.2,0,0.5-0.1,0.7c-0.4,1.4-1.5,2.7-3.5,3.8C5.2,27,3,27.2,0.9,26.4c-1.2,1.2-3.1,1.8-5.6,1.8c-2.5,0-5.2-0.7-8-2.2
				c-2.3-1.2-3.7-2.5-4.1-3.8c-0.1-0.3-0.1-0.6-0.1-0.9c0.1-1.5,1.3-2.6,3.7-3.4c0.2-0.1,0.4-0.1,0.6-0.2c0,0,0,0,0,0
				C-12.7,17.6-12.9,17.4-13,17.2z"/>
			<path id="Shape_92_" class="st39" d="M8.4,18.5c-0.3-0.1-0.6-0.1-1-0.2v1.8c2.1,0.2,3.3,1,3.6,2.2c0.1-0.3,0.1-0.5,0.1-0.8
				C11.1,20,10.2,18.9,8.4,18.5L8.4,18.5z M-12.6,17.8c-0.2,0.1-0.4,0.1-0.6,0.2c-2.4,0.9-3.6,2.1-3.7,3.8c0,0.3,0,0.7,0.1,1
				c0.4-1.4,1.8-2.5,4.2-3.3c0,0,0,0,0,0L-12.6,17.8z"/>
		</g>
		<g id="pepper-copy" transform="translate(144.000000, 67.000000)">
			<path id="Shape_91_" class="st37" d="M43.3,6.4c0,0.2,0,0.4-0.1,0.6c-0.3,1.8-1.8,3.4-4.3,4.9c-2.1,1.2-4.1,1.8-6,1.7
				c-0.7,0-1.3-0.1-2-0.3c0,0-0.1,0.1-0.1,0.1c-1.5,1-3.7,1.6-6.7,1.7c-3,0.1-6.3-0.8-9.7-2.6c-2.9-1.5-4.6-3.1-5-4.8
				C9.3,7.4,9.3,7.1,9.3,6.9v1.5c0,0,0,0.1,0,0.1c0,1.9,1.7,3.7,5.1,5.5c3.5,1.8,6.7,2.7,9.7,2.6c3-0.1,5.3-0.6,6.8-1.7
				c2.5,0.7,5.1,0.2,8-1.4c2.8-1.6,4.3-3.5,4.4-5.5c0-0.1,0-0.2,0-0.3c0,0,0,0,0,0L43.3,6.4L43.3,6.4z M17.9-0.6c-1.7,1-2.3,2-1.6,3
				c0.3-0.5,0.8-0.9,1.6-1.4c2-1.2,5-1.8,8.9-1.7c3.9,0,6.9,0.7,9.1,1.9c0.8,0.5,1.3,0.9,1.6,1.4c0.6-1,0.1-2-1.6-2.9
				c-2.1-1.3-5.2-1.9-9.1-1.9C22.8-2.4,19.9-1.8,17.9-0.6z"/>
			<path id="Shape_90_" class="st38" d="M13.6,2.5c0.1,0.1,0.1,0.2,0.2,0.3c-0.1,0-0.2,0.1-0.4,0.1c-2.7,1-4,2.4-4.1,4.3
				c0,0,0,0.1,0,0.1c0,0,0,0.1,0,0.1v0c0,0.2,0,0.5,0.1,0.7c0.4,1.6,2.1,3.2,5,4.8c3.5,1.8,6.7,2.7,9.7,2.6c2.9-0.1,5.2-0.6,6.7-1.6
				c0,0,0.1,0,0.1-0.1c0.6,0.2,1.3,0.3,2,0.3c1.9,0.1,3.9-0.5,6-1.7c2.6-1.5,4-3.1,4.3-4.9c0-0.2,0.1-0.4,0.1-0.6c0-0.1,0-0.2,0-0.2
				c0-1.7-1-2.8-2.9-3.3c-0.2-0.1-0.4-0.1-0.7-0.2c0.2-0.2,0.4-0.4,0.5-0.6C40.8,1.5,40,0.3,37.8-1c-2.6-1.5-6.3-2.3-11-2.3
				c-4.7,0-8.3,0.6-10.8,2.1C13.8,0,13,1.3,13.6,2.5L13.6,2.5z M16.2,3c-0.6-1-0.1-2,1.6-3c2-1.2,5-1.8,8.9-1.7
				c3.9,0,6.9,0.7,9.1,1.9c1.7,1,2.2,2,1.6,2.9c-0.2,0.3-0.4,0.5-0.8,0.8h0c0.4,0,0.7,0.1,1,0.2c1.9,0.4,2.8,1.3,2.7,2.8
				c0,0.2,0,0.5-0.1,0.7c-0.4,1.4-1.5,2.7-3.5,3.8c-2.4,1.3-4.6,1.6-6.6,0.8c-1.2,1.2-3.1,1.8-5.6,1.8c-2.5,0-5.2-0.7-8-2.2
				c-2.3-1.2-3.7-2.5-4.1-3.8c-0.1-0.3-0.1-0.6-0.1-0.9c0.1-1.5,1.3-2.6,3.7-3.4c0.2-0.1,0.4-0.1,0.6-0.2c0,0,0,0,0,0
				C16.5,3.3,16.3,3.2,16.2,3z"/>
			<path id="Shape_89_" class="st39" d="M37.6,4.3c-0.3-0.1-0.6-0.1-1-0.2v1.8c2.1,0.2,3.3,1,3.6,2.2c0.1-0.3,0.1-0.5,0.1-0.8
				C40.3,5.7,39.4,4.7,37.6,4.3L37.6,4.3z M16.6,3.6c-0.2,0.1-0.4,0.1-0.6,0.2c-2.4,0.9-3.6,2.1-3.7,3.8c0,0.3,0,0.7,0.1,1
				c0.4-1.4,1.8-2.5,4.2-3.3c0,0,0,0,0,0L16.6,3.6z"/>
		</g>
		<g id="pepper-copy-2" transform="translate(71.000000, 66.000000)">
			<path id="Shape_88_" class="st37" d="M15.4-2c0,0.2,0,0.4-0.1,0.6C15,0.4,13.5,2.1,11,3.5c-2.1,1.2-4.1,1.8-6,1.7
				c-0.7,0-1.3-0.1-2-0.3C2.9,5,2.9,5,2.9,5c-1.5,1-3.7,1.6-6.7,1.7c-3,0.1-6.3-0.8-9.7-2.6c-2.9-1.5-4.6-3.1-5-4.8
				c-0.1-0.2-0.1-0.5-0.1-0.7v1.5c0,0,0,0.1,0,0.1c0,1.9,1.7,3.7,5.1,5.5c3.5,1.8,6.7,2.7,9.7,2.6c3-0.1,5.3-0.6,6.8-1.7
				c2.5,0.7,5.1,0.2,8-1.4c2.8-1.6,4.3-3.5,4.4-5.5c0-0.1,0-0.2,0-0.3c0,0,0,0,0,0L15.4-2L15.4-2z M-10.1-9c-1.7,1-2.3,2-1.6,3
				c0.3-0.5,0.8-0.9,1.6-1.4c2-1.2,5-1.8,8.9-1.7c3.9,0,6.9,0.7,9.1,1.9c0.8,0.5,1.3,0.9,1.6,1.4c0.6-1,0.1-2-1.6-2.9
				c-2.1-1.3-5.2-1.9-9.1-1.9C-5.1-10.8-8-10.2-10.1-9z"/>
			<path id="Shape_87_" class="st38" d="M-14.4-5.8c0.1,0.1,0.1,0.2,0.2,0.3c-0.1,0-0.2,0.1-0.4,0.1c-2.7,1-4,2.4-4.1,4.3
				c0,0,0,0.1,0,0.1c0,0,0,0.1,0,0.1v0c0,0.2,0,0.5,0.1,0.7c0.4,1.6,2.1,3.2,5,4.8c3.5,1.8,6.7,2.7,9.7,2.6c2.9-0.1,5.2-0.6,6.7-1.6
				c0,0,0.1,0,0.1-0.1c0.6,0.2,1.3,0.3,2,0.3c1.9,0.1,3.9-0.5,6-1.7c2.6-1.5,4-3.1,4.3-4.9c0-0.2,0.1-0.4,0.1-0.6c0-0.1,0-0.2,0-0.2
				c0-1.7-1-2.8-2.9-3.3C12.2-5,12-5,11.8-5.1c0.2-0.2,0.4-0.4,0.5-0.6c0.6-1.2-0.2-2.4-2.4-3.7c-2.6-1.5-6.3-2.3-11-2.3
				c-4.7,0-8.3,0.6-10.8,2.1C-14.1-8.3-15-7-14.4-5.8L-14.4-5.8z M-11.7-5.3c-0.6-1-0.1-2,1.6-3c2-1.2,5-1.8,8.9-1.7
				c3.9,0,6.9,0.7,9.1,1.9c1.7,1,2.2,2,1.6,2.9C9.3-4.9,9-4.7,8.7-4.4h0c0.4,0,0.7,0.1,1,0.2c1.9,0.4,2.8,1.3,2.7,2.8
				c0,0.2,0,0.5-0.1,0.7C12,0.6,10.8,1.9,8.8,3C6.4,4.4,4.2,4.6,2.2,3.8C1,5-0.9,5.6-3.4,5.6c-2.5,0-5.2-0.7-8-2.2
				c-2.3-1.2-3.7-2.5-4.1-3.8c-0.1-0.3-0.1-0.6-0.1-0.9c0.1-1.5,1.3-2.6,3.7-3.4c0.2-0.1,0.4-0.1,0.6-0.2c0,0,0,0,0,0
				C-11.5-5-11.6-5.2-11.7-5.3z"/>
			<path id="Shape_86_" class="st39" d="M9.7-4.1C9.4-4.1,9-4.2,8.7-4.2v1.8c2.1,0.2,3.3,1,3.6,2.2c0.1-0.3,0.1-0.5,0.1-0.8
				C12.4-2.6,11.5-3.6,9.7-4.1L9.7-4.1z M-11.3-4.7c-0.2,0.1-0.4,0.1-0.6,0.2c-2.4,0.9-3.6,2.1-3.7,3.8c0,0.3,0,0.7,0.1,1
				c0.4-1.4,1.8-2.5,4.2-3.3c0,0,0,0,0,0L-11.3-4.7z"/>
		</g>
	</g>
</g>
</svg>
