<?xml version="1.0" encoding="utf-8"?>
<!-- Generator: Adobe Illustrator 24.0.1, SVG Export Plug-In . SVG Version: 6.00 Build 0)  -->
<svg version="1.1" xmlns="http://www.w3.org/2000/svg" xmlns:xlink="http://www.w3.org/1999/xlink" x="0px" y="0px"
	 viewBox="0 0 225 159" style="enable-background:new 0 0 225 159;" xml:space="preserve">
<style type="text/css">
	.st0{fill:#010101;fill-opacity:0.2471;}
	.st1{fill:#68553A;}
	.st2{fill:#836948;}
	.st3{fill:#695233;}
	.st4{fill:#5F4B2E;}
	.st5{fill:#604D31;}
	.st6{fill:#625036;}
	.st7{fill:#6F552E;}
	.st8{fill:#5F4E36;}
	.st9{fill:#6F5A3D;}
	.st10{fill:#5C4C33;}
	.st11{fill:#685233;}
	.st12{fill:#5F4A2D;}
	.st13{fill:#5C482D;}
	.st14{fill:#57462D;}
	.st15{fill:#A17F55;}
	.st16{fill:#7E5E34;}
	.st17{fill:#987C57;}
	.st18{fill:#907046;}
	.st19{fill:#795A30;}
	.st20{fill:#8C6D46;}
	.st21{fill:#604A29;}
	.st22{fill:#705631;}
	.st23{fill:#FFD8A1;}
	.st24{fill:#E8C08A;}
	.st25{fill:#FFDC71;}
	.st26{fill:#DFBA86;}
	.st27{fill:#815F83;}
	.st28{fill:#937596;}
	.st29{fill:#EFEEEE;}
	.st30{fill:#CFD0D0;}
	.st31{fill:#736077;}
	.st32{fill:#957C99;}
	.st33{fill:#F1F0F0;}
	.st34{fill:#DFDFDE;}
	.st35{fill:#977A9B;}
	.st36{fill:#C19BC7;}
	.st37{fill:#B394B7;}
	.st38{fill:#C6C5C5;}
	.st39{fill:#56AB46;}
	.st40{fill:#918778;}
	.st41{fill:#C6C1B7;}
	.st42{fill:#B4ADA3;}
	.st43{fill:#706B60;}
	.st44{fill:#C8C4BB;}
	.st45{fill:#F7F1E6;}
	.st46{fill:#CAA28A;}
	.st47{fill:#B66F46;}
	.st48{fill:#C68660;}
	.st49{fill:#F9E2D6;}
	.st50{fill:#BF9073;}
	.st51{fill:#AF8266;}
	.st52{fill:#D2B6A5;}
	.st53{fill:#B17F5F;}
	.st54{fill:#EECCB6;}
	.st55{fill:#C48863;}
	.st56{fill:#74B568;}
	.st57{fill:#4D7637;}
	.st58{fill:#86B65A;}
	.st59{fill:#B5DA99;}
</style>
<g id="Layer_1">
	<title>Artboard</title>
	<desc>Created with Sketch.</desc>
	<g id="Page-1">
		<g id="Artboard">
			<g id="board" transform="translate(1.000000, 14.000000)">
				<g id="Group" transform="translate(2.000000, 47.000000)">
					<g id="people_0_Layer22_0_FILL">
						<g>
							<path id="Shape" class="st0" d="M0.1,81.6c2,3,3.4,4.9,4.1,5.7c0.5,0.5,1,1,1.6,1.5c1.2,1,2.8,2.1,4.6,3.1
								c0.3,0.2,0.7,0.4,1.1,0.6c0.6,0.3,1.2,0.6,1.8,0.9c1.7,0.8,3.5,1.5,5.3,2c0.3,0.1,0.6,0.2,0.9,0.3c2.5,0.7,4.6,0.9,6.3,0.7
								c1.8-0.2,4.6-1.5,8.4-3.8c2.8-1.8,6.2-4.1,10.2-7.1c2.9-2.1,5.8-4.5,8.9-7l3.8-3.2c4.4-2,9.4-3,15.2-3c1.1,0,2.2,0,3.3,0.1
								c2.6,0.2,5,0.6,7.3,1.3l0.3,0.1c0,0,0.1,0,0.2,0.1l0.4,0.1c3.5,1,7.1,1.9,10.7,2.7c0.9,0.2,1.8,0.4,2.7,0.5
								c4.6,0.8,9.5,1.5,14.4,1.9c3.9,0.3,7.9,0.5,12.1,0.6c0.7,0,1.4,0,2.2,0c6.2,0,12.2-0.3,17.9-0.9c3-0.3,5.9-0.7,8.8-1.2
								c6.9-1.1,13.4-2.7,19.7-4.8c7.2-2.4,14-5.4,20.4-9c6.2-3.5,11.4-7.2,15.6-11.2c0.4-0.4,0.8-0.8,1.2-1.2
								c3.3-3.3,5.9-6.8,7.8-10.4c0.7-1.3,1.3-2.6,1.8-3.9c0.6-1.6,1.1-3.1,1.5-4.8c0.5-2,0.7-4,0.9-6.1c0-0.2,0-0.5,0-0.7
								c0-0.1,0-0.3,0-0.4v-0.1c0-0.5,0-1,0-1.5l-5.2-23.3l-1.4,12.6L0.1,81.6z"/>
						</g>
					</g>
				</g>
				<g id="Group_1_">
					<g id="people_0_Layer21_4_FILL">
						<g>
							<path id="Shape_1_" class="st1" d="M218.8,53.9c0,0.1,0,0.2,0,0.3c-0.1,2-0.3,3.9-0.7,5.8c-0.3,1.7-0.8,3.3-1.4,4.9
								c-0.1,0.3-0.2,0.6-0.3,0.8c-0.5,1.3-1.1,2.6-1.8,3.9c0,0,0,0,0,0V82c0.7-1.3,1.3-2.6,1.8-3.9c0.6-1.6,1.1-3.1,1.5-4.8
								c0.5-2,0.7-4,0.9-6.1c0-0.2,0-0.5,0-0.7c0-0.1,0-0.3,0-0.4v-0.1c0-0.5,0-1,0-1.5V53.9L218.8,53.9z M7.9,120.6
								c-0.1-0.1-0.2-0.1-0.3-0.2c-1.6-0.9-3-1.9-4.2-2.8l-0.1,12.3c1.2,1,2.8,2.1,4.6,3.1c0.3,0.2,0.7,0.4,1.1,0.6
								c0.6,0.3,1.2,0.6,1.8,0.9L10.6,122C9.7,121.5,8.8,121.1,7.9,120.6L7.9,120.6z M32.9,65.5c-0.4-1.1-0.6-2.2-0.9-3.3
								c0,0,0-0.1,0-0.1c-0.3-1.7-0.6-3.4-0.6-5.1l0,11.7c0,0.2,0,0.4,0,0.6c0,0.1,0,0.1,0,0.2c0,4,0.7,7.8,2.1,11.5
								c0.7,1.9,1.6,3.8,2.7,5.7c0.3,0.6,0.7,1.1,1.1,1.7c0.4,0.5,0.7,1.1,1.1,1.6l-0.6-14.8C35.6,72.1,34,68.8,32.9,65.5z"/>
							<path id="Shape_2_" class="st2" d="M218.8,53.9v-0.2c0-0.1,0-0.2,0-0.3l-97.8,54.9c0.7,0,1.4,0,2.2,0
								c6.1,0,12.1-0.3,17.8-0.9l75.4-42.3l0.3-0.2c0.6-1.6,1-3.2,1.4-4.9c0.4-1.9,0.6-3.8,0.7-5.8C218.8,54.1,218.8,54,218.8,53.9
								L218.8,53.9z M50.7,107.1l3.8-3.2c4.4-2,9.4-3,15.2-3c1.1,0,2.2,0,3.3,0.1l131.6-76.7c-1.6-1.4-3.3-2.8-5.2-4.1l-182.8,104
								c0,0,0.1,0,0.1,0c2.5,0.7,4.7,1,6.4,0.8c0,0,0.1,0,0.1,0c3.2-0.4,9.4-4.1,18.6-10.9C44.6,111.9,47.6,109.6,50.7,107.1
								L50.7,107.1z M37.8,34.9c-0.8,1.2-1.6,2.5-2.3,3.7L99.4,2.2c0,0,0,0-0.1,0c-14.5,2.5-27.6,7-39.2,13.6
								C50,21.5,42.6,27.9,37.8,34.9L37.8,34.9z M173,6.9c-3.8-1.3-7.6-2.4-11.6-3.3L37.7,75.1c0,0,0,0.1,0.1,0.1
								c0.6,0.8,1.2,1.7,1.9,2.5l2.1,2.4c0.6,1,1.1,2,1.3,3.1L173,6.9L173,6.9z M206.8,80v-0.2l-37.5,21.7
								c7.4-2.4,14.3-5.4,20.8-9.1c6.2-3.5,11.4-7.2,15.6-11.2C206,80.8,206.4,80.4,206.8,80z"/>
							<path id="Shape_3_" class="st3" d="M16.5,124.2c-0.2-0.1-0.4-0.1-0.6-0.2c-1.8-0.5-3.6-1.2-5.4-2.1l0.1,12.4
								c1.7,0.8,3.5,1.5,5.3,2c0.3,0.1,0.6,0.2,0.9,0.3L16.5,124.2z"/>
							<path id="Shape_4_" class="st4" d="M3.4,117.6c-0.6-0.5-1.2-1.1-1.7-1.6c-1-1.1-1.5-2-1.7-2.9c0,0,0,0,0-0.1l0,12.7
								c0.2,0.8,0.8,1.7,1.6,2.6c0.5,0.5,1,1,1.6,1.5L3.4,117.6z"/>
							<path id="Shape_5_" class="st5" d="M141.2,119.7l-0.1-12.4c-5.7,0.6-11.7,0.9-17.8,0.9c-0.7,0-1.5,0-2.2,0l0,12.4
								c0.7,0,1.4,0,2.2,0C129.4,120.6,135.4,120.3,141.2,119.7z"/>
							<path id="Shape_6_" class="st6" d="M150,106.2l0,12.4c6.9-1.1,13.4-2.7,19.7-4.8l-0.3-12.3C163.1,103.5,156.7,105,150,106.2z
								"/>
							<path id="Shape_7_" class="st7" d="M150,106.2c-2.9,0.5-5.9,0.9-8.9,1.2l0.1,12.4c3-0.3,5.9-0.7,8.8-1.2L150,106.2z"/>
							<path id="Shape_8_" class="st8" d="M91.9,117.6l-0.1-12.4c-3.7-0.7-7.2-1.6-10.6-2.7l-0.4-0.1c-0.1,0-0.1,0-0.2-0.1l-0.3-0.1
								c-2.3-0.7-4.7-1.1-7.4-1.3l0.1,12.4c2.6,0.2,5,0.6,7.3,1.3l0.3,0.1c0,0,0.1,0,0.2,0.1l0.4,0.1
								C84.6,116,88.2,116.9,91.9,117.6z"/>
							<path id="Shape_9_" class="st9" d="M108.9,107.6l0.1,12.4c3.9,0.3,7.9,0.5,12.1,0.6l0-12.4
								C116.9,108.1,112.9,108,108.9,107.6z"/>
							<path id="Shape_10_" class="st10" d="M109.1,120l-0.1-12.4c-4.9-0.4-9.7-1-14.3-1.9l0,12.4C99.3,119,104.1,119.6,109.1,120z"
								/>
							<path id="Shape_11_" class="st11" d="M94.6,105.7c-0.9-0.2-1.9-0.4-2.8-0.5l0.1,12.4c0.9,0.2,1.8,0.4,2.7,0.5L94.6,105.7z"/>
							<path id="Shape_12_" class="st12" d="M25.5,114.2c0-0.2,0-0.5-0.1-0.7c-0.1-0.2-0.1-0.5-0.3-0.7c-0.3-0.6-0.9-1.1-1.6-1.5
								c-1.3-0.8-3-1.2-4.9-1.2c-1,0-1.9,0.1-2.7,0.3c-0.8,0.2-1.6,0.5-2.3,0.9c-0.7,0.4-1.3,0.9-1.6,1.4c-0.3,0.5-0.5,1-0.5,1.5
								c-0.1,1.1,0.6,2.1,1.9,2.9c0.2,0.1,0.4,0.2,0.7,0.4c0.9,0.4,2,0.7,3.2,0.8c0.4,0,0.7,0,1.1,0c1.9,0,3.6-0.4,5-1.2
								C24.7,116.2,25.5,115.3,25.5,114.2z"/>
							<path id="Shape_13_" class="st13" d="M54.5,103.9l-3.8,3.2c-3.1,2.5-6.1,4.9-8.9,7c-9.1,6.9-15.3,10.5-18.6,10.9
								c0,0-0.1,0-0.1,0c-1.7,0.2-3.9-0.1-6.4-0.8c0,0-0.1,0-0.1,0l0.4,12.5c2.5,0.7,4.6,0.9,6.3,0.7c1.8-0.2,4.6-1.5,8.4-3.8
								c2.8-1.8,6.2-4.1,10.2-7.1c2.9-2.1,5.8-4.5,8.9-7l3.8-3.2c4.4-2,9.4-3,15.2-3c1.1,0,2.2,0,3.3,0.1L72.9,101
								c-1.1-0.1-2.2-0.1-3.3-0.1C63.9,100.9,58.8,101.9,54.5,103.9z"/>
							<path id="Shape_14_" class="st14" d="M39.7,77.7c-0.7-0.8-1.3-1.6-1.9-2.5c0,0,0-0.1-0.1-0.1L38.4,90
								c0.4,0.6,0.8,1.1,1.3,1.7c0.2,0.1,0.3,0.3,0.5,0.4c1.5-1.5,2.5-3.2,2.9-4.9c0.1-0.6,0.2-1.2,0.2-1.8c0-0.7,0-1.5-0.2-2.2
								c-0.2-1.1-0.7-2.1-1.3-3.1L39.7,77.7z"/>
							<path id="Shape_15_" class="st15" d="M109.3,0.9c-3.3,0.3-6.6,0.8-9.8,1.3L35.5,38.6c-1,1.8-1.8,3.7-2.4,5.6L109.3,0.9
								L109.3,0.9z M161.3,3.6c-4.9-1.1-10-2-15.2-2.6L32.9,65.5c1.1,3.3,2.7,6.5,4.8,9.6L161.3,3.6L161.3,3.6z M218.8,52.5
								c0-2.2-0.3-4.4-0.7-6.5l-109.2,61.7c3.9,0.3,8,0.5,12.2,0.6l97.8-54.9c0-0.2,0-0.3,0-0.4V52.5L218.8,52.5z M205.6,25.4
								c-0.4-0.3-0.8-0.7-1.1-1L72.9,101c2.6,0.2,5.1,0.6,7.4,1.3l0.3,0.1c0,0,0.1,0,0.2,0.1l0.4,0.1c3.4,1,7,1.9,10.6,2.7l122-70
								c-0.7-1.1-1.4-2.2-2.2-3.3C209.9,29.6,207.9,27.5,205.6,25.4z"/>
							<path id="Shape_16_" class="st16" d="M186.3,12.5c-2.9-1.5-6-2.8-9.1-4L43,87.1c-0.4,1.8-1.4,3.4-2.9,4.9c0,0,0,0-0.1,0.1
								c-0.3,0.3-0.6,0.6-1,0.9c-0.6,0.5-1.2,0.9-1.9,1.4l-5.4,2c-4.4,1.6-8.4,3.2-12.2,4.7C7.7,106,1.2,109.5,0.2,111.6
								c-0.1,0.2-0.1,0.4-0.2,0.6c0,0,0,0,0,0.1c0,0.3,0,0.5,0,0.8v0c0,0,0,0,0,0.1c0.2,0.9,0.7,1.8,1.7,2.9c0.5,0.5,1,1.1,1.7,1.6
								l8.6-4.9c0.3-0.5,0.9-1,1.6-1.4c0.7-0.4,1.5-0.7,2.3-0.9L186.3,12.5L186.3,12.5z M216.4,65.7v-0.7l-75.4,42.3
								c3-0.3,6-0.7,8.9-1.2l64.7-36.5C215.3,68.3,215.9,67,216.4,65.7L216.4,65.7z M214.5,36.4c-0.2-0.4-0.5-0.8-0.7-1.2l-122,70
								c0.9,0.2,1.9,0.4,2.8,0.5L214.5,36.4z"/>
							<path id="Shape_17_" class="st17" d="M194.4,17c-0.6-0.4-1.2-0.7-1.8-1.1c-2.1-1.2-4.2-2.4-6.3-3.4L15.9,110.4
								c0.8-0.2,1.8-0.3,2.7-0.3c1.9,0,3.6,0.4,4.9,1.2c0.8,0.5,1.3,1,1.6,1.5c0.1,0.2,0.2,0.4,0.3,0.7L194.4,17L194.4,17z M126.9,0
								c-0.9,0-1.7,0-2.6,0L31.4,53.7l0,3.2c0.1,1.7,0.3,3.5,0.6,5.1L140.4,0.5C136,0.2,131.6,0,126.9,0z"/>
							<path id="Shape_18_" class="st18" d="M199.3,20.2c-0.3-0.2-0.6-0.4-0.9-0.6c-1.3-0.9-2.6-1.8-4-2.6l-169,96.5
								c0.1,0.2,0.1,0.4,0.1,0.7c0,1.1-0.8,2.1-2.2,2.9c-1.4,0.8-3.1,1.2-5,1.2c-0.4,0-0.8,0-1.1,0c-1.2-0.1-2.2-0.4-3.2-0.8
								c-0.2-0.1-0.5-0.2-0.7-0.4c-1.3-0.8-2-1.8-1.9-2.9c0-0.5,0.2-1,0.5-1.5l-8.6,4.9c1.1,0.9,2.5,1.9,4.2,2.8
								c0.1,0.1,0.2,0.1,0.3,0.2c0.9,0.5,1.8,1,2.7,1.4c1.8,0.8,3.6,1.5,5.4,2.1c0.2,0.1,0.4,0.1,0.6,0.2L199.3,20.2L199.3,20.2z
								 M177.2,8.5c-1.4-0.5-2.8-1.1-4.3-1.5L43.1,83.2c0.1,0.7,0.2,1.4,0.2,2.2c0,0.6-0.1,1.2-0.2,1.8L177.2,8.5L177.2,8.5z
								 M124.4,0c-1.2,0-2.3,0-3.5,0.1c-3,0.1-5.9,0.3-8.8,0.5c-0.9,0.1-1.9,0.2-2.8,0.3L33.2,44.1c-1,3-1.6,6.1-1.7,9.3v0.3
								L124.4,0L124.4,0z M214.6,69.7C214.6,69.6,214.6,69.6,214.6,69.7L150,106.2c6.7-1.1,13.2-2.7,19.3-4.7l37.5-21.7V80
								c0.2-0.2,0.4-0.4,0.6-0.6C210.4,76.3,212.8,73.1,214.6,69.7L214.6,69.7z M216.4,65.1v0.7c0.1-0.3,0.2-0.5,0.3-0.8L216.4,65.1
								z"/>
							<path id="Shape_19_" class="st19" d="M141.6,0.6c-0.4,0-0.8-0.1-1.2-0.1L32,62.1c0,0,0,0.1,0,0.1c0.2,1.1,0.5,2.2,0.9,3.3
								L146.1,1C144.6,0.9,143.1,0.7,141.6,0.6z"/>
							<path id="Shape_20_" class="st20" d="M218.1,46c-0.7-3.3-1.9-6.5-3.6-9.5L94.6,105.7c4.6,0.8,9.4,1.5,14.3,1.9L218.1,46z"/>
							<path id="Shape_21_" class="st21" d="M205.6,93.6c0.4-0.4,0.8-0.8,1.2-1.2V80c-0.4,0.4-0.8,0.8-1.2,1.2
								c-4.2,4-9.4,7.7-15.6,11.2c-6.5,3.7-13.4,6.7-20.8,9.1l0.3,12.3c7.2-2.4,14-5.4,20.4-9C196.2,101.3,201.4,97.6,205.6,93.6z"
								/>
							<path id="Shape_22_" class="st22" d="M207.4,79.5c-0.2,0.2-0.4,0.4-0.6,0.6v12.4c3.3-3.3,5.9-6.8,7.8-10.4V69.7
								C212.8,73.1,210.4,76.3,207.4,79.5z"/>
						</g>
					</g>
				</g>
			</g>
			<g id="base" transform="translate(38.000000, 6.000000)">
				<path id="Shape_23_" class="st23" d="M175.5,53.3c0.2-1.2,0.3-2.3,0.3-3.5c0,0,0-0.1,0-0.1v-0.2c0-0.4,0-0.8,0-1.2
					c0-13.2-8.1-24.3-24.2-33.5C134.9,5.2,114.4,0.6,90.2,1C65.9,1.4,45,6.6,27.4,16.7C9.8,26.7,0.7,38.7,0,52.5c0,0.6,0,1.1,0,1.7
					v0.6c0,1.4,0.2,2.7,0.4,4C2.1,70,10.1,79.5,24.2,87.6c16.7,9.5,37.2,14.1,61.5,13.7c24.3-0.4,45.2-5.6,62.8-15.7
					C164.6,76.4,173.6,65.7,175.5,53.3L175.5,53.3z M167.8,47.8c0,0.7,0,1.4,0,2.1c0,0.4,0,0.8-0.1,1.2c-1,11.4-9.3,21.2-24.7,29.6
					c-16,8.6-35,13.1-57.1,13.4c-22,0.3-40.7-3.6-55.9-11.8C16.5,75.1,9.2,66.3,8.2,56c-0.1-0.9-0.1-1.8-0.1-2.8c0-0.3,0-0.6,0-0.9
					c0.3-6.6,3-12.7,8-18.2c4.1-4.5,9.7-8.7,16.8-12.5c16-8.6,35-13.1,57-13.4c22.1-0.3,40.7,3.6,55.9,11.8
					c5.4,2.9,9.8,6.1,13.2,9.4C164.7,34.9,167.6,41,167.8,47.8z"/>
				<path id="Shape_24_" class="st24" d="M145.8,22.4c5.4,2.9,9.8,6.1,13.2,9.4c4.8,4.8,7.8,10.1,8.7,16c-0.2-6.8-3.1-13-8.7-18.5
					c-3.4-3.4-7.8-6.5-13.2-9.4C130.6,11.7,112,7.8,90,8.1c-22.1,0.3-41.1,4.8-57,13.4c-7.1,3.9-12.7,8-16.8,12.5
					c-5,5.6-7.7,11.7-8,18.2c0,0.3,0,0.6,0,0.9c0.8-6.1,3.5-11.6,8.1-16.7c4.1-4.5,9.7-8.7,16.8-12.5c16-8.6,35-13.1,57-13.4
					C112,10.3,130.6,14.2,145.8,22.4z"/>
				<path id="Shape_25_" class="st25" d="M167.8,50c0-0.7,0-1.4,0-2.1c-1-5.9-3.9-11.2-8.7-16c-3.4-3.4-7.8-6.5-13.2-9.4
					C130.6,14.2,112,10.3,90,10.6c-22.1,0.3-41.1,4.8-57,13.4c-7.1,3.9-12.7,8-16.8,12.5c-4.5,5-7.2,10.6-8.1,16.7
					c0,0.9,0,1.8,0.1,2.8c1,10.3,8.3,19.1,21.9,26.4c15.2,8.2,33.8,12.1,55.9,11.8C108,93.9,127,89.4,143,80.8
					c15.4-8.3,23.7-18.2,24.7-29.6C167.7,50.8,167.7,50.4,167.8,50z"/>
				<path id="Shape_26_" class="st26" d="M175.8,49.8c-0.1,1.2-0.2,2.4-0.3,3.5c-1.9,12.4-10.9,23.1-27,32.3
					c-17.6,10.1-38.5,15.3-62.8,15.7c-24.3,0.4-44.8-4.2-61.5-13.7C10.1,79.5,2.1,70,0.4,58.8c-0.2-1.3-0.3-2.7-0.4-4v8.5
					c0,0.3,0,0.6,0,0.9c0.2,13,8.3,24.1,24.2,33.2c16.7,9.5,37.2,14.1,61.5,13.7c24.3-0.4,45.2-5.6,62.8-15.7
					c17.6-10.1,26.7-22,27.3-35.9c0-0.2,0-0.4,0-0.6c0-0.7,0-1.3,0-2v-7.4C175.9,49.7,175.8,49.7,175.8,49.8z"/>
			</g>
		</g>
	</g>
</g>
<g id="Layer_2">
	<g id="Page-1_1_">
		<g id="Artboard_1_">
			<g id="onion" transform="translate(88.000000, 66.000000)">
				<g id="Group_7_" transform="translate(0.275000, 0.276923)">
					<g id="people_0_Layer11_6_FILL">
						<g>
							<path id="Shape_105_" class="st27" d="M-18.5,2.6v1.1c0.1,0.2,0.3,0.4,0.5,0.6V3.2C-18.2,3-18.4,2.8-18.5,2.6L-18.5,2.6z
								 M-15.7,5C-15.7,5-15.7,5-15.7,5c-0.3-0.2-0.5-0.3-0.7-0.5v1.1c0.2,0.1,0.5,0.3,0.7,0.4c0,0,0,0,0,0V5L-15.7,5z M-15.1,5.3
								c0,0-0.1,0-0.1-0.1v1.1c0,0,0.1,0,0.1,0.1V5.3L-15.1,5.3z M-16.9,4.3c-0.3-0.2-0.5-0.4-0.7-0.6v1.1c0.2,0.2,0.4,0.4,0.7,0.6
								V4.3L-16.9,4.3z M-19.2,0.4v0.9c0,0,0,0,0,0c0,0.6,0.1,1.1,0.3,1.7l0-1.1c-0.1-0.4-0.2-0.7-0.3-1.1
								C-19.2,0.7-19.2,0.5-19.2,0.4z"/>
							<path id="Shape_104_" class="st28" d="M-18.9,3c0.1,0.2,0.2,0.4,0.4,0.7V2.6c-0.1-0.2-0.2-0.4-0.3-0.6L-18.9,3L-18.9,3z
								 M-15.2,5.3c-0.2-0.1-0.3-0.2-0.5-0.3v1.1c0.2,0.1,0.3,0.2,0.5,0.3V5.3L-15.2,5.3z M-17.6,4.8V3.7c-0.1-0.1-0.3-0.3-0.4-0.4
								v1.1C-17.9,4.5-17.8,4.6-17.6,4.8L-17.6,4.8z M-16.9,4.3v1.1c0.1,0.1,0.3,0.2,0.5,0.3V4.6C-16.6,4.5-16.7,4.4-16.9,4.3z"/>
							<path id="Shape_103_" class="st29" d="M-13.6,5.6L-13.6,5.6L-13.6,5.6l0.1-0.1L-13.6,5.6L-13.6,5.6z M0.4-3.8L0.4-3.8
								L0.4-3.8l0.8-0.4C1.1-4.3,1.1-4.3,1-4.3c-2.3-1.3-5-1.9-8.2-1.9c-3.2,0-6,0.6-8.2,1.9c-2,1.1-3.2,2.4-3.4,4
								c0,0.2-0.1,0.4-0.1,0.6c0,1.8,1.1,3.3,3.4,4.6c0.2,0.1,0.5,0.3,0.7,0.4l0,0v0l0.8-0.4l0,0c0,0,0,0,0,0c0,0,0,0-0.1,0
								c-0.3-0.1-0.6-0.3-0.9-0.4c-0.3-0.2-0.6-0.3-0.9-0.5c-1.5-1-2.3-2.2-2.3-3.5c0-1.6,1.1-2.9,3.2-4c0.5-0.2,0.9-0.5,1.4-0.6
								c1.8-0.7,3.9-1,6.3-1c2.2,0,4.2,0.3,6,0.9C-0.6-4.3-0.1-4.1,0.4-3.8z"/>
							<path id="Shape_102_" class="st30" d="M-14.8,5.1L-14.8,5.1v1.1l0.8-0.5V4.7L-14.8,5.1L-14.8,5.1z M-13.6,4.5L-13.6,4.5v1
								l0.1-0.1l0.9-0.5V4L-13.6,4.5z"/>
							<path id="Shape_101_" class="st31" d="M-14.8,5.2l-0.4,0.2v1.1c0,0,0,0,0,0l0.3-0.2L-14.8,5.2L-14.8,5.2z"/>
							<polygon id="Shape_100_" class="st32" points="-13.6,4.6 -13.9,4.7 -14,4.7 -14,5.8 -13.7,5.6 -13.6,5.6 -13.6,4.6 							
								"/>
							<path id="Shape_99_" class="st33" d="M0.3-2.6L0.3-2.6l0.2-0.1L0.4-2.7L0.3-2.6L0.3-2.6z M-0.7-3.1l0.9-0.5
								c-2-1-4.5-1.5-7.3-1.5c-2.9,0-5.4,0.5-7.5,1.6c-2.1,1.1-3.1,2.3-3.1,3.8c0,0.9,0.4,1.8,1.2,2.5c0.5,0.5,1.1,0.9,1.9,1.3
								c0.2,0.1,0.5,0.2,0.8,0.4c0.1,0.1,0.2,0.1,0.4,0.2l0,0v0l1-0.5c-0.4-0.1-0.9-0.3-1.3-0.5c-0.1,0-0.2-0.1-0.2-0.1
								c-1.5-0.7-2.4-1.5-2.7-2.5c0-0.1,0-0.1-0.1-0.2c0-0.2,0-0.3,0-0.5c0-1.3,1-2.3,2.9-3.2c1.9-0.9,4.2-1.3,6.8-1.3
								C-4.7-4.3-2.5-3.9-0.7-3.1z"/>
							<path id="Shape_98_" class="st34" d="M0.3-2.6L0.1-2.5L-0.7-2v-1.2c-1.8-0.8-3.9-1.2-6.4-1.2c-2.7,0-5,0.4-6.8,1.3
								c-1.9,0.9-2.9,2-2.9,3.2c0,0.2,0,0.4,0,0.5c0.4-1,1.4-1.9,2.8-2.6c1.9-0.9,4.2-1.3,6.8-1.3c2.5,0,4.6,0.4,6.4,1.2l0,0h0
								L0.3-2.6L0.3-2.6L0.3-2.6z"/>
							<path id="Shape_97_" class="st35" d="M1.2-3.1l0.3-0.2v-1.1L1.2-4.2v0V-3.1L1.2-3.1z M0.4-3.8L0.4-3.8L0.1-3.6v1.1l0.2-0.1
								l0.1-0.1V-3.8z"/>
							<path id="Shape_96_" class="st36" d="M1-4.3c0.1,0,0.1,0.1,0.2,0.1c0,0,0,0,0,0v0l0.3-0.2c-0.1,0-0.2-0.1-0.2-0.1
								c-2.3-1.3-5.1-2-8.4-2c-3.3,0-6.1,0.6-8.5,2s-3.5,2.9-3.6,4.8c0,0,0,0,0,0v0.2c0,0.1,0,0.3,0,0.4c0.1,0.4,0.2,0.7,0.3,1.1
								c0.1,0.2,0.2,0.4,0.3,0.6c0.1,0.2,0.3,0.4,0.5,0.6c0.1,0.2,0.3,0.3,0.4,0.4c0.2,0.2,0.4,0.4,0.7,0.6c0.1,0.1,0.3,0.2,0.5,0.3
								c0.2,0.1,0.5,0.3,0.7,0.4c0,0,0,0,0,0c0.2,0.1,0.3,0.2,0.5,0.3c0,0,0.1,0,0.1,0.1l0.4-0.2C-15,5-15.3,4.9-15.5,4.8
								c-2.3-1.3-3.4-2.8-3.4-4.6c0-0.2,0-0.4,0.1-0.6c0.2-1.5,1.4-2.8,3.4-4c2.3-1.3,5-1.9,8.2-1.9C-3.9-6.2-1.2-5.6,1-4.3z"/>
							<path id="Shape_95_" class="st37" d="M0.1-3.6l0.3-0.2c-0.5-0.3-1.1-0.5-1.6-0.7c-1.7-0.6-3.7-0.9-6-0.9
								c-2.4,0-4.4,0.3-6.3,1c-0.5,0.2-1,0.4-1.4,0.6C-17-2.7-18-1.4-18,0.2c0,1.3,0.7,2.5,2.3,3.5c0.3,0.2,0.5,0.3,0.9,0.5
								c0.3,0.2,0.6,0.3,0.9,0.4c0,0,0,0,0.1,0c0,0,0,0,0,0l0.4-0.2c-0.1-0.1-0.3-0.1-0.4-0.2c-0.3-0.1-0.5-0.2-0.8-0.4
								c-0.8-0.4-1.4-0.8-1.9-1.3c-0.8-0.8-1.2-1.6-1.2-2.5c0-1.5,1.1-2.8,3.1-3.8c2.1-1,4.6-1.6,7.5-1.6C-4.3-5.2-1.9-4.7,0.1-3.6z
								"/>
							<path id="Shape_94_" class="st38" d="M0.1-3.6l-0.9,0.5V-2l0.9-0.5V-3.6L0.1-3.6z M0.4-3.8L0.4-3.8v1.1l0.1-0.1l0.7-0.4v-1.1
								c0,0,0,0,0,0L0.4-3.8z"/>
						</g>
					</g>
				</g>
				<path id="Shape_93_" class="st39" d="M-4.6,8.7C-4.5,8.9-4.3,9-4.1,9.1C-3.7,9.2-3.6,8.6-4,8.5c0,0-0.1,0-0.1-0.1
					C-4.3,8.1-4.8,8.4-4.6,8.7L-4.6,8.7z"/>
			</g>
			<g id="onion-copy" transform="translate(130.000000, 68.000000)">
				<g id="Group_6_" transform="translate(0.275000, 0.276923)">
					<g id="people_0_Layer11_6_FILL_1_">
						<g>
							<path id="Shape_92_" class="st27" d="M-18.5,2.6v1.1c0.1,0.2,0.3,0.4,0.5,0.6V3.2C-18.2,3-18.4,2.8-18.5,2.6L-18.5,2.6z
								 M-15.7,5C-15.7,5-15.7,5-15.7,5c-0.3-0.2-0.5-0.3-0.7-0.5v1.1c0.2,0.1,0.5,0.3,0.7,0.4c0,0,0,0,0,0V5L-15.7,5z M-15.1,5.3
								c0,0-0.1,0-0.1-0.1v1.1c0,0,0.1,0,0.1,0.1V5.3L-15.1,5.3z M-16.9,4.3c-0.3-0.2-0.5-0.4-0.7-0.6v1.1c0.2,0.2,0.4,0.4,0.7,0.6
								V4.3L-16.9,4.3z M-19.2,0.4v0.9c0,0,0,0,0,0c0,0.6,0.1,1.1,0.3,1.7l0-1.1c-0.1-0.4-0.2-0.7-0.3-1.1
								C-19.2,0.7-19.2,0.5-19.2,0.4z"/>
							<path id="Shape_91_" class="st28" d="M-18.9,3c0.1,0.2,0.2,0.4,0.4,0.7V2.6c-0.1-0.2-0.2-0.4-0.3-0.6L-18.9,3L-18.9,3z
								 M-15.2,5.3c-0.2-0.1-0.3-0.2-0.5-0.3v1.1c0.2,0.1,0.3,0.2,0.5,0.3V5.3L-15.2,5.3z M-17.6,4.8V3.7c-0.1-0.1-0.3-0.3-0.4-0.4
								v1.1C-17.9,4.5-17.8,4.6-17.6,4.8L-17.6,4.8z M-16.9,4.3v1.1c0.1,0.1,0.3,0.2,0.5,0.3V4.6C-16.6,4.5-16.7,4.4-16.9,4.3z"/>
							<path id="Shape_90_" class="st29" d="M-13.6,5.6L-13.6,5.6L-13.6,5.6l0.1-0.1L-13.6,5.6L-13.6,5.6z M0.4-3.8L0.4-3.8L0.4-3.8
								l0.8-0.4C1.1-4.3,1.1-4.3,1-4.3c-2.3-1.3-5-1.9-8.2-1.9c-3.2,0-6,0.6-8.2,1.9c-2,1.1-3.2,2.4-3.4,4c0,0.2-0.1,0.4-0.1,0.6
								c0,1.8,1.1,3.3,3.4,4.6c0.2,0.1,0.5,0.3,0.7,0.4l0,0v0l0.8-0.4l0,0c0,0,0,0,0,0c0,0,0,0-0.1,0c-0.3-0.1-0.6-0.3-0.9-0.4
								c-0.3-0.2-0.6-0.3-0.9-0.5c-1.5-1-2.3-2.2-2.3-3.5c0-1.6,1.1-2.9,3.2-4c0.5-0.2,0.9-0.5,1.4-0.6c1.8-0.7,3.9-1,6.3-1
								c2.2,0,4.2,0.3,6,0.9C-0.6-4.3-0.1-4.1,0.4-3.8z"/>
							<path id="Shape_89_" class="st30" d="M-14.8,5.1L-14.8,5.1v1.1l0.8-0.5V4.7L-14.8,5.1L-14.8,5.1z M-13.6,4.5L-13.6,4.5v1
								l0.1-0.1l0.9-0.5V4L-13.6,4.5z"/>
							<path id="Shape_88_" class="st31" d="M-14.8,5.2l-0.4,0.2v1.1c0,0,0,0,0,0l0.3-0.2L-14.8,5.2L-14.8,5.2z"/>
							<polygon id="Shape_87_" class="st32" points="-13.6,4.6 -13.9,4.7 -14,4.7 -14,5.8 -13.7,5.6 -13.6,5.6 -13.6,4.6 							"/>
							<path id="Shape_86_" class="st33" d="M0.3-2.6L0.3-2.6l0.2-0.1L0.4-2.7L0.3-2.6L0.3-2.6z M-0.7-3.1l0.9-0.5
								c-2-1-4.5-1.5-7.3-1.5c-2.9,0-5.4,0.5-7.5,1.6c-2.1,1.1-3.1,2.3-3.1,3.8c0,0.9,0.4,1.8,1.2,2.5c0.5,0.5,1.1,0.9,1.9,1.3
								c0.2,0.1,0.5,0.2,0.8,0.4c0.1,0.1,0.2,0.1,0.4,0.2l0,0v0l1-0.5c-0.4-0.1-0.9-0.3-1.3-0.5c-0.1,0-0.2-0.1-0.2-0.1
								c-1.5-0.7-2.4-1.5-2.7-2.5c0-0.1,0-0.1-0.1-0.2c0-0.2,0-0.3,0-0.5c0-1.3,1-2.3,2.9-3.2c1.9-0.9,4.2-1.3,6.8-1.3
								C-4.7-4.3-2.5-3.9-0.7-3.1z"/>
							<path id="Shape_85_" class="st34" d="M0.3-2.6L0.1-2.5L-0.7-2v-1.2c-1.8-0.8-3.9-1.2-6.4-1.2c-2.7,0-5,0.4-6.8,1.3
								c-1.9,0.9-2.9,2-2.9,3.2c0,0.2,0,0.4,0,0.5c0.4-1,1.4-1.9,2.8-2.6c1.9-0.9,4.2-1.3,6.8-1.3c2.5,0,4.6,0.4,6.4,1.2l0,0h0
								L0.3-2.6L0.3-2.6L0.3-2.6z"/>
							<path id="Shape_84_" class="st35" d="M1.2-3.1l0.3-0.2v-1.1L1.2-4.2v0V-3.1L1.2-3.1z M0.4-3.8L0.4-3.8L0.1-3.6v1.1l0.2-0.1
								l0.1-0.1V-3.8z"/>
							<path id="Shape_83_" class="st36" d="M1-4.3c0.1,0,0.1,0.1,0.2,0.1c0,0,0,0,0,0v0l0.3-0.2c-0.1,0-0.2-0.1-0.2-0.1
								c-2.3-1.3-5.1-2-8.4-2c-3.3,0-6.1,0.6-8.5,2s-3.5,2.9-3.6,4.8c0,0,0,0,0,0v0.2c0,0.1,0,0.3,0,0.4c0.1,0.4,0.2,0.7,0.3,1.1
								c0.1,0.2,0.2,0.4,0.3,0.6c0.1,0.2,0.3,0.4,0.5,0.6c0.1,0.2,0.3,0.3,0.4,0.4c0.2,0.2,0.4,0.4,0.7,0.6c0.1,0.1,0.3,0.2,0.5,0.3
								c0.2,0.1,0.5,0.3,0.7,0.4c0,0,0,0,0,0c0.2,0.1,0.3,0.2,0.5,0.3c0,0,0.1,0,0.1,0.1l0.4-0.2C-15,5-15.3,4.9-15.5,4.8
								c-2.3-1.3-3.4-2.8-3.4-4.6c0-0.2,0-0.4,0.1-0.6c0.2-1.5,1.4-2.8,3.4-4c2.3-1.3,5-1.9,8.2-1.9C-3.9-6.2-1.2-5.6,1-4.3z"/>
							<path id="Shape_82_" class="st37" d="M0.1-3.6l0.3-0.2c-0.5-0.3-1.1-0.5-1.6-0.7c-1.7-0.6-3.7-0.9-6-0.9
								c-2.4,0-4.4,0.3-6.3,1c-0.5,0.2-1,0.4-1.4,0.6C-17-2.7-18-1.4-18,0.2c0,1.3,0.7,2.5,2.3,3.5c0.3,0.2,0.5,0.3,0.9,0.5
								c0.3,0.2,0.6,0.3,0.9,0.4c0,0,0,0,0.1,0c0,0,0,0,0,0l0.4-0.2c-0.1-0.1-0.3-0.1-0.4-0.2c-0.3-0.1-0.5-0.2-0.8-0.4
								c-0.8-0.4-1.4-0.8-1.9-1.3c-0.8-0.8-1.2-1.6-1.2-2.5c0-1.5,1.1-2.8,3.1-3.8c2.1-1,4.6-1.6,7.5-1.6C-4.3-5.2-1.9-4.7,0.1-3.6z
								"/>
							<path id="Shape_81_" class="st38" d="M0.1-3.6l-0.9,0.5V-2l0.9-0.5V-3.6L0.1-3.6z M0.4-3.8L0.4-3.8v1.1l0.1-0.1l0.7-0.4v-1.1
								c0,0,0,0,0,0L0.4-3.8z"/>
						</g>
					</g>
				</g>
				<path id="Shape_80_" class="st39" d="M-4.6,8.7C-4.5,8.9-4.3,9-4.1,9.1C-3.7,9.2-3.6,8.6-4,8.5c0,0-0.1,0-0.1-0.1
					C-4.3,8.1-4.8,8.4-4.6,8.7L-4.6,8.7z"/>
			</g>
			<g id="onion-copy-2" transform="translate(149.000000, 55.000000)">
				<g id="Group_2_" transform="translate(0.275000, 0.276923)">
					<g id="people_0_Layer11_6_FILL_2_">
						<g>
							<path id="Shape_79_" class="st27" d="M-18.5,2.6v1.1c0.1,0.2,0.3,0.4,0.5,0.6V3.2C-18.2,3-18.4,2.8-18.5,2.6L-18.5,2.6z
								 M-15.7,5C-15.7,5-15.7,5-15.7,5c-0.3-0.2-0.5-0.3-0.7-0.5v1.1c0.2,0.1,0.5,0.3,0.7,0.4c0,0,0,0,0,0V5L-15.7,5z M-15.1,5.3
								c0,0-0.1,0-0.1-0.1v1.1c0,0,0.1,0,0.1,0.1V5.3L-15.1,5.3z M-16.9,4.3c-0.3-0.2-0.5-0.4-0.7-0.6v1.1c0.2,0.2,0.4,0.4,0.7,0.6
								V4.3L-16.9,4.3z M-19.2,0.4v0.9c0,0,0,0,0,0c0,0.6,0.1,1.1,0.3,1.7l0-1.1c-0.1-0.4-0.2-0.7-0.3-1.1
								C-19.2,0.7-19.2,0.5-19.2,0.4z"/>
							<path id="Shape_78_" class="st28" d="M-18.9,3c0.1,0.2,0.2,0.4,0.4,0.7V2.6c-0.1-0.2-0.2-0.4-0.3-0.6L-18.9,3L-18.9,3z
								 M-15.2,5.3c-0.2-0.1-0.3-0.2-0.5-0.3v1.1c0.2,0.1,0.3,0.2,0.5,0.3V5.3L-15.2,5.3z M-17.6,4.8V3.7c-0.1-0.1-0.3-0.3-0.4-0.4
								v1.1C-17.9,4.5-17.8,4.6-17.6,4.8L-17.6,4.8z M-16.9,4.3v1.1c0.1,0.1,0.3,0.2,0.5,0.3V4.6C-16.6,4.5-16.7,4.4-16.9,4.3z"/>
							<path id="Shape_27_" class="st29" d="M-13.6,5.6L-13.6,5.6L-13.6,5.6l0.1-0.1L-13.6,5.6L-13.6,5.6z M0.4-3.8L0.4-3.8L0.4-3.8
								l0.8-0.4C1.1-4.3,1.1-4.3,1-4.3c-2.3-1.3-5-1.9-8.2-1.9c-3.2,0-6,0.6-8.2,1.9c-2,1.1-3.2,2.4-3.4,4c0,0.2-0.1,0.4-0.1,0.6
								c0,1.8,1.1,3.3,3.4,4.6c0.2,0.1,0.5,0.3,0.7,0.4l0,0v0l0.8-0.4l0,0c0,0,0,0,0,0c0,0,0,0-0.1,0c-0.3-0.1-0.6-0.3-0.9-0.4
								c-0.3-0.2-0.6-0.3-0.9-0.5c-1.5-1-2.3-2.2-2.3-3.5c0-1.6,1.1-2.9,3.2-4c0.5-0.2,0.9-0.5,1.4-0.6c1.8-0.7,3.9-1,6.3-1
								c2.2,0,4.2,0.3,6,0.9C-0.6-4.3-0.1-4.1,0.4-3.8z"/>
							<path id="Shape_29_" class="st30" d="M-14.8,5.1L-14.8,5.1v1.1l0.8-0.5V4.7L-14.8,5.1L-14.8,5.1z M-13.6,4.5L-13.6,4.5v1
								l0.1-0.1l0.9-0.5V4L-13.6,4.5z"/>
							<path id="Shape_30_" class="st31" d="M-14.8,5.2l-0.4,0.2v1.1c0,0,0,0,0,0l0.3-0.2L-14.8,5.2L-14.8,5.2z"/>
							<polygon id="Shape_31_" class="st32" points="-13.6,4.6 -13.9,4.7 -14,4.7 -14,5.8 -13.7,5.6 -13.6,5.6 -13.6,4.6 							"/>
							<path id="Shape_32_" class="st33" d="M0.3-2.6L0.3-2.6l0.2-0.1L0.4-2.7L0.3-2.6L0.3-2.6z M-0.7-3.1l0.9-0.5
								c-2-1-4.5-1.5-7.3-1.5c-2.9,0-5.4,0.5-7.5,1.6c-2.1,1.1-3.1,2.3-3.1,3.8c0,0.9,0.4,1.8,1.2,2.5c0.5,0.5,1.1,0.9,1.9,1.3
								c0.2,0.1,0.5,0.2,0.8,0.4c0.1,0.1,0.2,0.1,0.4,0.2l0,0v0l1-0.5c-0.4-0.1-0.9-0.3-1.3-0.5c-0.1,0-0.2-0.1-0.2-0.1
								c-1.5-0.7-2.4-1.5-2.7-2.5c0-0.1,0-0.1-0.1-0.2c0-0.2,0-0.3,0-0.5c0-1.3,1-2.3,2.9-3.2c1.9-0.9,4.2-1.3,6.8-1.3
								C-4.7-4.3-2.5-3.9-0.7-3.1z"/>
							<path id="Shape_33_" class="st34" d="M0.3-2.6L0.1-2.5L-0.7-2v-1.2c-1.8-0.8-3.9-1.2-6.4-1.2c-2.7,0-5,0.4-6.8,1.3
								c-1.9,0.9-2.9,2-2.9,3.2c0,0.2,0,0.4,0,0.5c0.4-1,1.4-1.9,2.8-2.6c1.9-0.9,4.2-1.3,6.8-1.3c2.5,0,4.6,0.4,6.4,1.2l0,0h0
								L0.3-2.6L0.3-2.6L0.3-2.6z"/>
							<path id="Shape_34_" class="st35" d="M1.2-3.1l0.3-0.2v-1.1L1.2-4.2v0V-3.1L1.2-3.1z M0.4-3.8L0.4-3.8L0.1-3.6v1.1l0.2-0.1
								l0.1-0.1V-3.8z"/>
							<path id="Shape_35_" class="st36" d="M1-4.3c0.1,0,0.1,0.1,0.2,0.1c0,0,0,0,0,0v0l0.3-0.2c-0.1,0-0.2-0.1-0.2-0.1
								c-2.3-1.3-5.1-2-8.4-2c-3.3,0-6.1,0.6-8.5,2s-3.5,2.9-3.6,4.8c0,0,0,0,0,0v0.2c0,0.1,0,0.3,0,0.4c0.1,0.4,0.2,0.7,0.3,1.1
								c0.1,0.2,0.2,0.4,0.3,0.6c0.1,0.2,0.3,0.4,0.5,0.6c0.1,0.2,0.3,0.3,0.4,0.4c0.2,0.2,0.4,0.4,0.7,0.6c0.1,0.1,0.3,0.2,0.5,0.3
								c0.2,0.1,0.5,0.3,0.7,0.4c0,0,0,0,0,0c0.2,0.1,0.3,0.2,0.5,0.3c0,0,0.1,0,0.1,0.1l0.4-0.2C-15,5-15.3,4.9-15.5,4.8
								c-2.3-1.3-3.4-2.8-3.4-4.6c0-0.2,0-0.4,0.1-0.6c0.2-1.5,1.4-2.8,3.4-4c2.3-1.3,5-1.9,8.2-1.9C-3.9-6.2-1.2-5.6,1-4.3z"/>
							<path id="Shape_36_" class="st37" d="M0.1-3.6l0.3-0.2c-0.5-0.3-1.1-0.5-1.6-0.7c-1.7-0.6-3.7-0.9-6-0.9
								c-2.4,0-4.4,0.3-6.3,1c-0.5,0.2-1,0.4-1.4,0.6C-17-2.7-18-1.4-18,0.2c0,1.3,0.7,2.5,2.3,3.5c0.3,0.2,0.5,0.3,0.9,0.5
								c0.3,0.2,0.6,0.3,0.9,0.4c0,0,0,0,0.1,0c0,0,0,0,0,0l0.4-0.2c-0.1-0.1-0.3-0.1-0.4-0.2c-0.3-0.1-0.5-0.2-0.8-0.4
								c-0.8-0.4-1.4-0.8-1.9-1.3c-0.8-0.8-1.2-1.6-1.2-2.5c0-1.5,1.1-2.8,3.1-3.8c2.1-1,4.6-1.6,7.5-1.6C-4.3-5.2-1.9-4.7,0.1-3.6z
								"/>
							<path id="Shape_37_" class="st38" d="M0.1-3.6l-0.9,0.5V-2l0.9-0.5V-3.6L0.1-3.6z M0.4-3.8L0.4-3.8v1.1l0.1-0.1l0.7-0.4v-1.1
								c0,0,0,0,0,0L0.4-3.8z"/>
						</g>
					</g>
				</g>
				<path id="Shape_38_" class="st39" d="M-4.6,8.7C-4.5,8.9-4.3,9-4.1,9.1C-3.7,9.2-3.6,8.6-4,8.5c0,0-0.1,0-0.1-0.1
					C-4.3,8.1-4.8,8.4-4.6,8.7L-4.6,8.7z"/>
			</g>
			<g id="onion-copy-3" transform="translate(113.000000, 46.000000)">
				<g id="Group_3_" transform="translate(0.275000, 0.276923)">
					<g id="people_0_Layer11_6_FILL_3_">
						<g>
							<path id="Shape_39_" class="st27" d="M-18.5,2.6v1.1c0.1,0.2,0.3,0.4,0.5,0.6V3.2C-18.2,3-18.4,2.8-18.5,2.6L-18.5,2.6z
								 M-15.7,5C-15.7,5-15.7,5-15.7,5c-0.3-0.2-0.5-0.3-0.7-0.5v1.1c0.2,0.1,0.5,0.3,0.7,0.4c0,0,0,0,0,0V5L-15.7,5z M-15.1,5.3
								c0,0-0.1,0-0.1-0.1v1.1c0,0,0.1,0,0.1,0.1V5.3L-15.1,5.3z M-16.9,4.3c-0.3-0.2-0.5-0.4-0.7-0.6v1.1c0.2,0.2,0.4,0.4,0.7,0.6
								V4.3L-16.9,4.3z M-19.2,0.4v0.9c0,0,0,0,0,0c0,0.6,0.1,1.1,0.3,1.7l0-1.1c-0.1-0.4-0.2-0.7-0.3-1.1
								C-19.2,0.7-19.2,0.5-19.2,0.4z"/>
							<path id="Shape_40_" class="st28" d="M-18.9,3c0.1,0.2,0.2,0.4,0.4,0.7V2.6c-0.1-0.2-0.2-0.4-0.3-0.6L-18.9,3L-18.9,3z
								 M-15.2,5.3c-0.2-0.1-0.3-0.2-0.5-0.3v1.1c0.2,0.1,0.3,0.2,0.5,0.3V5.3L-15.2,5.3z M-17.6,4.8V3.7c-0.1-0.1-0.3-0.3-0.4-0.4
								v1.1C-17.9,4.5-17.8,4.6-17.6,4.8L-17.6,4.8z M-16.9,4.3v1.1c0.1,0.1,0.3,0.2,0.5,0.3V4.6C-16.6,4.5-16.7,4.4-16.9,4.3z"/>
							<path id="Shape_41_" class="st29" d="M-13.6,5.6L-13.6,5.6L-13.6,5.6l0.1-0.1L-13.6,5.6L-13.6,5.6z M0.4-3.8L0.4-3.8L0.4-3.8
								l0.8-0.4C1.1-4.3,1.1-4.3,1-4.3c-2.3-1.3-5-1.9-8.2-1.9c-3.2,0-6,0.6-8.2,1.9c-2,1.1-3.2,2.4-3.4,4c0,0.2-0.1,0.4-0.1,0.6
								c0,1.8,1.1,3.3,3.4,4.6c0.2,0.1,0.5,0.3,0.7,0.4l0,0v0l0.8-0.4l0,0c0,0,0,0,0,0c0,0,0,0-0.1,0c-0.3-0.1-0.6-0.3-0.9-0.4
								c-0.3-0.2-0.6-0.3-0.9-0.5c-1.5-1-2.3-2.2-2.3-3.5c0-1.6,1.1-2.9,3.2-4c0.5-0.2,0.9-0.5,1.4-0.6c1.8-0.7,3.9-1,6.3-1
								c2.2,0,4.2,0.3,6,0.9C-0.6-4.3-0.1-4.1,0.4-3.8z"/>
							<path id="Shape_42_" class="st30" d="M-14.8,5.1L-14.8,5.1v1.1l0.8-0.5V4.7L-14.8,5.1L-14.8,5.1z M-13.6,4.5L-13.6,4.5v1
								l0.1-0.1l0.9-0.5V4L-13.6,4.5z"/>
							<path id="Shape_43_" class="st31" d="M-14.8,5.2l-0.4,0.2v1.1c0,0,0,0,0,0l0.3-0.2L-14.8,5.2L-14.8,5.2z"/>
							<polygon id="Shape_44_" class="st32" points="-13.6,4.6 -13.9,4.7 -14,4.7 -14,5.8 -13.7,5.6 -13.6,5.6 -13.6,4.6 							"/>
							<path id="Shape_45_" class="st33" d="M0.3-2.6L0.3-2.6l0.2-0.1L0.4-2.7L0.3-2.6L0.3-2.6z M-0.7-3.1l0.9-0.5
								c-2-1-4.5-1.5-7.3-1.5c-2.9,0-5.4,0.5-7.5,1.6c-2.1,1.1-3.1,2.3-3.1,3.8c0,0.9,0.4,1.8,1.2,2.5c0.5,0.5,1.1,0.9,1.9,1.3
								c0.2,0.1,0.5,0.2,0.8,0.4c0.1,0.1,0.2,0.1,0.4,0.2l0,0v0l1-0.5c-0.4-0.1-0.9-0.3-1.3-0.5c-0.1,0-0.2-0.1-0.2-0.1
								c-1.5-0.7-2.4-1.5-2.7-2.5c0-0.1,0-0.1-0.1-0.2c0-0.2,0-0.3,0-0.5c0-1.3,1-2.3,2.9-3.2c1.9-0.9,4.2-1.3,6.8-1.3
								C-4.7-4.3-2.5-3.9-0.7-3.1z"/>
							<path id="Shape_46_" class="st34" d="M0.3-2.6L0.1-2.5L-0.7-2v-1.2c-1.8-0.8-3.9-1.2-6.4-1.2c-2.7,0-5,0.4-6.8,1.3
								c-1.9,0.9-2.9,2-2.9,3.2c0,0.2,0,0.4,0,0.5c0.4-1,1.4-1.9,2.8-2.6c1.9-0.9,4.2-1.3,6.8-1.3c2.5,0,4.6,0.4,6.4,1.2l0,0h0
								L0.3-2.6L0.3-2.6L0.3-2.6z"/>
							<path id="Shape_47_" class="st35" d="M1.2-3.1l0.3-0.2v-1.1L1.2-4.2v0V-3.1L1.2-3.1z M0.4-3.8L0.4-3.8L0.1-3.6v1.1l0.2-0.1
								l0.1-0.1V-3.8z"/>
							<path id="Shape_48_" class="st36" d="M1-4.3c0.1,0,0.1,0.1,0.2,0.1c0,0,0,0,0,0v0l0.3-0.2c-0.1,0-0.2-0.1-0.2-0.1
								c-2.3-1.3-5.1-2-8.4-2c-3.3,0-6.1,0.6-8.5,2s-3.5,2.9-3.6,4.8c0,0,0,0,0,0v0.2c0,0.1,0,0.3,0,0.4c0.1,0.4,0.2,0.7,0.3,1.1
								c0.1,0.2,0.2,0.4,0.3,0.6c0.1,0.2,0.3,0.4,0.5,0.6c0.1,0.2,0.3,0.3,0.4,0.4c0.2,0.2,0.4,0.4,0.7,0.6c0.1,0.1,0.3,0.2,0.5,0.3
								c0.2,0.1,0.5,0.3,0.7,0.4c0,0,0,0,0,0c0.2,0.1,0.3,0.2,0.5,0.3c0,0,0.1,0,0.1,0.1l0.4-0.2C-15,5-15.3,4.9-15.5,4.8
								c-2.3-1.3-3.4-2.8-3.4-4.6c0-0.2,0-0.4,0.1-0.6c0.2-1.5,1.4-2.8,3.4-4c2.3-1.3,5-1.9,8.2-1.9C-3.9-6.2-1.2-5.6,1-4.3z"/>
							<path id="Shape_49_" class="st37" d="M0.1-3.6l0.3-0.2c-0.5-0.3-1.1-0.5-1.6-0.7c-1.7-0.6-3.7-0.9-6-0.9
								c-2.4,0-4.4,0.3-6.3,1c-0.5,0.2-1,0.4-1.4,0.6C-17-2.7-18-1.4-18,0.2c0,1.3,0.7,2.5,2.3,3.5c0.3,0.2,0.5,0.3,0.9,0.5
								c0.3,0.2,0.6,0.3,0.9,0.4c0,0,0,0,0.1,0c0,0,0,0,0,0l0.4-0.2c-0.1-0.1-0.3-0.1-0.4-0.2c-0.3-0.1-0.5-0.2-0.8-0.4
								c-0.8-0.4-1.4-0.8-1.9-1.3c-0.8-0.8-1.2-1.6-1.2-2.5c0-1.5,1.1-2.8,3.1-3.8c2.1-1,4.6-1.6,7.5-1.6C-4.3-5.2-1.9-4.7,0.1-3.6z
								"/>
							<path id="Shape_50_" class="st38" d="M0.1-3.6l-0.9,0.5V-2l0.9-0.5V-3.6L0.1-3.6z M0.4-3.8L0.4-3.8v1.1l0.1-0.1l0.7-0.4v-1.1
								c0,0,0,0,0,0L0.4-3.8z"/>
						</g>
					</g>
				</g>
				<path id="Shape_51_" class="st39" d="M-4.6,8.7C-4.5,8.9-4.3,9-4.1,9.1C-3.7,9.2-3.6,8.6-4,8.5c0,0-0.1,0-0.1-0.1
					C-4.3,8.1-4.8,8.4-4.6,8.7L-4.6,8.7z"/>
			</g>
			<g id="onion-copy-4" transform="translate(102.000000, 36.000000)">
				<g id="Group_4_" transform="translate(0.275000, 0.276923)">
					<g id="people_0_Layer11_6_FILL_4_">
						<g>
							<path id="Shape_52_" class="st27" d="M-18.5,2.6v1.1c0.1,0.2,0.3,0.4,0.5,0.6V3.2C-18.2,3-18.4,2.8-18.5,2.6L-18.5,2.6z
								 M-15.7,5C-15.7,5-15.7,5-15.7,5c-0.3-0.2-0.5-0.3-0.7-0.5v1.1c0.2,0.1,0.5,0.3,0.7,0.4c0,0,0,0,0,0V5L-15.7,5z M-15.1,5.3
								c0,0-0.1,0-0.1-0.1v1.1c0,0,0.1,0,0.1,0.1V5.3L-15.1,5.3z M-16.9,4.3c-0.3-0.2-0.5-0.4-0.7-0.6v1.1c0.2,0.2,0.4,0.4,0.7,0.6
								V4.3L-16.9,4.3z M-19.2,0.4v0.9c0,0,0,0,0,0c0,0.6,0.1,1.1,0.3,1.7l0-1.1c-0.1-0.4-0.2-0.7-0.3-1.1
								C-19.2,0.7-19.2,0.5-19.2,0.4z"/>
							<path id="Shape_53_" class="st28" d="M-18.9,3c0.1,0.2,0.2,0.4,0.4,0.7V2.6c-0.1-0.2-0.2-0.4-0.3-0.6L-18.9,3L-18.9,3z
								 M-15.2,5.3c-0.2-0.1-0.3-0.2-0.5-0.3v1.1c0.2,0.1,0.3,0.2,0.5,0.3V5.3L-15.2,5.3z M-17.6,4.8V3.7c-0.1-0.1-0.3-0.3-0.4-0.4
								v1.1C-17.9,4.5-17.8,4.6-17.6,4.8L-17.6,4.8z M-16.9,4.3v1.1c0.1,0.1,0.3,0.2,0.5,0.3V4.6C-16.6,4.5-16.7,4.4-16.9,4.3z"/>
							<path id="Shape_54_" class="st29" d="M-13.6,5.6L-13.6,5.6L-13.6,5.6l0.1-0.1L-13.6,5.6L-13.6,5.6z M0.4-3.8L0.4-3.8L0.4-3.8
								l0.8-0.4C1.1-4.3,1.1-4.3,1-4.3c-2.3-1.3-5-1.9-8.2-1.9c-3.2,0-6,0.6-8.2,1.9c-2,1.1-3.2,2.4-3.4,4c0,0.2-0.1,0.4-0.1,0.6
								c0,1.8,1.1,3.3,3.4,4.6c0.2,0.1,0.5,0.3,0.7,0.4l0,0v0l0.8-0.4l0,0c0,0,0,0,0,0c0,0,0,0-0.1,0c-0.3-0.1-0.6-0.3-0.9-0.4
								c-0.3-0.2-0.6-0.3-0.9-0.5c-1.5-1-2.3-2.2-2.3-3.5c0-1.6,1.1-2.9,3.2-4c0.5-0.2,0.9-0.5,1.4-0.6c1.8-0.7,3.9-1,6.3-1
								c2.2,0,4.2,0.3,6,0.9C-0.6-4.3-0.1-4.1,0.4-3.8z"/>
							<path id="Shape_55_" class="st30" d="M-14.8,5.1L-14.8,5.1v1.1l0.8-0.5V4.7L-14.8,5.1L-14.8,5.1z M-13.6,4.5L-13.6,4.5v1
								l0.1-0.1l0.9-0.5V4L-13.6,4.5z"/>
							<path id="Shape_56_" class="st31" d="M-14.8,5.2l-0.4,0.2v1.1c0,0,0,0,0,0l0.3-0.2L-14.8,5.2L-14.8,5.2z"/>
							<polygon id="Shape_57_" class="st32" points="-13.6,4.6 -13.9,4.7 -14,4.7 -14,5.8 -13.7,5.6 -13.6,5.6 -13.6,4.6 							"/>
							<path id="Shape_58_" class="st33" d="M0.3-2.6L0.3-2.6l0.2-0.1L0.4-2.7L0.3-2.6L0.3-2.6z M-0.7-3.1l0.9-0.5
								c-2-1-4.5-1.5-7.3-1.5c-2.9,0-5.4,0.5-7.5,1.6c-2.1,1.1-3.1,2.3-3.1,3.8c0,0.9,0.4,1.8,1.2,2.5c0.5,0.5,1.1,0.9,1.9,1.3
								c0.2,0.1,0.5,0.2,0.8,0.4c0.1,0.1,0.2,0.1,0.4,0.2l0,0v0l1-0.5c-0.4-0.1-0.9-0.3-1.3-0.5c-0.1,0-0.2-0.1-0.2-0.1
								c-1.5-0.7-2.4-1.5-2.7-2.5c0-0.1,0-0.1-0.1-0.2c0-0.2,0-0.3,0-0.5c0-1.3,1-2.3,2.9-3.2c1.9-0.9,4.2-1.3,6.8-1.3
								C-4.7-4.3-2.5-3.9-0.7-3.1z"/>
							<path id="Shape_59_" class="st34" d="M0.3-2.6L0.1-2.5L-0.7-2v-1.2c-1.8-0.8-3.9-1.2-6.4-1.2c-2.7,0-5,0.4-6.8,1.3
								c-1.9,0.9-2.9,2-2.9,3.2c0,0.2,0,0.4,0,0.5c0.4-1,1.4-1.9,2.8-2.6c1.9-0.9,4.2-1.3,6.8-1.3c2.5,0,4.6,0.4,6.4,1.2l0,0h0
								L0.3-2.6L0.3-2.6L0.3-2.6z"/>
							<path id="Shape_60_" class="st35" d="M1.2-3.1l0.3-0.2v-1.1L1.2-4.2v0V-3.1L1.2-3.1z M0.4-3.8L0.4-3.8L0.1-3.6v1.1l0.2-0.1
								l0.1-0.1V-3.8z"/>
							<path id="Shape_61_" class="st36" d="M1-4.3c0.1,0,0.1,0.1,0.2,0.1c0,0,0,0,0,0v0l0.3-0.2c-0.1,0-0.2-0.1-0.2-0.1
								c-2.3-1.3-5.1-2-8.4-2c-3.3,0-6.1,0.6-8.5,2s-3.5,2.9-3.6,4.8c0,0,0,0,0,0v0.2c0,0.1,0,0.3,0,0.4c0.1,0.4,0.2,0.7,0.3,1.1
								c0.1,0.2,0.2,0.4,0.3,0.6c0.1,0.2,0.3,0.4,0.5,0.6c0.1,0.2,0.3,0.3,0.4,0.4c0.2,0.2,0.4,0.4,0.7,0.6c0.1,0.1,0.3,0.2,0.5,0.3
								c0.2,0.1,0.5,0.3,0.7,0.4c0,0,0,0,0,0c0.2,0.1,0.3,0.2,0.5,0.3c0,0,0.1,0,0.1,0.1l0.4-0.2C-15,5-15.3,4.9-15.5,4.8
								c-2.3-1.3-3.4-2.8-3.4-4.6c0-0.2,0-0.4,0.1-0.6c0.2-1.5,1.4-2.8,3.4-4c2.3-1.3,5-1.9,8.2-1.9C-3.9-6.2-1.2-5.6,1-4.3z"/>
							<path id="Shape_62_" class="st37" d="M0.1-3.6l0.3-0.2c-0.5-0.3-1.1-0.5-1.6-0.7c-1.7-0.6-3.7-0.9-6-0.9
								c-2.4,0-4.4,0.3-6.3,1c-0.5,0.2-1,0.4-1.4,0.6C-17-2.7-18-1.4-18,0.2c0,1.3,0.7,2.5,2.3,3.5c0.3,0.2,0.5,0.3,0.9,0.5
								c0.3,0.2,0.6,0.3,0.9,0.4c0,0,0,0,0.1,0c0,0,0,0,0,0l0.4-0.2c-0.1-0.1-0.3-0.1-0.4-0.2c-0.3-0.1-0.5-0.2-0.8-0.4
								c-0.8-0.4-1.4-0.8-1.9-1.3c-0.8-0.8-1.2-1.6-1.2-2.5c0-1.5,1.1-2.8,3.1-3.8c2.1-1,4.6-1.6,7.5-1.6C-4.3-5.2-1.9-4.7,0.1-3.6z
								"/>
							<path id="Shape_63_" class="st38" d="M0.1-3.6l-0.9,0.5V-2l0.9-0.5V-3.6L0.1-3.6z M0.4-3.8L0.4-3.8v1.1l0.1-0.1l0.7-0.4v-1.1
								c0,0,0,0,0,0L0.4-3.8z"/>
						</g>
					</g>
				</g>
				<path id="Shape_64_" class="st39" d="M-4.6,8.7C-4.5,8.9-4.3,9-4.1,9.1C-3.7,9.2-3.6,8.6-4,8.5c0,0-0.1,0-0.1-0.1
					C-4.3,8.1-4.8,8.4-4.6,8.7L-4.6,8.7z"/>
			</g>
			<g id="onion-copy-5" transform="translate(146.000000, 30.000000)">
				<g id="Group_5_" transform="translate(0.275000, 0.276923)">
					<g id="people_0_Layer11_6_FILL_5_">
						<g>
							<path id="Shape_65_" class="st27" d="M-18.5,2.6v1.1c0.1,0.2,0.3,0.4,0.5,0.6V3.2C-18.2,3-18.4,2.8-18.5,2.6L-18.5,2.6z
								 M-15.7,5C-15.7,5-15.7,5-15.7,5c-0.3-0.2-0.5-0.3-0.7-0.5v1.1c0.2,0.1,0.5,0.3,0.7,0.4c0,0,0,0,0,0V5L-15.7,5z M-15.1,5.3
								c0,0-0.1,0-0.1-0.1v1.1c0,0,0.1,0,0.1,0.1V5.3L-15.1,5.3z M-16.9,4.3c-0.3-0.2-0.5-0.4-0.7-0.6v1.1c0.2,0.2,0.4,0.4,0.7,0.6
								V4.3L-16.9,4.3z M-19.2,0.4v0.9c0,0,0,0,0,0c0,0.6,0.1,1.1,0.3,1.7l0-1.1c-0.1-0.4-0.2-0.7-0.3-1.1
								C-19.2,0.7-19.2,0.5-19.2,0.4z"/>
							<path id="Shape_66_" class="st28" d="M-18.9,3c0.1,0.2,0.2,0.4,0.4,0.7V2.6c-0.1-0.2-0.2-0.4-0.3-0.6L-18.9,3L-18.9,3z
								 M-15.2,5.3c-0.2-0.1-0.3-0.2-0.5-0.3v1.1c0.2,0.1,0.3,0.2,0.5,0.3V5.3L-15.2,5.3z M-17.6,4.8V3.7c-0.1-0.1-0.3-0.3-0.4-0.4
								v1.1C-17.9,4.5-17.8,4.6-17.6,4.8L-17.6,4.8z M-16.9,4.3v1.1c0.1,0.1,0.3,0.2,0.5,0.3V4.6C-16.6,4.5-16.7,4.4-16.9,4.3z"/>
							<path id="Shape_67_" class="st29" d="M-13.6,5.6L-13.6,5.6L-13.6,5.6l0.1-0.1L-13.6,5.6L-13.6,5.6z M0.4-3.8L0.4-3.8L0.4-3.8
								l0.8-0.4C1.1-4.3,1.1-4.3,1-4.3c-2.3-1.3-5-1.9-8.2-1.9c-3.2,0-6,0.6-8.2,1.9c-2,1.1-3.2,2.4-3.4,4c0,0.2-0.1,0.4-0.1,0.6
								c0,1.8,1.1,3.3,3.4,4.6c0.2,0.1,0.5,0.3,0.7,0.4l0,0v0l0.8-0.4l0,0c0,0,0,0,0,0c0,0,0,0-0.1,0c-0.3-0.1-0.6-0.3-0.9-0.4
								c-0.3-0.2-0.6-0.3-0.9-0.5c-1.5-1-2.3-2.2-2.3-3.5c0-1.6,1.1-2.9,3.2-4c0.5-0.2,0.9-0.5,1.4-0.6c1.8-0.7,3.9-1,6.3-1
								c2.2,0,4.2,0.3,6,0.9C-0.6-4.3-0.1-4.1,0.4-3.8z"/>
							<path id="Shape_68_" class="st30" d="M-14.8,5.1L-14.8,5.1v1.1l0.8-0.5V4.7L-14.8,5.1L-14.8,5.1z M-13.6,4.5L-13.6,4.5v1
								l0.1-0.1l0.9-0.5V4L-13.6,4.5z"/>
							<path id="Shape_69_" class="st31" d="M-14.8,5.2l-0.4,0.2v1.1c0,0,0,0,0,0l0.3-0.2L-14.8,5.2L-14.8,5.2z"/>
							<polygon id="Shape_70_" class="st32" points="-13.6,4.6 -13.9,4.7 -14,4.7 -14,5.8 -13.7,5.6 -13.6,5.6 -13.6,4.6 							"/>
							<path id="Shape_71_" class="st33" d="M0.3-2.6L0.3-2.6l0.2-0.1L0.4-2.7L0.3-2.6L0.3-2.6z M-0.7-3.1l0.9-0.5
								c-2-1-4.5-1.5-7.3-1.5c-2.9,0-5.4,0.5-7.5,1.6c-2.1,1.1-3.1,2.3-3.1,3.8c0,0.9,0.4,1.8,1.2,2.5c0.5,0.5,1.1,0.9,1.9,1.3
								c0.2,0.1,0.5,0.2,0.8,0.4c0.1,0.1,0.2,0.1,0.4,0.2l0,0v0l1-0.5c-0.4-0.1-0.9-0.3-1.3-0.5c-0.1,0-0.2-0.1-0.2-0.1
								c-1.5-0.7-2.4-1.5-2.7-2.5c0-0.1,0-0.1-0.1-0.2c0-0.2,0-0.3,0-0.5c0-1.3,1-2.3,2.9-3.2c1.9-0.9,4.2-1.3,6.8-1.3
								C-4.7-4.3-2.5-3.9-0.7-3.1z"/>
							<path id="Shape_72_" class="st34" d="M0.3-2.6L0.1-2.5L-0.7-2v-1.2c-1.8-0.8-3.9-1.2-6.4-1.2c-2.7,0-5,0.4-6.8,1.3
								c-1.9,0.9-2.9,2-2.9,3.2c0,0.2,0,0.4,0,0.5c0.4-1,1.4-1.9,2.8-2.6c1.9-0.9,4.2-1.3,6.8-1.3c2.5,0,4.6,0.4,6.4,1.2l0,0h0
								L0.3-2.6L0.3-2.6L0.3-2.6z"/>
							<path id="Shape_73_" class="st35" d="M1.2-3.1l0.3-0.2v-1.1L1.2-4.2v0V-3.1L1.2-3.1z M0.4-3.8L0.4-3.8L0.1-3.6v1.1l0.2-0.1
								l0.1-0.1V-3.8z"/>
							<path id="Shape_74_" class="st36" d="M1-4.3c0.1,0,0.1,0.1,0.2,0.1c0,0,0,0,0,0v0l0.3-0.2c-0.1,0-0.2-0.1-0.2-0.1
								c-2.3-1.3-5.1-2-8.4-2c-3.3,0-6.1,0.6-8.5,2s-3.5,2.9-3.6,4.8c0,0,0,0,0,0v0.2c0,0.1,0,0.3,0,0.4c0.1,0.4,0.2,0.7,0.3,1.1
								c0.1,0.2,0.2,0.4,0.3,0.6c0.1,0.2,0.3,0.4,0.5,0.6c0.1,0.2,0.3,0.3,0.4,0.4c0.2,0.2,0.4,0.4,0.7,0.6c0.1,0.1,0.3,0.2,0.5,0.3
								c0.2,0.1,0.5,0.3,0.7,0.4c0,0,0,0,0,0c0.2,0.1,0.3,0.2,0.5,0.3c0,0,0.1,0,0.1,0.1l0.4-0.2C-15,5-15.3,4.9-15.5,4.8
								c-2.3-1.3-3.4-2.8-3.4-4.6c0-0.2,0-0.4,0.1-0.6c0.2-1.5,1.4-2.8,3.4-4c2.3-1.3,5-1.9,8.2-1.9C-3.9-6.2-1.2-5.6,1-4.3z"/>
							<path id="Shape_75_" class="st37" d="M0.1-3.6l0.3-0.2c-0.5-0.3-1.1-0.5-1.6-0.7c-1.7-0.6-3.7-0.9-6-0.9
								c-2.4,0-4.4,0.3-6.3,1c-0.5,0.2-1,0.4-1.4,0.6C-17-2.7-18-1.4-18,0.2c0,1.3,0.7,2.5,2.3,3.5c0.3,0.2,0.5,0.3,0.9,0.5
								c0.3,0.2,0.6,0.3,0.9,0.4c0,0,0,0,0.1,0c0,0,0,0,0,0l0.4-0.2c-0.1-0.1-0.3-0.1-0.4-0.2c-0.3-0.1-0.5-0.2-0.8-0.4
								c-0.8-0.4-1.4-0.8-1.9-1.3c-0.8-0.8-1.2-1.6-1.2-2.5c0-1.5,1.1-2.8,3.1-3.8c2.1-1,4.6-1.6,7.5-1.6C-4.3-5.2-1.9-4.7,0.1-3.6z
								"/>
							<path id="Shape_76_" class="st38" d="M0.1-3.6l-0.9,0.5V-2l0.9-0.5V-3.6L0.1-3.6z M0.4-3.8L0.4-3.8v1.1l0.1-0.1l0.7-0.4v-1.1
								c0,0,0,0,0,0L0.4-3.8z"/>
						</g>
					</g>
				</g>
				<path id="Shape_77_" class="st39" d="M-4.6,8.7C-4.5,8.9-4.3,9-4.1,9.1C-3.7,9.2-3.6,8.6-4,8.5c0,0-0.1,0-0.1-0.1
					C-4.3,8.1-4.8,8.4-4.6,8.7L-4.6,8.7z"/>
			</g>
		</g>
	</g>
	<g id="Artboard_2_">
		<g id="mushroom" transform="translate(167.000000, 28.000000)">
			<path id="Shape_135_" class="st40" d="M17.4,17.5c0.1,0,0.1,0.1,0.1,0.1c0,0,0.1,0.1,0.1,0.1v0c0,0,0,0,0,0c0.5,0,1-0.2,1.3-0.4
				c0,0,0.1,0,0.1-0.1c0.5-0.3,0.7-0.7,0.6-1.2c-0.1-0.2-0.2-0.4-0.3-0.6l-0.4,0.2C19,15.9,19,16,19,16.1c0.1,0.3,0,0.5-0.2,0.8
				c0,0,0,0,0,0.1c-0.1,0.1-0.2,0.2-0.4,0.3c-0.2,0.1-0.4,0.2-0.6,0.2C17.8,17.4,17.6,17.5,17.4,17.5L17.4,17.5z M15.7,14.1l0.4-0.2
				c-0.3-0.1-0.6-0.1-0.9-0.1c-0.9-0.1-1.7,0.1-2.3,0.4c-0.3,0.2-0.5,0.4-0.6,0.6c0,0,0,0,0,0c0.2,0,0.3,0,0.5,0.1
				c0.1-0.2,0.3-0.4,0.5-0.5c0.5-0.3,1.1-0.4,1.9-0.3C15.4,14,15.6,14,15.7,14.1z"/>
			<path id="Shape_134_" class="st41" d="M12.8,15.6c-0.1,0-0.2,0-0.3,0c-0.2,0-0.4-0.1-0.6-0.1c0,0-0.1,0-0.1-0.1c0,0,0,0,0,0l0,0
				c0,0,0,0-0.1-0.1c-0.3-0.4-0.5-0.8-0.6-1.2v0c0-0.2-0.1-0.3-0.1-0.5l0,0.9c0,0,0,0,0,0s0,0,0,0c0,0.2,0,0.3,0.1,0.5
				c0.1,0.4,0.3,0.8,0.6,1.2c0.4-0.2,0.8-0.4,1.3-0.6c0.1-0.1,0.2-0.1,0.3-0.2v-0.2c0,0.1-0.1,0.2-0.2,0.2c0,0-0.1,0-0.1,0.1
				C12.8,15.6,12.8,15.6,12.8,15.6z"/>
			<path id="Shape_133_" class="st42" d="M16.1,17.7C16.1,17.7,16.1,17.7,16.1,17.7c0-0.1,0.1-0.2,0.2-0.3c0.1-0.1,0.3-0.1,0.5-0.1
				c0.2,0,0.4,0.1,0.6,0.1c0,0,0,0,0,0c0,0,0,0,0,0c0.2,0,0.3,0,0.5-0.1c0.3-0.2,0.6-0.3,0.9-0.5c0,0,0,0,0-0.1
				c0.2-0.2,0.2-0.5,0.2-0.8c0-0.1-0.1-0.2-0.1-0.3c-2.4,1.2-4.3,2.5-5.6,3.9l0,0v1.1l0,0c0.7-0.8,1.7-1.5,2.7-2.2v0.2c0,0,0,0,0,0
				c0,0.1,0.1,0.2,0.3,0.3c0,0,0,0,0,0c0.1,0,0.1,0,0.2,0.1c0,0,0,0,0.1,0c0.8,0.2,1.7,0.4,2.7,0.4c1.9,0.1,3.4-0.1,4.5-0.8
				c0.8-0.5,1.2-1,1.3-1.6c0-0.1,0-0.1,0-0.2l0-0.9c0,0.2,0,0.3-0.1,0.5c-0.2,0.4-0.6,0.8-1.2,1.2c-1.1,0.6-2.6,0.9-4.5,0.8
				c-0.4,0-0.9-0.1-1.3-0.1c-0.5-0.1-0.9-0.2-1.4-0.3c0,0,0,0-0.1,0c0,0,0,0-0.1,0c0,0-0.1,0-0.2-0.1c0,0,0,0,0,0
				C16.2,17.9,16.1,17.8,16.1,17.7z"/>
			<path id="Shape_132_" class="st43" d="M15.7,14.1c-0.2,0-0.3,0-0.5,0c-0.8-0.1-1.4,0-1.9,0.3c-0.3,0.1-0.4,0.3-0.5,0.5
				c0,0,0,0,0.1,0c0,0,0,0,0,0c0.2,0.1,0.3,0.2,0.3,0.3v0c0,0,0,0,0,0.1v0.2c0.1,0,0.1-0.1,0.2-0.1c0,0,0.1,0,0.1-0.1
				C14.3,14.9,15,14.5,15.7,14.1z"/>
			<polygon id="Shape_131_" class="st44" points="8.7,17.5 8.7,18.6 13.3,20.8 13.3,19.7 			"/>
			<path id="Shape_130_" class="st45" d="M16.7,10.9c-1.8-0.2-3.2,0-4.3,0.6C11.5,12,11,12.7,11,13.4c0,0.1,0,0.1,0,0.2v0
				c0,0.1,0,0.3,0.1,0.5v0c0.1,0.4,0.3,0.8,0.6,1.2c0,0,0,0.1,0.1,0.1l0,0c0,0,0,0,0,0c0,0,0.1,0,0.1,0.1c0.2,0.1,0.4,0.1,0.6,0.1
				c0.1,0,0.2,0,0.3,0c0,0,0.1,0,0.1,0c0,0,0.1,0,0.1-0.1c0.1-0.1,0.2-0.1,0.2-0.2c0,0,0,0,0-0.1v0c0-0.1-0.1-0.2-0.3-0.3
				c0,0,0,0,0,0c0,0,0,0-0.1,0c-0.1-0.1-0.3-0.1-0.5-0.1c0,0,0,0,0,0c0.1-0.2,0.3-0.5,0.6-0.6c0.6-0.3,1.3-0.5,2.3-0.4
				c0.3,0,0.6,0.1,0.9,0.1l-0.4,0.2c-0.7,0.4-1.5,0.9-2.2,1.3c0,0-0.1,0-0.1,0.1c-0.1,0-0.1,0.1-0.2,0.1c-0.1,0.1-0.2,0.1-0.3,0.2
				c-0.4,0.2-0.8,0.4-1.3,0.6c-0.9,0.4-1.9,0.9-2.9,1.2l4.6,2.1l0,0c1.3-1.4,3.2-2.7,5.6-3.9l0.4-0.2c0.1,0.2,0.3,0.4,0.3,0.6
				c0.1,0.5-0.1,0.9-0.6,1.2c0,0-0.1,0-0.1,0.1c-0.4,0.2-0.8,0.3-1.3,0.4c0,0,0,0,0,0v0c0-0.1,0-0.1-0.1-0.1c0,0-0.1-0.1-0.1-0.1
				c0,0,0,0,0,0c0,0,0,0,0,0c-0.2-0.1-0.3-0.1-0.6-0.1c-0.2,0-0.4,0-0.5,0.1c-0.1,0.1-0.2,0.2-0.2,0.3c0,0,0,0,0,0
				c0,0.1,0.1,0.2,0.3,0.3c0,0,0,0,0,0c0.1,0,0.1,0,0.2,0.1c0,0,0,0,0.1,0s0,0,0.1,0c0.4,0.1,0.9,0.2,1.4,0.3
				c0.4,0.1,0.8,0.1,1.3,0.1c1.9,0.1,3.4-0.1,4.5-0.8c0.6-0.4,1-0.7,1.2-1.2c0.1-0.2,0.1-0.3,0.1-0.5v0c0-0.2-0.1-0.5-0.2-0.7
				c-0.4-1-1.3-1.9-2.8-2.7c0,0,0,0-0.1,0c0,0,0,0-0.1,0l-0.1,0c-0.4-0.2-0.6-0.4-0.7-0.4C19.8,11.5,18.3,11.1,16.7,10.9z"/>
		</g>
		<g id="mushroom-copy" transform="translate(140.000000, 21.000000)">
			<path id="Shape_129_" class="st40" d="M14.7,12.9c0.1,0,0.1,0.1,0.1,0.1c0,0,0.1,0.1,0.1,0.1v0c0,0,0,0,0,0c0.5,0,1-0.2,1.3-0.4
				c0,0,0.1,0,0.1-0.1c0.5-0.3,0.7-0.7,0.6-1.2c-0.1-0.2-0.2-0.4-0.3-0.6l-0.4,0.2c0.1,0.1,0.1,0.2,0.1,0.3c0.1,0.3,0,0.5-0.2,0.8
				c0,0,0,0,0,0.1c-0.1,0.1-0.2,0.2-0.4,0.3c-0.2,0.1-0.4,0.2-0.6,0.2C15,12.9,14.9,12.9,14.7,12.9L14.7,12.9z M13,9.5l0.4-0.2
				c-0.3-0.1-0.6-0.1-0.9-0.1c-0.9-0.1-1.7,0.1-2.3,0.4C10,9.7,9.7,9.9,9.6,10.2c0,0,0,0,0,0c0.2,0,0.3,0,0.5,0.1
				c0.1-0.2,0.3-0.4,0.5-0.5c0.5-0.3,1.1-0.4,1.9-0.3C12.7,9.5,12.9,9.5,13,9.5z"/>
			<path id="Shape_128_" class="st41" d="M10,11c-0.1,0-0.2,0-0.3,0c-0.2,0-0.4-0.1-0.6-0.1c0,0-0.1,0-0.1-0.1c0,0,0,0,0,0l0,0
				c0,0,0,0-0.1-0.1c-0.3-0.4-0.5-0.8-0.6-1.2v0c0-0.2-0.1-0.3-0.1-0.5l0,0.9c0,0,0,0,0,0s0,0,0,0c0,0.2,0,0.3,0.1,0.5
				c0.1,0.4,0.3,0.8,0.6,1.2c0.4-0.2,0.8-0.4,1.3-0.6c0.1-0.1,0.2-0.1,0.3-0.2v-0.2c0,0.1-0.1,0.2-0.2,0.2c0,0-0.1,0-0.1,0.1
				C10.1,11,10.1,11,10,11z"/>
			<path id="Shape_127_" class="st42" d="M13.3,13.1C13.3,13.1,13.3,13.1,13.3,13.1c0-0.1,0.1-0.2,0.2-0.3c0.1-0.1,0.3-0.1,0.5-0.1
				c0.2,0,0.4,0.1,0.6,0.1c0,0,0,0,0,0c0,0,0,0,0,0c0.2,0,0.3,0,0.5-0.1c0.3-0.2,0.6-0.3,0.9-0.5c0,0,0,0,0-0.1
				c0.2-0.2,0.2-0.5,0.2-0.8c0-0.1-0.1-0.2-0.1-0.3c-2.4,1.2-4.3,2.5-5.6,3.9l0,0v1.1l0,0c0.7-0.8,1.7-1.5,2.7-2.2v0.2c0,0,0,0,0,0
				c0,0.1,0.1,0.2,0.3,0.3c0,0,0,0,0,0c0.1,0,0.1,0,0.2,0.1c0,0,0,0,0.1,0c0.8,0.2,1.7,0.4,2.7,0.4c1.9,0.1,3.4-0.1,4.5-0.8
				c0.8-0.5,1.2-1,1.3-1.6c0-0.1,0-0.1,0-0.2l0-0.9c0,0.2,0,0.3-0.1,0.5c-0.2,0.4-0.6,0.8-1.2,1.2c-1.1,0.6-2.6,0.9-4.5,0.8
				c-0.4,0-0.9-0.1-1.3-0.1c-0.5-0.1-0.9-0.2-1.4-0.3c0,0,0,0-0.1,0c0,0,0,0-0.1,0c0,0-0.1,0-0.2-0.1c0,0,0,0,0,0
				C13.4,13.4,13.4,13.3,13.3,13.1z"/>
			<path id="Shape_126_" class="st43" d="M13,9.5c-0.2,0-0.3,0-0.5,0c-0.8-0.1-1.4,0-1.9,0.3c-0.3,0.1-0.4,0.3-0.5,0.5
				c0,0,0,0,0.1,0c0,0,0,0,0,0c0.2,0.1,0.3,0.2,0.3,0.3v0c0,0,0,0,0,0.1v0.2c0.1,0,0.1-0.1,0.2-0.1c0,0,0.1,0,0.1-0.1
				C11.6,10.4,12.3,9.9,13,9.5z"/>
			<polygon id="Shape_125_" class="st44" points="6,13 6,14.1 10.6,16.2 10.6,15.1 			"/>
			<path id="Shape_124_" class="st45" d="M14,6.3c-1.8-0.2-3.2,0-4.3,0.6C8.8,7.5,8.3,8.1,8.3,8.8c0,0.1,0,0.1,0,0.2v0
				c0,0.1,0,0.3,0.1,0.5v0c0.1,0.4,0.3,0.8,0.6,1.2c0,0,0,0.1,0.1,0.1l0,0c0,0,0,0,0,0c0,0,0.1,0,0.1,0.1c0.2,0.1,0.4,0.1,0.6,0.1
				c0.1,0,0.2,0,0.3,0c0,0,0.1,0,0.1,0c0,0,0.1,0,0.1-0.1c0.1-0.1,0.2-0.1,0.2-0.2c0,0,0,0,0-0.1v0c0-0.1-0.1-0.2-0.3-0.3
				c0,0,0,0,0,0c0,0,0,0-0.1,0c-0.1-0.1-0.3-0.1-0.5-0.1c0,0,0,0,0,0c0.1-0.2,0.3-0.5,0.6-0.6c0.6-0.3,1.3-0.5,2.3-0.4
				c0.3,0,0.6,0.1,0.9,0.1L13,9.5c-0.7,0.4-1.5,0.9-2.2,1.3c0,0-0.1,0-0.1,0.1c-0.1,0-0.1,0.1-0.2,0.1c-0.1,0.1-0.2,0.1-0.3,0.2
				c-0.4,0.2-0.8,0.4-1.3,0.6C8,12.2,7,12.6,6,13l4.6,2.1l0,0c1.3-1.4,3.2-2.7,5.6-3.9l0.4-0.2c0.1,0.2,0.3,0.4,0.3,0.6
				c0.1,0.5-0.1,0.9-0.6,1.2c0,0-0.1,0-0.1,0.1c-0.4,0.2-0.8,0.3-1.3,0.4c0,0,0,0,0,0v0c0-0.1,0-0.1-0.1-0.1c0,0-0.1-0.1-0.1-0.1
				c0,0,0,0,0,0c0,0,0,0,0,0c-0.2-0.1-0.3-0.1-0.6-0.1c-0.2,0-0.4,0-0.5,0.1c-0.1,0.1-0.2,0.2-0.2,0.3c0,0,0,0,0,0
				c0,0.1,0.1,0.2,0.3,0.3c0,0,0,0,0,0c0.1,0,0.1,0,0.2,0.1c0,0,0,0,0.1,0s0,0,0.1,0c0.4,0.1,0.9,0.2,1.4,0.3
				c0.4,0.1,0.8,0.1,1.3,0.1c1.9,0.1,3.4-0.1,4.5-0.8c0.6-0.4,1-0.7,1.2-1.2c0.1-0.2,0.1-0.3,0.1-0.5v0c0-0.2-0.1-0.5-0.2-0.7
				c-0.4-1-1.3-1.9-2.8-2.7c0,0,0,0-0.1,0c0,0,0,0-0.1,0l-0.1,0c-0.4-0.2-0.6-0.4-0.7-0.4C17.1,7,15.6,6.5,14,6.3z"/>
		</g>
		<g id="mushroom-copy-2" transform="translate(140.000000, 81.000000)">
			<path id="Shape_123_" class="st40" d="M39.9-12c0.1,0,0.1,0.1,0.1,0.1c0,0,0.1,0.1,0.1,0.1v0c0,0,0,0,0,0c0.5,0,1-0.2,1.3-0.4
				c0,0,0.1,0,0.1-0.1c0.5-0.3,0.7-0.7,0.6-1.2c-0.1-0.2-0.2-0.4-0.3-0.6l-0.4,0.2c0.1,0.1,0.1,0.2,0.1,0.3c0.1,0.3,0,0.5-0.2,0.8
				c0,0,0,0,0,0.1c-0.1,0.1-0.2,0.2-0.4,0.3c-0.2,0.1-0.4,0.2-0.6,0.2C40.2-12,40.1-12,39.9-12L39.9-12z M38.2-15.4l0.4-0.2
				c-0.3-0.1-0.6-0.1-0.9-0.1c-0.9-0.1-1.7,0.1-2.3,0.4c-0.3,0.2-0.5,0.4-0.6,0.6c0,0,0,0,0,0c0.2,0,0.3,0,0.5,0.1
				c0.1-0.2,0.3-0.4,0.5-0.5c0.5-0.3,1.1-0.4,1.9-0.3C37.9-15.4,38.1-15.4,38.2-15.4z"/>
			<path id="Shape_122_" class="st41" d="M35.2-13.8c-0.1,0-0.2,0-0.3,0c-0.2,0-0.4-0.1-0.6-0.1c0,0-0.1,0-0.1-0.1c0,0,0,0,0,0l0,0
				c0,0,0,0-0.1-0.1c-0.3-0.4-0.5-0.8-0.6-1.2v0c0-0.2-0.1-0.3-0.1-0.5l0,0.9c0,0,0,0,0,0s0,0,0,0c0,0.2,0,0.3,0.1,0.5
				c0.1,0.4,0.3,0.8,0.6,1.2c0.4-0.2,0.8-0.4,1.3-0.6c0.1-0.1,0.2-0.1,0.3-0.2v-0.2c0,0.1-0.1,0.2-0.2,0.2c0,0-0.1,0-0.1,0.1
				C35.3-13.8,35.3-13.8,35.2-13.8z"/>
			<path id="Shape_121_" class="st42" d="M38.5-11.7C38.5-11.7,38.5-11.7,38.5-11.7c0-0.1,0.1-0.2,0.2-0.3c0.1-0.1,0.3-0.1,0.5-0.1
				c0.2,0,0.4,0.1,0.6,0.1c0,0,0,0,0,0c0,0,0,0,0,0c0.2,0,0.3,0,0.5-0.1c0.3-0.2,0.6-0.3,0.9-0.5c0,0,0,0,0-0.1
				c0.2-0.2,0.2-0.5,0.2-0.8c0-0.1-0.1-0.2-0.1-0.3c-2.4,1.2-4.3,2.5-5.6,3.9l0,0v1.1l0,0c0.7-0.8,1.7-1.5,2.7-2.2v0.2c0,0,0,0,0,0
				c0,0.1,0.1,0.2,0.3,0.3c0,0,0,0,0,0c0.1,0,0.1,0,0.2,0.1c0,0,0,0,0.1,0c0.8,0.2,1.7,0.4,2.7,0.4c1.9,0.1,3.4-0.1,4.5-0.8
				c0.8-0.5,1.2-1,1.3-1.6c0-0.1,0-0.1,0-0.2l0-0.9c0,0.2,0,0.3-0.1,0.5c-0.2,0.4-0.6,0.8-1.2,1.2c-1.1,0.6-2.6,0.9-4.5,0.8
				c-0.4,0-0.9-0.1-1.3-0.1c-0.5-0.1-0.9-0.2-1.4-0.3c0,0,0,0-0.1,0s0,0-0.1,0c0,0-0.1,0-0.2-0.1c0,0,0,0,0,0
				C38.6-11.5,38.5-11.6,38.5-11.7z"/>
			<path id="Shape_120_" class="st43" d="M38.2-15.4c-0.2,0-0.3,0-0.5,0c-0.8-0.1-1.4,0-1.9,0.3c-0.3,0.1-0.4,0.3-0.5,0.5
				c0,0,0,0,0.1,0c0,0,0,0,0,0c0.2,0.1,0.3,0.2,0.3,0.3v0c0,0,0,0,0,0.1v0.2c0.1,0,0.1-0.1,0.2-0.1c0,0,0.1,0,0.1-0.1
				C36.7-14.5,37.5-14.9,38.2-15.4z"/>
			<polygon id="Shape_119_" class="st44" points="31.2,-11.9 31.2,-10.8 35.8,-8.7 35.8,-9.8 			"/>
			<path id="Shape_118_" class="st45" d="M39.2-18.6c-1.8-0.2-3.2,0-4.3,0.6c-0.9,0.5-1.3,1.1-1.4,1.9c0,0.1,0,0.1,0,0.2v0
				c0,0.1,0,0.3,0.1,0.5v0c0.1,0.4,0.3,0.8,0.6,1.2c0,0,0,0.1,0.1,0.1l0,0c0,0,0,0,0,0c0,0,0.1,0,0.1,0.1c0.2,0.1,0.4,0.1,0.6,0.1
				c0.1,0,0.2,0,0.3,0c0,0,0.1,0,0.1,0c0,0,0.1,0,0.1-0.1c0.1-0.1,0.2-0.1,0.2-0.2c0,0,0,0,0-0.1v0c0-0.1-0.1-0.2-0.3-0.3
				c0,0,0,0,0,0c0,0,0,0-0.1,0c-0.1-0.1-0.3-0.1-0.5-0.1c0,0,0,0,0,0c0.1-0.2,0.3-0.5,0.6-0.6c0.6-0.3,1.3-0.5,2.3-0.4
				c0.3,0,0.6,0.1,0.9,0.1l-0.4,0.2c-0.7,0.4-1.5,0.9-2.2,1.3c0,0-0.1,0-0.1,0.1c-0.1,0-0.1,0.1-0.2,0.1c-0.1,0.1-0.2,0.1-0.3,0.2
				c-0.4,0.2-0.8,0.4-1.3,0.6c-0.9,0.4-1.9,0.9-2.9,1.2l4.6,2.1l0,0c1.3-1.4,3.2-2.7,5.6-3.9l0.4-0.2c0.1,0.2,0.3,0.4,0.3,0.6
				c0.1,0.5-0.1,0.9-0.6,1.2c0,0-0.1,0-0.1,0.1c-0.4,0.2-0.8,0.3-1.3,0.4c0,0,0,0,0,0v0c0-0.1,0-0.1-0.1-0.1c0,0-0.1-0.1-0.1-0.1
				c0,0,0,0,0,0c0,0,0,0,0,0c-0.2-0.1-0.3-0.1-0.6-0.1c-0.2,0-0.4,0-0.5,0.1c-0.1,0.1-0.2,0.2-0.2,0.3c0,0,0,0,0,0
				c0,0.1,0.1,0.2,0.3,0.3c0,0,0,0,0,0c0.1,0,0.1,0,0.2,0.1c0,0,0,0,0.1,0s0,0,0.1,0c0.4,0.1,0.9,0.2,1.4,0.3
				c0.4,0.1,0.8,0.1,1.3,0.1c1.9,0.1,3.4-0.1,4.5-0.8c0.6-0.4,1-0.7,1.2-1.2c0.1-0.2,0.1-0.3,0.1-0.5v0c0-0.2-0.1-0.5-0.2-0.7
				c-0.4-1-1.3-1.9-2.8-2.7c0,0,0,0-0.1,0c0,0,0,0-0.1,0l-0.1,0c-0.4-0.2-0.6-0.4-0.7-0.4C42.3-17.9,40.8-18.4,39.2-18.6z"/>
		</g>
		<g id="mushroom-copy-3" transform="translate(59.000000, 62.000000)">
			<path id="Shape_117_" class="st40" d="M22.8,16.4c0.1,0,0.1,0.1,0.1,0.1c0,0,0.1,0.1,0.1,0.1v0c0,0,0,0,0,0c0.5,0,1-0.2,1.3-0.4
				c0,0,0.1,0,0.1-0.1c0.5-0.3,0.7-0.7,0.6-1.2c-0.1-0.2-0.2-0.4-0.3-0.6l-0.4,0.2c0.1,0.1,0.1,0.2,0.1,0.3c0.1,0.3,0,0.5-0.2,0.8
				c0,0,0,0,0,0.1c-0.1,0.1-0.2,0.2-0.4,0.3c-0.2,0.1-0.4,0.2-0.6,0.2C23.1,16.3,23,16.4,22.8,16.4L22.8,16.4z M21.1,13l0.4-0.2
				c-0.3-0.1-0.6-0.1-0.9-0.1c-0.9-0.1-1.7,0.1-2.3,0.4c-0.3,0.2-0.5,0.4-0.6,0.6c0,0,0,0,0,0c0.2,0,0.3,0,0.5,0.1
				c0.1-0.2,0.3-0.4,0.5-0.5c0.5-0.3,1.1-0.4,1.9-0.3C20.8,12.9,21,12.9,21.1,13z"/>
			<path id="Shape_116_" class="st41" d="M18.1,14.5c-0.1,0-0.2,0-0.3,0c-0.2,0-0.4-0.1-0.6-0.1c0,0-0.1,0-0.1-0.1c0,0,0,0,0,0l0,0
				c0,0,0,0-0.1-0.1c-0.3-0.4-0.5-0.8-0.6-1.2v0c0-0.2-0.1-0.3-0.1-0.5l0,0.9c0,0,0,0,0,0s0,0,0,0c0,0.2,0,0.3,0.1,0.5
				c0.1,0.4,0.3,0.8,0.6,1.2c0.4-0.2,0.8-0.4,1.3-0.6c0.1-0.1,0.2-0.1,0.3-0.2v-0.2c0,0.1-0.1,0.2-0.2,0.2c0,0-0.1,0-0.1,0.1
				C18.2,14.5,18.2,14.5,18.1,14.5z"/>
			<path id="Shape_115_" class="st42" d="M21.4,16.6C21.4,16.6,21.4,16.6,21.4,16.6c0-0.1,0.1-0.2,0.2-0.3c0.1-0.1,0.3-0.1,0.5-0.1
				c0.2,0,0.4,0.1,0.6,0.1c0,0,0,0,0,0c0,0,0,0,0,0c0.2,0,0.3,0,0.5-0.1c0.3-0.2,0.6-0.3,0.9-0.5c0,0,0,0,0-0.1
				c0.2-0.2,0.2-0.5,0.2-0.8c0-0.1-0.1-0.2-0.1-0.3c-2.4,1.2-4.3,2.5-5.6,3.9l0,0v1.1l0,0c0.7-0.8,1.7-1.5,2.7-2.2v0.2c0,0,0,0,0,0
				c0,0.1,0.1,0.2,0.3,0.3c0,0,0,0,0,0c0.1,0,0.1,0,0.2,0.1c0,0,0,0,0.1,0c0.8,0.2,1.7,0.4,2.7,0.4c1.9,0.1,3.4-0.1,4.5-0.8
				c0.8-0.5,1.2-1,1.3-1.6c0-0.1,0-0.1,0-0.2l0-0.9c0,0.2,0,0.3-0.1,0.5c-0.2,0.4-0.6,0.8-1.2,1.2c-1.1,0.6-2.6,0.9-4.5,0.8
				c-0.4,0-0.9-0.1-1.3-0.1c-0.5-0.1-0.9-0.2-1.4-0.3c0,0,0,0-0.1,0s0,0-0.1,0c0,0-0.1,0-0.2-0.1c0,0,0,0,0,0
				C21.5,16.8,21.4,16.7,21.4,16.6z"/>
			<path id="Shape_114_" class="st43" d="M21.1,13c-0.2,0-0.3,0-0.5,0c-0.8-0.1-1.4,0-1.9,0.3c-0.3,0.1-0.4,0.3-0.5,0.5
				c0,0,0,0,0.1,0c0,0,0,0,0,0c0.2,0.1,0.3,0.2,0.3,0.3v0c0,0,0,0,0,0.1v0.2c0.1,0,0.1-0.1,0.2-0.1c0,0,0.1,0,0.1-0.1
				C19.7,13.8,20.4,13.4,21.1,13z"/>
			<polygon id="Shape_113_" class="st44" points="14.1,16.4 14.1,17.5 18.7,19.7 18.7,18.6 			"/>
			<path id="Shape_112_" class="st45" d="M22.1,9.8c-1.8-0.2-3.2,0-4.3,0.6c-0.9,0.5-1.3,1.1-1.4,1.9c0,0.1,0,0.1,0,0.2v0
				c0,0.1,0,0.3,0.1,0.5v0c0.1,0.4,0.3,0.8,0.6,1.2c0,0,0,0.1,0.1,0.1l0,0c0,0,0,0,0,0c0,0,0.1,0,0.1,0.1c0.2,0.1,0.4,0.1,0.6,0.1
				c0.1,0,0.2,0,0.3,0c0,0,0.1,0,0.1,0c0,0,0.1,0,0.1-0.1c0.1-0.1,0.2-0.1,0.2-0.2c0,0,0,0,0-0.1v0c0-0.1-0.1-0.2-0.3-0.3
				c0,0,0,0,0,0c0,0,0,0-0.1,0c-0.1-0.1-0.3-0.1-0.5-0.1c0,0,0,0,0,0c0.1-0.2,0.3-0.5,0.6-0.6c0.6-0.3,1.3-0.5,2.3-0.4
				c0.3,0,0.6,0.1,0.9,0.1L21.1,13c-0.7,0.4-1.5,0.9-2.2,1.3c0,0-0.1,0-0.1,0.1c-0.1,0-0.1,0.1-0.2,0.1c-0.1,0.1-0.2,0.1-0.3,0.2
				c-0.4,0.2-0.8,0.4-1.3,0.6c-0.9,0.4-1.9,0.9-2.9,1.2l4.6,2.1l0,0c1.3-1.4,3.2-2.7,5.6-3.9l0.4-0.2c0.1,0.2,0.3,0.4,0.3,0.6
				c0.1,0.5-0.1,0.9-0.6,1.2c0,0-0.1,0-0.1,0.1c-0.4,0.2-0.8,0.3-1.3,0.4c0,0,0,0,0,0v0c0-0.1,0-0.1-0.1-0.1c0,0-0.1-0.1-0.1-0.1
				c0,0,0,0,0,0c0,0,0,0,0,0c-0.2-0.1-0.3-0.1-0.6-0.1c-0.2,0-0.4,0-0.5,0.1c-0.1,0.1-0.2,0.2-0.2,0.3c0,0,0,0,0,0
				c0,0.1,0.1,0.2,0.3,0.3c0,0,0,0,0,0c0.1,0,0.1,0,0.2,0.1c0,0,0,0,0.1,0s0,0,0.1,0c0.4,0.1,0.9,0.2,1.4,0.3
				c0.4,0.1,0.8,0.1,1.3,0.1c1.9,0.1,3.4-0.1,4.5-0.8c0.6-0.4,1-0.7,1.2-1.2c0.1-0.2,0.1-0.3,0.1-0.5v0c0-0.2-0.1-0.5-0.2-0.7
				c-0.4-1-1.3-1.9-2.8-2.7c0,0,0,0-0.1,0c0,0,0,0-0.1,0l-0.1,0c-0.4-0.2-0.6-0.4-0.7-0.4C25.2,10.4,23.7,10,22.1,9.8z"/>
		</g>
		<g id="mushroom-copy-4" transform="translate(118.000000, 59.000000)">
			<path id="Shape_111_" class="st40" d="M13.6,16.7c0.1,0,0.1,0.1,0.1,0.1c0,0,0.1,0.1,0.1,0.1v0c0,0,0,0,0,0c0.5,0,1-0.2,1.3-0.4
				c0,0,0.1,0,0.1-0.1c0.5-0.3,0.7-0.7,0.6-1.2c-0.1-0.2-0.2-0.4-0.3-0.6L15.1,15c0.1,0.1,0.1,0.2,0.1,0.3c0.1,0.3,0,0.5-0.2,0.8
				c0,0,0,0,0,0.1c-0.1,0.1-0.2,0.2-0.4,0.3c-0.2,0.1-0.4,0.2-0.6,0.2C13.9,16.6,13.8,16.7,13.6,16.7L13.6,16.7z M11.9,13.3l0.4-0.2
				C12,13,11.7,13,11.4,12.9c-0.9-0.1-1.7,0.1-2.3,0.4c-0.3,0.2-0.5,0.4-0.6,0.6c0,0,0,0,0,0c0.2,0,0.3,0,0.5,0.1
				c0.1-0.2,0.3-0.4,0.5-0.5c0.5-0.3,1.1-0.4,1.9-0.3C11.6,13.2,11.8,13.3,11.9,13.3z"/>
			<path id="Shape_110_" class="st41" d="M8.9,14.8c-0.1,0-0.2,0-0.3,0c-0.2,0-0.4-0.1-0.6-0.1c0,0-0.1,0-0.1-0.1c0,0,0,0,0,0l0,0
				c0,0,0,0-0.1-0.1c-0.3-0.4-0.5-0.8-0.6-1.2v0c0-0.2-0.1-0.3-0.1-0.5l0,0.9c0,0,0,0,0,0s0,0,0,0c0,0.2,0,0.3,0.1,0.5
				c0.1,0.4,0.3,0.8,0.6,1.2c0.4-0.2,0.8-0.4,1.3-0.6c0.1-0.1,0.2-0.1,0.3-0.2v-0.2c0,0.1-0.1,0.2-0.2,0.2c0,0-0.1,0-0.1,0.1
				C9,14.8,9,14.8,8.9,14.8z"/>
			<path id="Shape_109_" class="st42" d="M12.2,16.9C12.2,16.9,12.2,16.9,12.2,16.9c0-0.1,0.1-0.2,0.2-0.3c0.1-0.1,0.3-0.1,0.5-0.1
				c0.2,0,0.4,0.1,0.6,0.1c0,0,0,0,0,0c0,0,0,0,0,0c0.2,0,0.3,0,0.5-0.1c0.3-0.2,0.6-0.3,0.9-0.5c0,0,0,0,0-0.1
				c0.2-0.2,0.2-0.5,0.2-0.8c0-0.1-0.1-0.2-0.1-0.3c-2.4,1.2-4.3,2.5-5.6,3.9l0,0V20l0,0c0.7-0.8,1.7-1.5,2.7-2.2V18c0,0,0,0,0,0
				c0,0.1,0.1,0.2,0.3,0.3c0,0,0,0,0,0c0.1,0,0.1,0,0.2,0.1c0,0,0,0,0.1,0c0.8,0.2,1.7,0.4,2.7,0.4c1.9,0.1,3.4-0.1,4.5-0.8
				c0.8-0.5,1.2-1,1.3-1.6c0-0.1,0-0.1,0-0.2l0-0.9c0,0.2,0,0.3-0.1,0.5c-0.2,0.4-0.6,0.8-1.2,1.2c-1.1,0.6-2.6,0.9-4.5,0.8
				c-0.4,0-0.9-0.1-1.3-0.1c-0.5-0.1-0.9-0.2-1.4-0.3c0,0,0,0-0.1,0c0,0,0,0-0.1,0c0,0-0.1,0-0.2-0.1c0,0,0,0,0,0
				C12.3,17.2,12.2,17.1,12.2,16.9z"/>
			<path id="Shape_108_" class="st43" d="M11.9,13.3c-0.2,0-0.3,0-0.5,0c-0.8-0.1-1.4,0-1.9,0.3c-0.3,0.1-0.4,0.3-0.5,0.5
				c0,0,0,0,0.1,0c0,0,0,0,0,0c0.2,0.1,0.3,0.2,0.3,0.3v0c0,0,0,0,0,0.1v0.2c0.1,0,0.1-0.1,0.2-0.1c0,0,0.1,0,0.1-0.1
				C10.4,14.2,11.2,13.7,11.9,13.3z"/>
			<polygon id="Shape_107_" class="st44" points="4.9,16.8 4.9,17.8 9.5,20 9.5,18.9 			"/>
			<path id="Shape_106_" class="st45" d="M12.9,10.1c-1.8-0.2-3.2,0-4.3,0.6c-0.9,0.5-1.3,1.1-1.4,1.9c0,0.1,0,0.1,0,0.2v0
				c0,0.1,0,0.3,0.1,0.5v0c0.1,0.4,0.3,0.8,0.6,1.2c0,0,0,0.1,0.1,0.1l0,0c0,0,0,0,0,0c0,0,0.1,0,0.1,0.1c0.2,0.1,0.4,0.1,0.6,0.1
				c0.1,0,0.2,0,0.3,0c0,0,0.1,0,0.1,0c0,0,0.1,0,0.1-0.1c0.1-0.1,0.2-0.1,0.2-0.2c0,0,0,0,0-0.1v0c0-0.1-0.1-0.2-0.3-0.3
				c0,0,0,0,0,0c0,0,0,0-0.1,0C8.9,14,8.7,14,8.5,14c0,0,0,0,0,0c0.1-0.2,0.3-0.5,0.6-0.6c0.6-0.3,1.3-0.5,2.3-0.4
				c0.3,0,0.6,0.1,0.9,0.1l-0.4,0.2c-0.7,0.4-1.5,0.9-2.2,1.3c0,0-0.1,0-0.1,0.1c-0.1,0-0.1,0.1-0.2,0.1c-0.1,0.1-0.2,0.1-0.3,0.2
				c-0.4,0.2-0.8,0.4-1.3,0.6c-0.9,0.4-1.9,0.9-2.9,1.2l4.6,2.1l0,0c1.3-1.4,3.2-2.7,5.6-3.9l0.4-0.2c0.1,0.2,0.3,0.4,0.3,0.6
				c0.1,0.5-0.1,0.9-0.6,1.2c0,0-0.1,0-0.1,0.1c-0.4,0.2-0.8,0.3-1.3,0.4c0,0,0,0,0,0v0c0-0.1,0-0.1-0.1-0.1c0,0-0.1-0.1-0.1-0.1
				c0,0,0,0,0,0c0,0,0,0,0,0c-0.2-0.1-0.3-0.1-0.6-0.1c-0.2,0-0.4,0-0.5,0.1c-0.1,0.1-0.2,0.2-0.2,0.3c0,0,0,0,0,0
				c0,0.1,0.1,0.2,0.3,0.3c0,0,0,0,0,0c0.1,0,0.1,0,0.2,0.1c0,0,0,0,0.1,0c0,0,0,0,0.1,0c0.4,0.1,0.9,0.2,1.4,0.3
				c0.4,0.1,0.8,0.1,1.3,0.1c1.9,0.1,3.4-0.1,4.5-0.8c0.6-0.4,1-0.7,1.2-1.2c0.1-0.2,0.1-0.3,0.1-0.5v0c0-0.2-0.1-0.5-0.2-0.7
				c-0.4-1-1.3-1.9-2.8-2.7c0,0,0,0-0.1,0c0,0,0,0-0.1,0l-0.1,0c-0.4-0.2-0.6-0.4-0.7-0.4C16,10.7,14.5,10.3,12.9,10.1z"/>
		</g>
	</g>
	<g id="Artboard_3_">
		<g id="bacon" transform="translate(127.000000, 18.000000)">
			<polygon id="Shape_185_" class="st46" points="-6.5,31.6 -6.5,31.6 -6.5,32.4 -5.1,33.2 -5.1,32.5 -5.1,32.4 			"/>
			<path id="Shape_184_" class="st47" d="M2.6,28.3c-0.6,0.4-1.3,1.2-2.2,2.5c-0.8,1.2-1.5,2-2,2.3c-0.4,0.2-1,0.4-1.8,0.4l-1.9-1.1
				h0v0.7l1.9,1.1c1-0.1,1.8-0.2,2.2-0.5c0.5-0.3,1.2-1.1,2-2.3c0.8-1.3,1.5-2.1,2.2-2.5c0.6-0.4,1.7-0.6,3.2-0.7
				c0.8,0,1.3-0.1,1.6-0.1c0.1,0,0.1,0,0.2,0v-0.8c-0.2,0.1-0.5,0.1-0.7,0.1c-0.3,0-0.8,0.1-1.6,0.1C4.3,27.7,3.3,27.9,2.6,28.3z"/>
			<path id="Shape_183_" class="st48" d="M0.5,30.8c0.8-1.3,1.5-2.1,2.2-2.5c0.7-0.4,1.7-0.6,3.2-0.7c0.8,0,1.3-0.1,1.6-0.1
				c0.3,0,0.5-0.1,0.7-0.1c0,0,0,0,0,0l-1.8-1.1c-0.2,0.1-0.5,0.1-0.8,0.2c-0.3,0-0.8,0.1-1.6,0.1c-1.5,0.1-2.5,0.3-3.2,0.7
				c-0.6,0.4-1.3,1.2-2.2,2.5c-0.8,1.2-1.5,2-2,2.3c-0.4,0.2-0.9,0.3-1.7,0.4l1.9,1.1c0.8-0.1,1.4-0.2,1.8-0.4
				C-1,32.8-0.3,32.1,0.5,30.8z"/>
			<path id="Shape_182_" class="st49" d="M5,25.5c-0.2,0.1-0.5,0.1-0.7,0.1c-0.3,0-0.8,0.1-1.6,0.1c-1.5,0.1-2.5,0.3-3.2,0.7
				c-0.6,0.4-1.3,1.2-2.2,2.5c-0.8,1.2-1.5,2-2,2.3c-0.4,0.2-1,0.4-1.8,0.4l1.4,0.8l0,0c0.8-0.1,1.4-0.2,1.7-0.4
				c0.5-0.3,1.2-1.1,2-2.3c0.8-1.3,1.5-2.1,2.2-2.5c0.7-0.4,1.7-0.6,3.2-0.7c0.8,0,1.3-0.1,1.6-0.1c0.3,0,0.5-0.1,0.8-0.2L5,25.5z"
				/>
			<path id="Shape_181_" class="st50" d="M4.3,25.6c0.3,0,0.5-0.1,0.7-0.1l-2.2-1.3c-0.2,0.1-0.5,0.1-0.8,0.2
				c-0.3,0-0.9,0.1-1.6,0.1c-1.5,0.1-2.5,0.3-3.2,0.7c-0.6,0.4-1.4,1.2-2.2,2.5c-0.8,1.2-1.5,2-2,2.3c-0.4,0.2-1,0.3-1.8,0.4
				l2.2,1.3h0c0.8-0.1,1.4-0.2,1.8-0.4c0.5-0.3,1.2-1.1,2-2.3c0.8-1.3,1.5-2.1,2.2-2.5c0.7-0.4,1.7-0.6,3.2-0.7
				C3.4,25.7,4,25.6,4.3,25.6z"/>
			<polygon id="Shape_180_" class="st51" points="-8.8,30.3 -8.8,31.1 -6.5,32.4 -6.5,31.6 			"/>
			<polygon id="Shape_179_" class="st52" points="-10.3,30.2 -8.8,31.1 -8.8,30.3 -10.3,29.4 			"/>
			<polygon id="Shape_178_" class="st53" points="-10.3,29.4 -10.3,29.4 -12.8,28.1 -12.8,28.9 -10.3,30.2 			"/>
			<path id="Shape_177_" class="st54" d="M-8.3,29c-0.4,0.2-1.1,0.4-2,0.4l1.6,0.9c0.8-0.1,1.4-0.2,1.8-0.4c0.5-0.3,1.2-1.1,2-2.3
				c0.8-1.3,1.5-2.1,2.2-2.5c0.6-0.4,1.7-0.6,3.2-0.7c0.8,0,1.3-0.1,1.6-0.1c0.3,0,0.6-0.1,0.8-0.2l-1.5-0.9
				c-0.2,0.1-0.4,0.1-0.7,0.1c-0.3,0-0.8,0.1-1.6,0.1c-1.5,0.1-2.5,0.3-3.2,0.7c-0.6,0.4-1.3,1.2-2.2,2.5C-7.2,27.9-7.8,28.7-8.3,29
				z"/>
			<path id="Shape_176_" class="st55" d="M-10.3,29.4c0.9-0.1,1.6-0.2,2-0.4c0.5-0.3,1.2-1.1,2-2.3c0.8-1.3,1.5-2.1,2.2-2.5
				c0.6-0.4,1.7-0.6,3.2-0.7c0.8,0,1.3-0.1,1.6-0.1c0.2,0,0.5-0.1,0.7-0.1l-2.5-1.5c-0.2,0.1-0.5,0.1-0.7,0.1
				c-0.3,0-0.8,0.1-1.6,0.1C-5,22-6.1,22.3-6.8,22.7c-0.6,0.4-1.3,1.2-2.2,2.5c-0.8,1.2-1.5,2-2,2.3c-0.4,0.2-1,0.5-1.9,0.6
				L-10.3,29.4L-10.3,29.4L-10.3,29.4z"/>
		</g>
		<g id="bacon-copy" transform="translate(156.000000, 39.000000)">
			<polygon id="Shape_175_" class="st46" points="5.3,17.1 5.3,17.1 5.3,17.8 6.7,18.6 6.7,17.9 6.7,17.9 			"/>
			<path id="Shape_174_" class="st47" d="M14.5,13.8c-0.6,0.4-1.3,1.2-2.2,2.5c-0.8,1.2-1.5,2-2,2.3c-0.4,0.2-1,0.4-1.8,0.4
				l-1.9-1.1h0v0.7l1.9,1.1c1-0.1,1.8-0.2,2.2-0.5c0.5-0.3,1.2-1.1,2-2.3c0.8-1.3,1.5-2.1,2.2-2.5c0.6-0.4,1.7-0.6,3.2-0.7
				c0.8,0,1.3-0.1,1.6-0.1c0.1,0,0.1,0,0.2,0v-0.8c-0.2,0.1-0.5,0.1-0.7,0.1c-0.3,0-0.8,0.1-1.6,0.1C16.2,13.1,15.1,13.4,14.5,13.8z
				"/>
			<path id="Shape_173_" class="st48" d="M12.3,16.3c0.8-1.3,1.5-2.1,2.2-2.5c0.7-0.4,1.7-0.6,3.2-0.7c0.8,0,1.3-0.1,1.6-0.1
				c0.3,0,0.5-0.1,0.7-0.1c0,0,0,0,0,0l-1.8-1.1c-0.2,0.1-0.5,0.1-0.8,0.2c-0.3,0-0.8,0.1-1.6,0.1c-1.5,0.1-2.5,0.3-3.2,0.7
				c-0.6,0.4-1.3,1.2-2.2,2.5c-0.8,1.2-1.5,2-2,2.3c-0.4,0.2-0.9,0.3-1.7,0.4L8.6,19c0.8-0.1,1.4-0.2,1.8-0.4
				C10.9,18.3,11.5,17.5,12.3,16.3z"/>
			<path id="Shape_172_" class="st49" d="M16.9,10.9c-0.2,0.1-0.5,0.1-0.7,0.1c-0.3,0-0.8,0.1-1.6,0.1c-1.5,0.1-2.5,0.3-3.2,0.7
				c-0.6,0.4-1.3,1.2-2.2,2.5c-0.8,1.2-1.5,2-2,2.3c-0.4,0.2-1,0.4-1.8,0.4l1.4,0.8l0,0c0.8-0.1,1.4-0.2,1.7-0.4
				c0.5-0.3,1.2-1.1,2-2.3c0.8-1.3,1.5-2.1,2.2-2.5c0.7-0.4,1.7-0.6,3.2-0.7c0.8,0,1.3-0.1,1.6-0.1c0.3,0,0.5-0.1,0.8-0.2L16.9,10.9
				z"/>
			<path id="Shape_171_" class="st50" d="M16.1,11.1c0.3,0,0.5-0.1,0.7-0.1l-2.2-1.3c-0.2,0.1-0.5,0.1-0.8,0.2
				c-0.3,0-0.9,0.1-1.6,0.1c-1.5,0.1-2.5,0.3-3.2,0.7C8.4,11,7.6,11.8,6.8,13c-0.8,1.2-1.5,2-2,2.3c-0.4,0.2-1,0.3-1.8,0.4l2.2,1.3
				h0c0.8-0.1,1.4-0.2,1.8-0.4c0.5-0.3,1.2-1.1,2-2.3c0.8-1.3,1.5-2.1,2.2-2.5c0.7-0.4,1.7-0.6,3.2-0.7
				C15.3,11.1,15.8,11.1,16.1,11.1z"/>
			<polygon id="Shape_170_" class="st51" points="3.1,15.8 3.1,16.5 5.3,17.8 5.3,17.1 			"/>
			<polygon id="Shape_169_" class="st52" points="1.5,15.6 3.1,16.5 3.1,15.8 1.5,14.9 			"/>
			<polygon id="Shape_168_" class="st53" points="1.5,14.9 1.5,14.9 -1,13.5 -1,14.3 1.5,15.6 			"/>
			<path id="Shape_167_" class="st54" d="M3.5,14.4c-0.4,0.2-1.1,0.4-2,0.4l1.6,0.9c0.8-0.1,1.4-0.2,1.8-0.4c0.5-0.3,1.2-1.1,2-2.3
				C7.6,11.8,8.4,11,9,10.6c0.6-0.4,1.7-0.6,3.2-0.7c0.8,0,1.3-0.1,1.6-0.1c0.3,0,0.6-0.1,0.8-0.2l-1.5-0.9
				c-0.2,0.1-0.4,0.1-0.7,0.1c-0.3,0-0.8,0.1-1.6,0.1C9.4,9,8.3,9.2,7.6,9.6C7,10,6.3,10.8,5.5,12.1C4.7,13.4,4,14.1,3.5,14.4z"/>
			<path id="Shape_166_" class="st55" d="M1.5,14.9c0.9-0.1,1.6-0.2,2-0.4c0.5-0.3,1.2-1.1,2-2.3C6.3,10.8,7,10,7.6,9.6
				C8.3,9.2,9.4,9,10.8,8.9c0.8,0,1.3-0.1,1.6-0.1c0.2,0,0.5-0.1,0.7-0.1l-2.5-1.5c-0.2,0.1-0.5,0.1-0.7,0.1c-0.3,0-0.8,0.1-1.6,0.1
				C6.8,7.5,5.7,7.7,5.1,8.1c-0.6,0.4-1.3,1.2-2.2,2.5c-0.8,1.2-1.5,2-2,2.3c-0.4,0.2-1,0.5-1.9,0.6L1.5,14.9L1.5,14.9L1.5,14.9z"/>
		</g>
		<g id="bacon-copy-2" transform="translate(128.000000, 73.000000)">
			<polygon id="Shape_165_" class="st46" points="-20.2,19 -20.2,19 -20.2,19.7 -18.8,20.5 -18.8,19.8 -18.8,19.8 			"/>
			<path id="Shape_164_" class="st47" d="M-11,15.7c-0.6,0.4-1.3,1.2-2.2,2.5c-0.8,1.2-1.5,2-2,2.3c-0.4,0.2-1,0.4-1.8,0.4l-1.9-1.1
				h0v0.7l1.9,1.1c1-0.1,1.8-0.2,2.2-0.5c0.5-0.3,1.2-1.1,2-2.3c0.8-1.3,1.5-2.1,2.2-2.5c0.6-0.4,1.7-0.6,3.2-0.7
				c0.8,0,1.3-0.1,1.6-0.1c0.1,0,0.1,0,0.2,0v-0.8c-0.2,0.1-0.5,0.1-0.7,0.1c-0.3,0-0.8,0.1-1.6,0.1C-9.3,15-10.4,15.3-11,15.7z"/>
			<path id="Shape_163_" class="st48" d="M-13.2,18.2c0.8-1.3,1.5-2.1,2.2-2.5c0.7-0.4,1.7-0.6,3.2-0.7c0.8,0,1.3-0.1,1.6-0.1
				c0.3,0,0.5-0.1,0.7-0.1c0,0,0,0,0,0l-1.8-1.1c-0.2,0.1-0.5,0.1-0.8,0.2c-0.3,0-0.8,0.1-1.6,0.1c-1.5,0.1-2.5,0.3-3.2,0.7
				c-0.6,0.4-1.3,1.2-2.2,2.5c-0.8,1.2-1.5,2-2,2.3c-0.4,0.2-0.9,0.3-1.7,0.4l1.9,1.1c0.8-0.1,1.4-0.2,1.8-0.4
				C-14.7,20.2-14,19.4-13.2,18.2z"/>
			<path id="Shape_162_" class="st49" d="M-8.6,12.8c-0.2,0.1-0.5,0.1-0.7,0.1c-0.3,0-0.8,0.1-1.6,0.1c-1.5,0.1-2.5,0.3-3.2,0.7
				c-0.6,0.4-1.3,1.2-2.2,2.5c-0.8,1.2-1.5,2-2,2.3c-0.4,0.2-1,0.4-1.8,0.4l1.4,0.8l0,0c0.8-0.1,1.4-0.2,1.7-0.4
				c0.5-0.3,1.2-1.1,2-2.3c0.8-1.3,1.5-2.1,2.2-2.5c0.7-0.4,1.7-0.6,3.2-0.7c0.8,0,1.3-0.1,1.6-0.1c0.3,0,0.5-0.1,0.8-0.2L-8.6,12.8
				z"/>
			<path id="Shape_161_" class="st50" d="M-9.4,13c0.3,0,0.5-0.1,0.7-0.1l-2.2-1.3c-0.2,0.1-0.5,0.1-0.8,0.2c-0.3,0-0.9,0.1-1.6,0.1
				c-1.5,0.1-2.5,0.3-3.2,0.7c-0.6,0.4-1.4,1.2-2.2,2.5c-0.8,1.2-1.5,2-2,2.3c-0.4,0.2-1,0.3-1.8,0.4l2.2,1.3h0
				c0.8-0.1,1.4-0.2,1.8-0.4c0.5-0.3,1.2-1.1,2-2.3c0.8-1.3,1.5-2.1,2.2-2.5c0.7-0.4,1.7-0.6,3.2-0.7C-10.2,13-9.7,13-9.4,13z"/>
			<polygon id="Shape_160_" class="st51" points="-22.4,17.7 -22.4,18.4 -20.2,19.7 -20.2,19 			"/>
			<polygon id="Shape_159_" class="st52" points="-24,17.5 -22.4,18.4 -22.4,17.7 -24,16.8 			"/>
			<polygon id="Shape_158_" class="st53" points="-24,16.8 -24,16.8 -26.5,15.4 -26.5,16.2 -24,17.5 			"/>
			<path id="Shape_157_" class="st54" d="M-22,16.3c-0.4,0.2-1.1,0.4-2,0.4l1.6,0.9c0.8-0.1,1.4-0.2,1.8-0.4c0.5-0.3,1.2-1.1,2-2.3
				c0.8-1.3,1.5-2.1,2.2-2.5c0.6-0.4,1.7-0.6,3.2-0.7c0.8,0,1.3-0.1,1.6-0.1c0.3,0,0.6-0.1,0.8-0.2l-1.5-0.9
				c-0.2,0.1-0.4,0.1-0.7,0.1c-0.3,0-0.8,0.1-1.6,0.1c-1.5,0.1-2.5,0.3-3.2,0.7c-0.6,0.4-1.3,1.2-2.2,2.5
				C-20.8,15.3-21.5,16-22,16.3z"/>
			<path id="Shape_156_" class="st55" d="M-24,16.8c0.9-0.1,1.6-0.2,2-0.4c0.5-0.3,1.2-1.1,2-2.3c0.8-1.3,1.5-2.1,2.2-2.5
				c0.6-0.4,1.7-0.6,3.2-0.7c0.8,0,1.3-0.1,1.6-0.1c0.2,0,0.5-0.1,0.7-0.1l-2.5-1.5c-0.2,0.1-0.5,0.1-0.7,0.1
				c-0.3,0-0.8,0.1-1.6,0.1c-1.5,0.1-2.5,0.3-3.2,0.7c-0.6,0.4-1.3,1.2-2.2,2.5c-0.8,1.2-1.5,2-2,2.3c-0.4,0.2-1,0.5-1.9,0.6
				L-24,16.8L-24,16.8L-24,16.8z"/>
		</g>
		<g id="bacon-copy-3" transform="translate(65.000000, 52.000000)">
			<polygon id="Shape_155_" class="st46" points="-0.1,5.3 -0.1,5.3 -0.1,6 1.3,6.8 1.3,6.1 1.3,6 			"/>
			<path id="Shape_154_" class="st47" d="M9,1.9C8.4,2.3,7.7,3.2,6.9,4.4c-0.8,1.2-1.5,2-2,2.3c-0.4,0.2-1,0.4-1.8,0.4L1.3,6.1h0
				v0.7l1.9,1.1c1-0.1,1.8-0.2,2.2-0.5c0.5-0.3,1.2-1.1,2-2.3C8.2,3.8,8.9,3,9.5,2.6c0.6-0.4,1.7-0.6,3.2-0.7c0.8,0,1.3-0.1,1.6-0.1
				c0.1,0,0.1,0,0.2,0V1c-0.2,0.1-0.5,0.1-0.7,0.1c-0.3,0-0.8,0.1-1.6,0.1C10.8,1.3,9.7,1.5,9,1.9z"/>
			<path id="Shape_153_" class="st48" d="M6.9,4.4C7.7,3.2,8.4,2.3,9,1.9c0.7-0.4,1.7-0.6,3.2-0.7c0.8,0,1.3-0.1,1.6-0.1
				c0.3,0,0.5-0.1,0.7-0.1c0,0,0,0,0,0l-1.8-1.1C12.5-0.1,12.3,0,12,0c-0.3,0-0.8,0.1-1.6,0.1C8.9,0.2,7.8,0.4,7.2,0.8
				C6.5,1.2,5.8,2.1,5,3.3c-0.8,1.2-1.5,2-2,2.3C2.6,5.8,2.1,6,1.3,6.1l1.9,1.1c0.8-0.1,1.4-0.2,1.8-0.4C5.4,6.4,6.1,5.7,6.9,4.4z"
				/>
			<path id="Shape_152_" class="st49" d="M11.4-0.9c-0.2,0.1-0.5,0.1-0.7,0.1c-0.3,0-0.8,0.1-1.6,0.1C7.6-0.6,6.5-0.4,5.9,0
				C5.3,0.4,4.5,1.3,3.7,2.5c-0.8,1.2-1.5,2-2,2.3C1.3,5,0.7,5.2-0.1,5.3L1.3,6l0,0C2.1,6,2.6,5.8,3,5.6c0.5-0.3,1.2-1.1,2-2.3
				c0.8-1.3,1.5-2.1,2.2-2.5c0.7-0.4,1.7-0.6,3.2-0.7c0.8,0,1.3-0.1,1.6-0.1c0.3,0,0.5-0.1,0.8-0.2L11.4-0.9z"/>
			<path id="Shape_151_" class="st50" d="M10.7-0.8c0.3,0,0.5-0.1,0.7-0.1L9.2-2.3C9-2.2,8.7-2.1,8.4-2.1C8.1-2.1,7.5-2,6.7-2
				C5.3-1.9,4.2-1.7,3.6-1.3C2.9-0.9,2.2-0.1,1.4,1.2c-0.8,1.2-1.5,2-2,2.3c-0.4,0.2-1,0.3-1.8,0.4l2.2,1.3h0C0.7,5.2,1.3,5,1.7,4.8
				c0.5-0.3,1.2-1.1,2-2.3C4.5,1.3,5.3,0.4,5.9,0c0.7-0.4,1.7-0.6,3.2-0.7C9.9-0.7,10.4-0.7,10.7-0.8z"/>
			<polygon id="Shape_150_" class="st51" points="-2.3,3.9 -2.3,4.7 -0.1,6 -0.1,5.3 			"/>
			<polygon id="Shape_149_" class="st52" points="-3.9,3.8 -2.3,4.7 -2.3,3.9 -3.9,3 			"/>
			<polygon id="Shape_148_" class="st53" points="-3.9,3 -3.9,3 -6.4,1.7 -6.4,2.5 -3.9,3.8 			"/>
			<path id="Shape_147_" class="st54" d="M-1.9,2.6C-2.3,2.8-3,2.9-3.9,3l1.6,0.9C-1.5,3.9-1,3.7-0.6,3.5c0.5-0.3,1.2-1.1,2-2.3
				c0.8-1.3,1.5-2.1,2.2-2.5C4.2-1.7,5.3-1.9,6.7-2c0.8,0,1.3-0.1,1.6-0.1c0.3,0,0.6-0.1,0.8-0.2L7.7-3.2C7.5-3.1,7.3-3.1,7-3
				C6.7-3,6.2-3,5.4-2.9C3.9-2.9,2.9-2.6,2.2-2.2C1.6-1.8,0.9-1,0.1,0.3C-0.7,1.5-1.4,2.3-1.9,2.6z"/>
			<path id="Shape_146_" class="st55" d="M-3.9,3c0.9-0.1,1.6-0.2,2-0.4c0.5-0.3,1.2-1.1,2-2.3C0.9-1,1.6-1.8,2.2-2.2
				c0.6-0.4,1.7-0.6,3.2-0.7C6.2-3,6.7-3,7-3c0.2,0,0.5-0.1,0.7-0.1L5.2-4.7C5-4.6,4.7-4.6,4.5-4.5c-0.3,0-0.8,0.1-1.6,0.1
				C1.4-4.4,0.3-4.1-0.3-3.7C-1-3.3-1.7-2.5-2.5-1.2c-0.8,1.2-1.5,2-2,2.3c-0.4,0.2-1,0.5-1.9,0.6L-3.9,3L-3.9,3L-3.9,3z"/>
		</g>
		<g id="bacon-copy-4" transform="translate(106.000000, 56.000000)">
			<polygon id="Shape_145_" class="st46" points="46.2,20.8 46.2,20.8 46.2,21.5 47.6,22.3 47.6,21.6 47.6,21.6 			"/>
			<path id="Shape_144_" class="st47" d="M55.3,17.5c-0.6,0.4-1.3,1.2-2.2,2.5c-0.8,1.2-1.5,2-2,2.3c-0.4,0.2-1,0.4-1.8,0.4
				l-1.9-1.1h0v0.7l1.9,1.1c1-0.1,1.8-0.2,2.2-0.5c0.5-0.3,1.2-1.1,2-2.3c0.8-1.3,1.5-2.1,2.2-2.5c0.6-0.4,1.7-0.6,3.2-0.7
				c0.8,0,1.3-0.1,1.6-0.1c0.1,0,0.1,0,0.2,0v-0.8c-0.2,0.1-0.5,0.1-0.7,0.1c-0.3,0-0.8,0.1-1.6,0.1C57.1,16.8,56,17,55.3,17.5z"/>
			<path id="Shape_143_" class="st48" d="M53.2,20c0.8-1.3,1.5-2.1,2.2-2.5c0.7-0.4,1.7-0.6,3.2-0.7c0.8,0,1.3-0.1,1.6-0.1
				c0.3,0,0.5-0.1,0.7-0.1c0,0,0,0,0,0l-1.8-1.1c-0.2,0.1-0.5,0.1-0.8,0.2c-0.3,0-0.8,0.1-1.6,0.1c-1.5,0.1-2.5,0.3-3.2,0.7
				c-0.6,0.4-1.3,1.2-2.2,2.5c-0.8,1.2-1.5,2-2,2.3c-0.4,0.2-0.9,0.3-1.7,0.4l1.9,1.1c0.8-0.1,1.4-0.2,1.8-0.4
				C51.7,22,52.4,21.2,53.2,20z"/>
			<path id="Shape_142_" class="st49" d="M57.7,14.6c-0.2,0.1-0.5,0.1-0.7,0.1c-0.3,0-0.8,0.1-1.6,0.1c-1.5,0.1-2.5,0.3-3.2,0.7
				c-0.6,0.4-1.3,1.2-2.2,2.5c-0.8,1.2-1.5,2-2,2.3c-0.4,0.2-1,0.4-1.8,0.4l1.4,0.8l0,0c0.8-0.1,1.4-0.2,1.7-0.4
				c0.5-0.3,1.2-1.1,2-2.3c0.8-1.3,1.5-2.1,2.2-2.5c0.7-0.4,1.7-0.6,3.2-0.7c0.8,0,1.3-0.1,1.6-0.1c0.3,0,0.5-0.1,0.8-0.2L57.7,14.6
				z"/>
			<path id="Shape_141_" class="st50" d="M57,14.7c0.3,0,0.5-0.1,0.7-0.1l-2.2-1.3c-0.2,0.1-0.5,0.1-0.8,0.2c-0.3,0-0.9,0.1-1.6,0.1
				c-1.5,0.1-2.5,0.3-3.2,0.7c-0.6,0.4-1.4,1.2-2.2,2.5c-0.8,1.2-1.5,2-2,2.3c-0.4,0.2-1,0.3-1.8,0.4l2.2,1.3h0
				c0.8-0.1,1.4-0.2,1.8-0.4c0.5-0.3,1.2-1.1,2-2.3c0.8-1.3,1.5-2.1,2.2-2.5c0.7-0.4,1.7-0.6,3.2-0.7C56.1,14.8,56.7,14.8,57,14.7z"
				/>
			<polygon id="Shape_140_" class="st51" points="43.9,19.5 43.9,20.2 46.2,21.5 46.2,20.8 			"/>
			<polygon id="Shape_139_" class="st52" points="42.4,19.3 43.9,20.2 43.9,19.5 42.4,18.5 			"/>
			<polygon id="Shape_138_" class="st53" points="42.4,18.5 42.4,18.5 39.9,17.2 39.9,18 42.4,19.3 			"/>
			<path id="Shape_137_" class="st54" d="M44.4,18.1c-0.4,0.2-1.1,0.4-2,0.4l1.6,0.9c0.8-0.1,1.4-0.2,1.8-0.4c0.5-0.3,1.2-1.1,2-2.3
				c0.8-1.3,1.5-2.1,2.2-2.5c0.6-0.4,1.7-0.6,3.2-0.7c0.8,0,1.3-0.1,1.6-0.1c0.3,0,0.6-0.1,0.8-0.2L54,12.4
				c-0.2,0.1-0.4,0.1-0.7,0.1c-0.3,0-0.8,0.1-1.6,0.1c-1.5,0.1-2.5,0.3-3.2,0.7c-0.6,0.4-1.3,1.2-2.2,2.5
				C45.6,17,44.9,17.8,44.4,18.1z"/>
			<path id="Shape_136_" class="st55" d="M42.4,18.5c0.9-0.1,1.6-0.2,2-0.4c0.5-0.3,1.2-1.1,2-2.3c0.8-1.3,1.5-2.1,2.2-2.5
				c0.6-0.4,1.7-0.6,3.2-0.7c0.8,0,1.3-0.1,1.6-0.1c0.2,0,0.5-0.1,0.7-0.1l-2.5-1.5C51.3,10.9,51,11,50.8,11c-0.3,0-0.8,0.1-1.6,0.1
				c-1.5,0.1-2.5,0.3-3.2,0.7c-0.6,0.4-1.3,1.2-2.2,2.5c-0.8,1.2-1.5,2-2,2.3c-0.4,0.2-1,0.5-1.9,0.6L42.4,18.5L42.4,18.5L42.4,18.5
				z"/>
		</g>
	</g>
	<g id="Artboard_4_">
		<g id="basil" transform="translate(73.000000, 57.000000)">
			
				<g id="Group_12_" transform="translate(10.434375, 7.206522) scale(-1, 1) translate(-10.434375, -7.206522) translate(0.262500, 0.032609)">
				<g id="people_0_Layer12_12_FILL">
					<g>
						<path id="Shape_205_" class="st56" d="M7.2,24.9L7.2,24.9l0,0.6h0c0,0,0.1,0,0.1,0c0,0,0.1,0,0.1,0c0,0,0,0,0-0.1v0l0-0.5
							c0,0,0,0,0,0c0,0-0.1,0-0.1,0C7.2,24.9,7.2,24.9,7.2,24.9z"/>
						<path id="Shape_204_" class="st57" d="M9.4,23.3l0-0.4c0,0.1,0,0.1,0,0.2c-0.1,0.7-0.8,1.3-2,1.6c0,0,0,0,0,0c0,0,0,0,0,0
							l0,0.5C8.8,24.9,9.5,24.2,9.4,23.3L9.4,23.3z M-4,24.8c1.9,1.1,4,1.7,6.4,1.9c2.3,0.2,3.9-0.2,4.8-1.3v-0.6
							c-0.9,1-2.5,1.5-4.8,1.3C0,25.9-2.1,25.3-4,24.2s-3.4-2.3-4.4-3.6c-1-1.2-1.6-3.4-1.9-6.4c0-0.2,0-0.4-0.1-0.6V15
							c0.3,2.8,0.9,4.9,1.9,6.2C-7.4,22.5-5.9,23.7-4,24.8z"/>
						<path id="Shape_203_" class="st58" d="M-2.6,16.6C-2.6,16.6-2.6,16.6-2.6,16.6C-2.6,16.6-2.6,16.5-2.6,16.6
							C-2.5,16.5-2.5,16.5-2.6,16.6c0.1-0.1,0.1-0.1,0.2,0c0.8,0.9,0.4,1.7-1.1,2.4c1.5,1,3.1,2,4.9,2.9c0.7-0.5,0.9-1.4,0.8-2.5
							c0,0,0,0,0,0c0,0,0,0,0.1,0c0,0,0,0,0.1,0c0,0,0,0,0,0c0.1,1.2-0.2,2-0.9,2.6c1.2,0.6,2.5,1.3,3.8,1.9
							c0.9-0.6,1.1-1.7,0.7-3.3c0,0,0,0,0,0c0,0,0,0,0.1,0c0,0,0,0,0.1,0c0,0,0,0,0,0c0.4,1.6,0.2,2.7-0.7,3.4
							c0.6,0.3,1.2,0.6,1.9,0.8c0,0,0,0,0.1,0c1.2-0.3,1.9-0.9,2-1.6c0-0.1,0-0.1,0-0.2c0,0,0,0,0,0c0,0,0,0,0,0
							c0-0.2,0-0.4-0.1-0.7c-0.4-1.3-1.6-2.5-3.5-3.6c-1.9-1.1-4.2-1.9-6.7-2.6c-2.6-0.6-5.7-1.4-9.5-2.4c0,0.2,0,0.4,0.1,0.6
							c0.3,3,0.9,5.2,1.9,6.4c1,1.3,2.5,2.5,4.4,3.6c1.9,1.1,4,1.7,6.4,1.9c2.3,0.2,3.9-0.2,4.8-1.3c0,0,0,0,0,0
							c-0.7-0.3-1.3-0.5-1.9-0.8c-1.2,0.7-3.6,0.7-7.2,0c0,0,0,0-0.1,0c0,0,0,0,0,0c0,0,0,0,0,0c0,0,0,0,0.1,0c3.5,0.6,5.8,0.6,7,0
							c-1.3-0.6-2.6-1.2-3.8-1.9c-0.9,0.5-2.8,0.6-5.5,0.2c0,0-0.1,0-0.1,0c0,0,0,0,0,0c0,0,0,0,0,0c0,0,0.1,0,0.1,0
							c2.7,0.4,4.5,0.3,5.3-0.2c-1.2-0.6-2.3-1.3-3.3-1.9c-0.9,0.6-2.5,0.6-4.8,0c0,0,0,0-0.1,0c0,0,0,0,0,0c0,0,0,0,0,0
							c0,0,0,0,0.1,0c2.2,0.6,3.8,0.6,4.6,0c-0.5-0.3-1-0.7-1.5-1c-0.6-0.4-1.2-0.8-1.8-1.3c-0.9,0.3-1.9,0.2-2.9-0.3c0,0,0,0,0,0
							c0,0,0,0,0,0c0,0,0,0,0.1,0c0,0,0,0,0.1,0c0.9,0.5,1.8,0.6,2.7,0.3c-0.8-0.6-1.5-1.2-2.2-1.8c0,0-0.1,0,0-0.1c0,0,0,0,0.1-0.1
							c0,0,0.1,0,0.1,0c0,0,0.1,0,0.1,0c1.2,1,2.5,2.1,4,3C-2.2,18.2-1.8,17.4-2.6,16.6z"/>
						<path id="Shape_202_" class="st59" d="M-2.6,16.6C-2.6,16.6-2.6,16.6-2.6,16.6c0.8,0.9,0.4,1.6-1,2.3c-1.4-1-2.8-2-4-3
							c0,0-0.1,0-0.1,0c-0.1,0-0.1,0-0.1,0c0,0-0.1,0-0.1,0.1c0,0,0,0.1,0,0.1c0.7,0.6,1.4,1.2,2.2,1.8c-0.9,0.3-1.8,0.2-2.7-0.3
							c0,0,0,0-0.1,0c0,0-0.1,0-0.1,0c0,0,0,0,0,0c0,0,0,0,0,0c1,0.5,2,0.7,2.9,0.3c0.6,0.4,1.2,0.8,1.8,1.3c0.5,0.3,1,0.7,1.5,1
							c-0.8,0.6-2.4,0.6-4.6,0c0,0,0,0-0.1,0c0,0,0,0,0,0c0,0,0,0,0,0c0,0,0,0,0.1,0c2.3,0.6,3.9,0.6,4.8,0c1.1,0.6,2.2,1.3,3.3,1.9
							c-0.9,0.5-2.7,0.6-5.3,0.2c0,0-0.1,0-0.1,0c0,0,0,0,0,0c0,0,0,0,0,0c0,0,0,0,0.1,0c2.8,0.4,4.6,0.3,5.5-0.2
							c1.2,0.7,2.5,1.3,3.8,1.9c-1.2,0.6-3.5,0.6-7,0c0,0-0.1,0-0.1,0c0,0,0,0,0,0c0,0,0,0,0,0c0,0,0,0,0.1,0c3.6,0.7,6,0.6,7.2,0
							c0.6,0.3,1.3,0.6,1.9,0.8c0,0,0,0,0,0h0c0,0,0.1,0,0.1,0c0,0,0.1,0,0.1,0c0,0,0,0,0,0c0,0,0,0,0,0c0,0,0,0,0,0c0,0,0,0-0.1,0
							c-0.6-0.3-1.3-0.5-1.9-0.8c0.9-0.7,1.2-1.8,0.7-3.4c0,0,0,0,0,0c0,0,0,0-0.1,0c0,0-0.1,0-0.1,0c0,0,0,0,0,0
							c0.4,1.6,0.2,2.7-0.7,3.3c-1.3-0.6-2.6-1.2-3.8-1.9c0.7-0.5,1-1.4,0.9-2.6c0,0,0,0,0,0c0,0,0,0-0.1,0c0,0,0,0-0.1,0
							c0,0,0,0,0,0c0.1,1.2-0.1,2-0.8,2.5C-0.4,20.9-2,20-3.5,19c1.5-0.7,1.9-1.5,1.1-2.4c0,0,0,0-0.1,0
							C-2.5,16.5-2.5,16.5-2.6,16.6C-2.6,16.5-2.6,16.6-2.6,16.6z"/>
					</g>
				</g>
			</g>
		</g>
		<g id="basil-copy" transform="translate(126.000000, 19.000000)">
			
				<g id="Group_11_" transform="translate(10.434375, 7.206522) scale(-1, 1) translate(-10.434375, -7.206522) translate(0.262500, 0.032609)">
				<g id="people_0_Layer12_12_FILL_1_">
					<g>
						<path id="Shape_201_" class="st56" d="M-11.7,21.1L-11.7,21.1l0,0.6h0c0,0,0.1,0,0.1,0c0,0,0.1,0,0.1,0c0,0,0,0,0-0.1v0l0-0.5
							c0,0,0,0,0,0c0,0-0.1,0-0.1,0C-11.6,21.1-11.7,21.1-11.7,21.1z"/>
						<path id="Shape_200_" class="st57" d="M-9.5,19.5l0-0.4c0,0.1,0,0.1,0,0.2c-0.1,0.7-0.8,1.3-2,1.6c0,0,0,0,0,0c0,0,0,0,0,0
							l0,0.5C-10.1,21.1-9.4,20.5-9.5,19.5L-9.5,19.5z M-22.9,21c1.9,1.1,4,1.7,6.4,1.9c2.3,0.2,3.9-0.2,4.8-1.3v-0.6
							c-0.9,1-2.5,1.5-4.8,1.3c-2.3-0.2-4.4-0.9-6.4-1.9s-3.4-2.3-4.4-3.6c-1-1.2-1.6-3.4-1.9-6.4c0-0.2,0-0.4-0.1-0.6v1.4
							c0.3,2.8,0.9,4.9,1.9,6.2C-26.3,18.7-24.8,19.9-22.9,21z"/>
						<path id="Shape_199_" class="st58" d="M-21.5,12.9C-21.5,12.8-21.5,12.8-21.5,12.9C-21.5,12.8-21.5,12.8-21.5,12.9
							C-21.4,12.8-21.4,12.8-21.5,12.9c0.1-0.1,0.1-0.1,0.2,0c0.8,0.9,0.4,1.7-1.1,2.4c1.5,1,3.1,2,4.9,2.9c0.7-0.5,0.9-1.4,0.8-2.5
							c0,0,0,0,0,0c0,0,0,0,0.1,0c0,0,0,0,0.1,0c0,0,0,0,0,0c0.1,1.2-0.2,2-0.9,2.6c1.2,0.6,2.5,1.3,3.8,1.9
							c0.9-0.6,1.1-1.7,0.7-3.3c0,0,0,0,0,0c0,0,0,0,0.1,0c0,0,0,0,0.1,0c0,0,0,0,0,0c0.4,1.6,0.2,2.7-0.7,3.4
							c0.6,0.3,1.2,0.6,1.9,0.8c0,0,0,0,0.1,0c1.2-0.3,1.9-0.9,2-1.6c0-0.1,0-0.1,0-0.2c0,0,0,0,0,0c0,0,0,0,0,0
							c0-0.2,0-0.4-0.1-0.7c-0.4-1.3-1.6-2.5-3.5-3.6c-1.9-1.1-4.2-1.9-6.7-2.6c-2.6-0.6-5.7-1.4-9.5-2.4c0,0.2,0,0.4,0.1,0.6
							c0.3,3,0.9,5.2,1.9,6.4c1,1.3,2.5,2.5,4.4,3.6c1.9,1.1,4,1.7,6.4,1.9c2.3,0.2,3.9-0.2,4.8-1.3c0,0,0,0,0,0
							c-0.7-0.3-1.3-0.5-1.9-0.8c-1.2,0.7-3.6,0.7-7.2,0c0,0,0,0-0.1,0c0,0,0,0,0,0c0,0,0,0,0,0c0,0,0,0,0.1,0c3.5,0.6,5.8,0.6,7,0
							c-1.3-0.6-2.6-1.2-3.8-1.9c-0.9,0.5-2.8,0.6-5.5,0.2c0,0-0.1,0-0.1,0c0,0,0,0,0,0c0,0,0,0,0,0c0,0,0.1,0,0.1,0
							c2.7,0.4,4.5,0.3,5.3-0.2c-1.2-0.6-2.3-1.3-3.3-1.9c-0.9,0.6-2.5,0.6-4.8,0c0,0,0,0-0.1,0c0,0,0,0,0,0c0,0,0,0,0,0
							c0,0,0,0,0.1,0c2.2,0.6,3.8,0.6,4.6,0c-0.5-0.3-1-0.7-1.5-1c-0.6-0.4-1.2-0.8-1.8-1.3c-0.9,0.3-1.9,0.2-2.9-0.3c0,0,0,0,0,0
							c0,0,0,0,0,0c0,0,0,0,0.1,0c0,0,0,0,0.1,0c0.9,0.5,1.8,0.6,2.7,0.3c-0.8-0.6-1.5-1.2-2.2-1.8c0,0-0.1,0,0-0.1c0,0,0,0,0.1-0.1
							c0,0,0.1,0,0.1,0c0,0,0.1,0,0.1,0c1.2,1,2.5,2.1,4,3C-21.1,14.4-20.7,13.7-21.5,12.9z"/>
						<path id="Shape_198_" class="st59" d="M-21.5,12.8C-21.5,12.8-21.5,12.8-21.5,12.8c0.8,0.9,0.4,1.6-1,2.3c-1.4-1-2.8-2-4-3
							c0,0-0.1,0-0.1,0c-0.1,0-0.1,0-0.1,0c0,0-0.1,0-0.1,0.1c0,0,0,0.1,0,0.1c0.7,0.6,1.4,1.2,2.2,1.8c-0.9,0.3-1.8,0.2-2.7-0.3
							c0,0,0,0-0.1,0c0,0-0.1,0-0.1,0c0,0,0,0,0,0c0,0,0,0,0,0c1,0.5,2,0.7,2.9,0.3c0.6,0.4,1.2,0.8,1.8,1.3c0.5,0.3,1,0.7,1.5,1
							c-0.8,0.6-2.4,0.6-4.6,0c0,0,0,0-0.1,0c0,0,0,0,0,0c0,0,0,0,0,0c0,0,0,0,0.1,0c2.3,0.6,3.9,0.6,4.8,0c1,0.6,2.2,1.3,3.3,1.9
							c-0.9,0.5-2.7,0.6-5.3,0.2c0,0-0.1,0-0.1,0c0,0,0,0,0,0c0,0,0,0,0,0c0,0,0,0,0.1,0c2.8,0.4,4.6,0.3,5.5-0.2
							c1.2,0.7,2.5,1.3,3.8,1.9c-1.2,0.6-3.5,0.6-7,0c0,0-0.1,0-0.1,0c0,0,0,0,0,0c0,0,0,0,0,0c0,0,0,0,0.1,0c3.6,0.7,6,0.6,7.2,0
							c0.6,0.3,1.3,0.6,1.9,0.8c0,0,0,0,0,0h0c0,0,0.1,0,0.1,0c0,0,0.1,0,0.1,0c0,0,0,0,0,0c0,0,0,0,0,0c0,0,0,0,0,0c0,0,0,0-0.1,0
							c-0.6-0.3-1.3-0.5-1.9-0.8c0.9-0.7,1.2-1.8,0.7-3.4c0,0,0,0,0,0c0,0,0,0-0.1,0c0,0-0.1,0-0.1,0c0,0,0,0,0,0
							c0.4,1.6,0.2,2.7-0.7,3.3c-1.3-0.6-2.6-1.2-3.8-1.9c0.7-0.5,1-1.4,0.9-2.6c0,0,0,0,0,0c0,0,0,0-0.1,0c0,0,0,0-0.1,0
							c0,0,0,0,0,0c0.1,1.2-0.1,2-0.8,2.5c-1.7-0.9-3.4-1.9-4.9-2.9c1.5-0.7,1.9-1.5,1.1-2.4c0,0,0,0-0.1,0
							C-21.4,12.8-21.4,12.8-21.5,12.8C-21.5,12.8-21.5,12.8-21.5,12.8z"/>
					</g>
				</g>
			</g>
		</g>
		<g id="basil-copy-2" transform="translate(113.000000, 45.000000)">
			
				<g id="Group_10_" transform="translate(10.434375, 7.206522) scale(-1, 1) translate(-10.434375, -7.206522) translate(0.262500, 0.032609)">
				<g id="people_0_Layer12_12_FILL_2_">
					<g>
						<path id="Shape_197_" class="st56" d="M32,16.1L32,16.1l0,0.6h0c0,0,0.1,0,0.1,0c0,0,0.1,0,0.1,0c0,0,0,0,0-0.1v0l0-0.5
							c0,0,0,0,0,0c0,0-0.1,0-0.1,0C32.1,16.1,32,16.1,32,16.1z"/>
						<path id="Shape_196_" class="st57" d="M34.2,14.5l0-0.4c0,0.1,0,0.1,0,0.2c-0.1,0.7-0.8,1.3-2,1.6c0,0,0,0,0,0c0,0,0,0,0,0
							l0,0.5C33.6,16.1,34.3,15.5,34.2,14.5L34.2,14.5z M20.8,16c1.9,1.1,4,1.7,6.4,1.9c2.3,0.2,3.9-0.2,4.8-1.3v-0.6
							c-0.9,1-2.5,1.5-4.8,1.3c-2.3-0.2-4.4-0.9-6.4-1.9s-3.4-2.3-4.4-3.6c-1-1.2-1.6-3.4-1.9-6.4c0-0.2,0-0.4-0.1-0.6v1.4
							c0.3,2.8,0.9,4.9,1.9,6.2C17.4,13.7,18.9,14.9,20.8,16z"/>
						<path id="Shape_195_" class="st58" d="M22.2,7.8C22.2,7.8,22.2,7.8,22.2,7.8C22.2,7.8,22.2,7.8,22.2,7.8
							C22.3,7.7,22.3,7.7,22.2,7.8c0.1-0.1,0.1-0.1,0.2,0c0.8,0.9,0.4,1.7-1.1,2.4c1.5,1,3.1,2,4.9,2.9c0.7-0.5,0.9-1.4,0.8-2.5
							c0,0,0,0,0,0c0,0,0,0,0.1,0c0,0,0,0,0.1,0c0,0,0,0,0,0c0.1,1.2-0.2,2-0.9,2.6c1.2,0.6,2.5,1.3,3.8,1.9
							c0.9-0.6,1.1-1.7,0.7-3.3c0,0,0,0,0,0c0,0,0,0,0.1,0c0,0,0,0,0.1,0c0,0,0,0,0,0c0.4,1.6,0.2,2.7-0.7,3.4
							c0.6,0.3,1.2,0.6,1.9,0.8c0,0,0,0,0.1,0c1.2-0.3,1.9-0.9,2-1.6c0-0.1,0-0.1,0-0.2c0,0,0,0,0,0c0,0,0,0,0,0
							c0-0.2,0-0.4-0.1-0.7c-0.4-1.3-1.6-2.5-3.5-3.6c-1.9-1.1-4.2-1.9-6.7-2.6c-2.6-0.6-5.7-1.4-9.5-2.4c0,0.2,0,0.4,0.1,0.6
							c0.3,3,0.9,5.2,1.9,6.4c1,1.3,2.5,2.5,4.4,3.6c1.9,1.1,4,1.7,6.4,1.9c2.3,0.2,3.9-0.2,4.8-1.3c0,0,0,0,0,0
							c-0.7-0.3-1.3-0.5-1.9-0.8c-1.2,0.7-3.6,0.7-7.2,0c0,0,0,0-0.1,0c0,0,0,0,0,0c0,0,0,0,0,0c0,0,0,0,0.1,0c3.5,0.6,5.8,0.6,7,0
							c-1.3-0.6-2.6-1.2-3.8-1.9c-0.9,0.5-2.8,0.6-5.5,0.2c0,0-0.1,0-0.1,0c0,0,0,0,0,0c0,0,0,0,0,0c0,0,0.1,0,0.1,0
							c2.7,0.4,4.5,0.3,5.3-0.2c-1.2-0.6-2.3-1.3-3.3-1.9c-0.9,0.6-2.5,0.6-4.8,0c0,0,0,0-0.1,0c0,0,0,0,0,0c0,0,0,0,0,0
							c0,0,0,0,0.1,0c2.2,0.6,3.8,0.6,4.6,0c-0.5-0.3-1-0.7-1.5-1c-0.6-0.4-1.2-0.8-1.8-1.3c-0.9,0.3-1.9,0.2-2.9-0.3c0,0,0,0,0,0
							c0,0,0,0,0,0c0,0,0,0,0.1,0c0,0,0,0,0.1,0c0.9,0.5,1.8,0.6,2.7,0.3c-0.8-0.6-1.5-1.2-2.2-1.8c0,0-0.1,0,0-0.1c0,0,0,0,0.1-0.1
							c0,0,0.1,0,0.1,0c0,0,0.1,0,0.1,0c1.2,1,2.5,2.1,4,3C22.6,9.4,23,8.7,22.2,7.8z"/>
						<path id="Shape_194_" class="st59" d="M22.2,7.8C22.2,7.8,22.2,7.8,22.2,7.8c0.8,0.9,0.4,1.6-1,2.3c-1.4-1-2.8-2-4-3
							c0,0-0.1,0-0.1,0C17,7,17,7,17,7c0,0-0.1,0-0.1,0.1c0,0,0,0.1,0,0.1c0.7,0.6,1.4,1.2,2.2,1.8c-0.9,0.3-1.8,0.2-2.7-0.3
							c0,0,0,0-0.1,0c0,0-0.1,0-0.1,0c0,0,0,0,0,0c0,0,0,0,0,0c1,0.5,2,0.7,2.9,0.3c0.6,0.4,1.2,0.8,1.8,1.3c0.5,0.3,1,0.7,1.5,1
							c-0.8,0.6-2.4,0.6-4.6,0c0,0,0,0-0.1,0c0,0,0,0,0,0c0,0,0,0,0,0c0,0,0,0,0.1,0c2.3,0.6,3.9,0.6,4.8,0c1.1,0.6,2.2,1.3,3.3,1.9
							c-0.9,0.5-2.7,0.6-5.3,0.2c0,0-0.1,0-0.1,0c0,0,0,0,0,0c0,0,0,0,0,0c0,0,0,0,0.1,0c2.8,0.4,4.6,0.3,5.5-0.2
							c1.2,0.7,2.5,1.3,3.8,1.9c-1.2,0.6-3.5,0.6-7,0c0,0-0.1,0-0.1,0c0,0,0,0,0,0c0,0,0,0,0,0c0,0,0,0,0.1,0c3.6,0.7,6,0.6,7.2,0
							c0.6,0.3,1.3,0.6,1.9,0.8c0,0,0,0,0,0h0c0,0,0.1,0,0.1,0c0,0,0.1,0,0.1,0c0,0,0,0,0,0c0,0,0,0,0,0c0,0,0,0,0,0c0,0,0,0-0.1,0
							c-0.6-0.3-1.3-0.5-1.9-0.8c0.9-0.7,1.2-1.8,0.7-3.4c0,0,0,0,0,0c0,0,0,0-0.1,0c0,0-0.1,0-0.1,0c0,0,0,0,0,0
							c0.4,1.6,0.2,2.7-0.7,3.3c-1.3-0.6-2.6-1.2-3.8-1.9c0.7-0.5,1-1.4,0.9-2.6c0,0,0,0,0,0c0,0,0,0-0.1,0c0,0,0,0-0.1,0
							c0,0,0,0,0,0c0.1,1.2-0.1,2-0.8,2.5c-1.7-0.9-3.4-1.9-4.9-2.9c1.5-0.7,1.9-1.5,1.1-2.4c0,0,0,0-0.1,0
							C22.3,7.7,22.3,7.7,22.2,7.8C22.2,7.8,22.2,7.8,22.2,7.8z"/>
					</g>
				</g>
			</g>
		</g>
		<g id="basil-copy-3" transform="translate(125.000000, 72.000000)">
			
				<g id="Group_9_" transform="translate(10.434375, 7.206522) scale(-1, 1) translate(-10.434375, -7.206522) translate(0.262500, 0.032609)">
				<g id="people_0_Layer12_12_FILL_3_">
					<g>
						<path id="Shape_193_" class="st56" d="M8,22.3L8,22.3l0,0.6h0c0,0,0.1,0,0.1,0c0,0,0.1,0,0.1,0c0,0,0,0,0-0.1v0l0-0.5
							c0,0,0,0,0,0c0,0-0.1,0-0.1,0C8,22.3,8,22.3,8,22.3z"/>
						<path id="Shape_192_" class="st57" d="M10.2,20.7l0-0.4c0,0.1,0,0.1,0,0.2c-0.1,0.7-0.8,1.3-2,1.6c0,0,0,0,0,0c0,0,0,0,0,0
							l0,0.5C9.6,22.3,10.3,21.7,10.2,20.7L10.2,20.7z M-3.2,22.2c1.9,1.1,4,1.7,6.4,1.9c2.3,0.2,3.9-0.2,4.8-1.3v-0.6
							c-0.9,1-2.5,1.5-4.8,1.3c-2.3-0.2-4.4-0.9-6.4-1.9s-3.4-2.3-4.4-3.6c-1-1.2-1.6-3.4-1.9-6.4c0-0.2,0-0.4-0.1-0.6v1.4
							c0.3,2.8,0.9,4.9,1.9,6.2C-6.6,19.9-5.1,21.1-3.2,22.2z"/>
						<path id="Shape_191_" class="st58" d="M-1.8,14C-1.8,14-1.8,14-1.8,14C-1.8,14-1.8,14-1.8,14C-1.8,14-1.7,14-1.8,14
							c0.1-0.1,0.1-0.1,0.2,0c0.8,0.9,0.4,1.7-1.1,2.4c1.5,1,3.1,2,4.9,2.9c0.7-0.5,0.9-1.4,0.8-2.5c0,0,0,0,0,0c0,0,0,0,0.1,0
							c0,0,0,0,0.1,0c0,0,0,0,0,0c0.1,1.2-0.2,2-0.9,2.6c1.2,0.6,2.5,1.3,3.8,1.9c0.9-0.6,1.1-1.7,0.7-3.3c0,0,0,0,0,0
							c0,0,0,0,0.1,0c0,0,0,0,0.1,0c0,0,0,0,0,0c0.4,1.6,0.2,2.7-0.7,3.4c0.6,0.3,1.2,0.6,1.9,0.8c0,0,0,0,0.1,0
							c1.2-0.3,1.9-0.9,2-1.6c0-0.1,0-0.1,0-0.2c0,0,0,0,0,0c0,0,0,0,0,0c0-0.2,0-0.4-0.1-0.7c-0.4-1.3-1.6-2.5-3.5-3.6
							c-1.9-1.1-4.2-1.9-6.7-2.6C-2.7,12.8-5.8,12-9.6,11c0,0.2,0,0.4,0.1,0.6c0.3,3,0.9,5.2,1.9,6.4c1,1.3,2.5,2.5,4.4,3.6
							c1.9,1.1,4,1.7,6.4,1.9c2.3,0.2,3.9-0.2,4.8-1.3c0,0,0,0,0,0C7.3,22,6.6,21.7,6,21.5c-1.2,0.7-3.6,0.7-7.2,0c0,0,0,0-0.1,0
							c0,0,0,0,0,0c0,0,0,0,0,0c0,0,0,0,0.1,0c3.5,0.6,5.8,0.6,7,0c-1.3-0.6-2.6-1.2-3.8-1.9c-0.9,0.5-2.8,0.6-5.5,0.2
							c0,0-0.1,0-0.1,0c0,0,0,0,0,0c0,0,0,0,0,0c0,0,0.1,0,0.1,0C-0.8,20,1,20,1.9,19.4c-1.2-0.6-2.3-1.3-3.3-1.9
							c-0.9,0.6-2.5,0.6-4.8,0c0,0,0,0-0.1,0c0,0,0,0,0,0c0,0,0,0,0,0c0,0,0,0,0.1,0c2.2,0.6,3.8,0.6,4.6,0c-0.5-0.3-1-0.7-1.5-1
							c-0.6-0.4-1.2-0.8-1.8-1.3c-0.9,0.3-1.9,0.2-2.9-0.3c0,0,0,0,0,0c0,0,0,0,0,0c0,0,0,0,0.1,0c0,0,0,0,0.1,0
							c0.9,0.5,1.8,0.6,2.7,0.3c-0.8-0.6-1.5-1.2-2.2-1.8c0,0-0.1,0,0-0.1c0,0,0,0,0.1-0.1c0,0,0.1,0,0.1,0c0,0,0.1,0,0.1,0
							c1.2,1,2.5,2.1,4,3C-1.4,15.6-1,14.9-1.8,14z"/>
						<path id="Shape_190_" class="st59" d="M-1.8,14C-1.8,14-1.8,14-1.8,14c0.8,0.9,0.4,1.6-1,2.3c-1.4-1-2.8-2-4-3
							c0,0-0.1,0-0.1,0c-0.1,0-0.1,0-0.1,0c0,0-0.1,0-0.1,0.1c0,0,0,0.1,0,0.1c0.7,0.6,1.4,1.2,2.2,1.8c-0.9,0.3-1.8,0.2-2.7-0.3
							c0,0,0,0-0.1,0c0,0-0.1,0-0.1,0c0,0,0,0,0,0c0,0,0,0,0,0c1,0.5,2,0.7,2.9,0.3c0.6,0.4,1.2,0.8,1.8,1.3c0.5,0.3,1,0.7,1.5,1
							c-0.8,0.6-2.4,0.6-4.6,0c0,0,0,0-0.1,0c0,0,0,0,0,0c0,0,0,0,0,0c0,0,0,0,0.1,0c2.3,0.6,3.9,0.6,4.8,0c1.1,0.6,2.2,1.3,3.3,1.9
							C1,20-0.8,20-3.4,19.6c0,0-0.1,0-0.1,0c0,0,0,0,0,0c0,0,0,0,0,0c0,0,0,0,0.1,0c2.8,0.4,4.6,0.3,5.5-0.2
							c1.2,0.7,2.5,1.3,3.8,1.9c-1.2,0.6-3.5,0.6-7,0c0,0-0.1,0-0.1,0c0,0,0,0,0,0c0,0,0,0,0,0c0,0,0,0,0.1,0c3.6,0.7,6,0.6,7.2,0
							c0.6,0.3,1.3,0.6,1.9,0.8c0,0,0,0,0,0h0c0,0,0.1,0,0.1,0c0,0,0.1,0,0.1,0c0,0,0,0,0,0c0,0,0,0,0,0c0,0,0,0,0,0c0,0,0,0-0.1,0
							c-0.6-0.3-1.3-0.5-1.9-0.8c0.9-0.7,1.2-1.8,0.7-3.4c0,0,0,0,0,0c0,0,0,0-0.1,0c0,0-0.1,0-0.1,0c0,0,0,0,0,0
							c0.4,1.6,0.2,2.7-0.7,3.3c-1.3-0.6-2.6-1.2-3.8-1.9c0.7-0.5,1-1.4,0.9-2.6c0,0,0,0,0,0c0,0,0,0-0.1,0c0,0,0,0-0.1,0
							c0,0,0,0,0,0c0.1,1.2-0.1,2-0.8,2.5c-1.7-0.9-3.4-1.9-4.9-2.9c1.5-0.7,1.9-1.5,1.1-2.4c0,0,0,0-0.1,0C-1.7,14-1.8,14-1.8,14
							C-1.8,14-1.8,14-1.8,14z"/>
					</g>
				</g>
			</g>
		</g>
		<g id="basil-copy-4" transform="translate(146.000000, 50.000000)">
			
				<g id="Group_8_" transform="translate(10.434375, 7.206522) scale(-1, 1) translate(-10.434375, -7.206522) translate(0.262500, 0.032609)">
				<g id="people_0_Layer12_12_FILL_4_">
					<g>
						<path id="Shape_189_" class="st56" d="M-0.6,32L-0.6,32l0,0.6h0c0,0,0.1,0,0.1,0c0,0,0.1,0,0.1,0c0,0,0,0,0-0.1v0l0-0.5
							c0,0,0,0,0,0c0,0-0.1,0-0.1,0C-0.5,32.1-0.5,32.1-0.6,32z"/>
						<path id="Shape_188_" class="st57" d="M1.7,30.5l0-0.4c0,0.1,0,0.1,0,0.2c-0.1,0.7-0.8,1.3-2,1.6c0,0,0,0,0,0c0,0,0,0,0,0
							l0,0.5C1.1,32.1,1.7,31.4,1.7,30.5L1.7,30.5z M-11.7,31.9c1.9,1.1,4,1.7,6.4,1.9c2.3,0.2,3.9-0.2,4.8-1.3V32
							c-0.9,1-2.5,1.5-4.8,1.3c-2.3-0.2-4.4-0.9-6.4-1.9c-1.9-1.1-3.4-2.3-4.4-3.6c-1-1.2-1.6-3.4-1.9-6.4c0-0.2,0-0.4-0.1-0.6v1.4
							c0.3,2.8,0.9,4.9,1.9,6.2C-15.1,29.7-13.7,30.9-11.7,31.9z"/>
						<path id="Shape_187_" class="st58" d="M-10.3,23.8C-10.3,23.8-10.3,23.8-10.3,23.8C-10.3,23.7-10.3,23.7-10.3,23.8
							C-10.3,23.7-10.3,23.7-10.3,23.8c0.1-0.1,0.1-0.1,0.2,0c0.8,0.9,0.4,1.7-1.1,2.4c1.5,1,3.1,2,4.9,2.9c0.7-0.5,0.9-1.4,0.8-2.5
							c0,0,0,0,0,0c0,0,0,0,0.1,0c0,0,0,0,0.1,0c0,0,0,0,0,0c0.1,1.2-0.2,2-0.9,2.6c1.2,0.6,2.5,1.3,3.8,1.9
							c0.9-0.6,1.1-1.7,0.7-3.3c0,0,0,0,0,0c0,0,0,0,0.1,0c0,0,0,0,0.1,0c0,0,0,0,0,0c0.4,1.6,0.2,2.7-0.7,3.4
							c0.6,0.3,1.2,0.6,1.9,0.8c0,0,0,0,0.1,0c1.2-0.3,1.9-0.9,2-1.6c0-0.1,0-0.1,0-0.2c0,0,0,0,0,0c0,0,0,0,0,0
							c0-0.2,0-0.4-0.1-0.7C1.2,28,0,26.8-1.9,25.8c-1.9-1.1-4.2-1.9-6.7-2.6c-2.6-0.6-5.7-1.4-9.5-2.4c0,0.2,0,0.4,0.1,0.6
							c0.3,3,0.9,5.2,1.9,6.4c1,1.3,2.5,2.5,4.4,3.6c1.9,1.1,4,1.7,6.4,1.9c2.3,0.2,3.9-0.2,4.8-1.3c0,0,0,0,0,0
							c-0.7-0.3-1.3-0.5-1.9-0.8c-1.2,0.7-3.6,0.7-7.2,0c0,0,0,0-0.1,0c0,0,0,0,0,0c0,0,0,0,0,0c0,0,0,0,0.1,0c3.5,0.6,5.8,0.6,7,0
							c-1.3-0.6-2.6-1.2-3.8-1.9c-0.9,0.5-2.8,0.6-5.5,0.2c0,0-0.1,0-0.1,0c0,0,0,0,0,0c0,0,0,0,0,0c0,0,0.1,0,0.1,0
							c2.7,0.4,4.5,0.3,5.3-0.2c-1.2-0.6-2.3-1.3-3.3-1.9c-0.9,0.6-2.5,0.6-4.8,0c0,0,0,0-0.1,0c0,0,0,0,0,0c0,0,0,0,0,0
							c0,0,0,0,0.1,0c2.2,0.6,3.8,0.6,4.6,0c-0.5-0.3-1-0.7-1.5-1c-0.6-0.4-1.2-0.8-1.8-1.3c-0.9,0.3-1.9,0.2-2.9-0.3c0,0,0,0,0,0
							c0,0,0,0,0,0c0,0,0,0,0.1,0c0,0,0,0,0.1,0c0.9,0.5,1.8,0.6,2.7,0.3c-0.8-0.6-1.5-1.2-2.2-1.8c0,0-0.1,0,0-0.1c0,0,0,0,0.1-0.1
							c0,0,0.1,0,0.1,0c0,0,0.1,0,0.1,0c1.2,1,2.5,2.1,4,3C-9.9,25.4-9.6,24.6-10.3,23.8z"/>
						<path id="Shape_186_" class="st59" d="M-10.3,23.7C-10.3,23.8-10.3,23.8-10.3,23.7c0.8,0.9,0.4,1.6-1,2.3c-1.4-1-2.8-2-4-3
							c0,0-0.1,0-0.1,0c-0.1,0-0.1,0-0.1,0c0,0-0.1,0-0.1,0.1c0,0,0,0.1,0,0.1c0.7,0.6,1.4,1.2,2.2,1.8c-0.9,0.3-1.8,0.2-2.7-0.3
							c0,0,0,0-0.1,0c0,0-0.1,0-0.1,0c0,0,0,0,0,0c0,0,0,0,0,0c1,0.5,2,0.7,2.9,0.3c0.6,0.4,1.2,0.8,1.8,1.3c0.5,0.3,1,0.7,1.5,1
							c-0.8,0.6-2.4,0.6-4.6,0c0,0,0,0-0.1,0c0,0,0,0,0,0c0,0,0,0,0,0c0,0,0,0,0.1,0c2.3,0.6,3.9,0.6,4.8,0c1.1,0.6,2.2,1.3,3.3,1.9
							c-0.9,0.5-2.7,0.6-5.3,0.2c0,0-0.1,0-0.1,0c0,0,0,0,0,0c0,0,0,0,0,0c0,0,0,0,0.1,0c2.8,0.4,4.6,0.3,5.5-0.2
							c1.2,0.7,2.5,1.3,3.8,1.9c-1.2,0.6-3.5,0.6-7,0c0,0-0.1,0-0.1,0c0,0,0,0,0,0c0,0,0,0,0,0c0,0,0,0,0.1,0c3.6,0.7,6,0.6,7.2,0
							c0.6,0.3,1.3,0.6,1.9,0.8c0,0,0,0,0,0h0c0,0,0.1,0,0.1,0c0,0,0.1,0,0.1,0c0,0,0,0,0,0c0,0,0,0,0,0c0,0,0,0,0,0c0,0,0,0-0.1,0
							c-0.6-0.3-1.3-0.5-1.9-0.8c0.9-0.7,1.2-1.8,0.7-3.4c0,0,0,0,0,0c0,0,0,0-0.1,0c0,0-0.1,0-0.1,0c0,0,0,0,0,0
							c0.4,1.6,0.2,2.7-0.7,3.3c-1.3-0.6-2.6-1.2-3.8-1.9c0.7-0.5,1-1.4,0.9-2.6c0,0,0,0,0,0c0,0,0,0-0.1,0c0,0,0,0-0.1,0
							c0,0,0,0,0,0c0.1,1.2-0.1,2-0.8,2.5c-1.7-0.9-3.4-1.9-4.9-2.9c1.5-0.7,1.9-1.5,1.1-2.4c0,0,0,0-0.1,0
							C-10.3,23.7-10.3,23.7-10.3,23.7C-10.3,23.7-10.3,23.7-10.3,23.7z"/>
					</g>
				</g>
			</g>
		</g>
	</g>
</g>
</svg>
